<svg xmlns="http://www.w3.org/2000/svg" viewBox="0 0 504.341 462.818"><defs><style>.a,.b,.c,.d,.e{fill:none;}.a{stroke:#e7e8ed;}.a,.b,.d,.e{stroke-width:1.5px;}.b,.d,.e{stroke:#003dc6;stroke-linejoin:round;}.b,.e{stroke-linecap:round;}.b,.d{stroke-miterlimit:10;}</style></defs><g transform="matrix(0.921, -0.391, 0.391, 0.921, -2061.206, -2475.721)"><g transform="translate(45 2899)"><g transform="translate(820.073 289)"><g transform="translate(0 153.341)"><line class="a" y2="106.62"/><line class="a" y2="106.62" transform="translate(415.683)"/></g><g transform="translate(57.753 359.992) rotate(-60)"><line class="a" y2="106.62"/><line class="a" y2="106.62" transform="translate(415.683 0)"/></g><g transform="translate(150.089 0) rotate(60)"><line class="a" y2="106.62" transform="translate(0 0)"/><line class="a" y2="106.62" transform="translate(415.683 0)"/></g></g><g transform="translate(810 362)"><g transform="translate(3.037 6.073)"><g transform="translate(14.171 19.232)"><path class="b" d="M20.061,13v5.061H15" transform="translate(-1.841 -11.988)"/><path class="b" d="M8.5,18.573a9.869,9.869,0,0,1,18.22,0" transform="translate(-8.5 -12.5)"/><g transform="translate(0 12.147)"><path class="b" d="M8.5,23.561V18.5h5.061" transform="translate(-8.5 -18.5)"/><path class="b" d="M26.72,18.5a9.869,9.869,0,0,1-18.22,0" transform="translate(-8.5 -18.5)"/></g></g><path class="b" d="M39.167,29.648c2.559-.86,6.871-3.2,6.871-9.219A9.663,9.663,0,0,0,36.01,10.762a13.534,13.534,0,0,0-25.753,4.982A7.262,7.262,0,0,0,1.5,22.85c0,5.741,4.693,6.944,6.774,7.2" transform="translate(-1.5 -3)"/></g><rect class="c" width="48.586" height="48.586"/></g><g transform="translate(1197 578)"><g transform="translate(5.061 1.012)"><path class="d" d="M38.94,42a5.076,5.076,0,0,1-5.061,5.061H7.561A5.076,5.076,0,0,1,2.5,42V5.561A5.076,5.076,0,0,1,7.561.5H33.879A5.076,5.076,0,0,1,38.94,5.561Z" transform="translate(-2.5 -0.5)"/><path class="d" d="M32.842,8.788A1.815,1.815,0,0,1,31.03,10.6H6.312A1.815,1.815,0,0,1,4.5,8.788V4.312A1.815,1.815,0,0,1,6.312,2.5h24.72a1.817,1.817,0,0,1,1.812,1.812V8.788Z" transform="translate(-0.451 1.549)"/><line class="d" x2="36.44" transform="translate(0 30.366)"/><line class="d" x2="36.44" transform="translate(0 16.195)"/><line class="d" y2="30.366" transform="translate(18.22 16.195)"/><line class="b" x2="6.073" transform="translate(5.061 24.293)"/><line class="b" x2="6.073" transform="translate(24.293 24.293)"/><line class="b" x2="6.073" transform="translate(24.293 40.489)"/><line class="b" x2="6.073" transform="translate(24.293 36.44)"/><line class="b" y2="6.073" transform="translate(8.098 21.257)"/><line class="b" x2="6.073" y2="6.073" transform="translate(5.061 35.428)"/><line class="b" x1="6.073" y2="6.073" transform="translate(5.061 35.428)"/></g><rect class="c" width="48.586" height="48.586"/></g><g transform="translate(1004 690)"><g transform="translate(7.086 1.012)"><path class="b" d="M6.812,15.874a3.417,3.417,0,1,0,3.417-3.415,3.417,3.417,0,1,1,3.417-3.417" transform="translate(-0.107 4.749)"/><line class="b" y2="2.277" transform="translate(10.122 24.04)"/><line class="b" y2="2.277" transform="translate(10.122 8.098)"/><path class="b" d="M37.915,47.062H3.5V.5H25.769L37.915,12.647Z" transform="translate(-3.5 -0.5)"/><path class="b" d="M14.5.5V12.647H26.647" transform="translate(7.769 -0.5)"/><line class="b" x2="22.101" transform="translate(6.241 32.391)"/><line class="b" x2="10.09" transform="translate(18.252 28.342)"/><line class="b" x2="6.073" transform="translate(22.269 24.293)"/><line class="b" x2="6.073" transform="translate(22.269 20.244)"/><line class="b" x2="22.101" transform="translate(6.241 36.44)"/><line class="b" x2="22.101" transform="translate(6.241 40.489)"/></g><rect class="c" width="48.586" height="48.586"/></g><g transform="translate(810 578)"><g transform="translate(1.012 1.012)"><line class="b" y2="2.024" transform="translate(16.187 22.269)"/><line class="b" y2="2.024" transform="translate(16.187 8.098)"/><path class="b" d="M7,14.61a3.037,3.037,0,1,0,3.037-3.037,3.037,3.037,0,1,1,3.037-3.037" transform="translate(6.155 4.622)"/><circle class="d" cx="16.195" cy="16.195" r="16.195"/><line class="b" x2="18.894" y2="18.894" transform="translate(27.668 27.668)"/></g><rect class="c" width="48.586" height="48.586"/></g><g transform="translate(1197 362)"><g transform="translate(1.012 3.037)"><circle class="b" cx="1.012" cy="1.012" r="1.012" transform="translate(32.391 24.293)"/><line class="b" x2="2.024" transform="translate(8.098 12.147)"/><line class="b" x2="2.024" transform="translate(14.171 12.147)"/><line class="b" x2="2.024" transform="translate(20.244 12.147)"/><line class="b" x2="2.024" transform="translate(26.318 12.147)"/><line class="b" x2="2.024" transform="translate(32.391 12.147)"/><line class="b" x2="2.024" transform="translate(8.098 38.464)"/><line class="b" x2="2.024" transform="translate(14.171 38.464)"/><line class="b" x2="2.024" transform="translate(20.244 38.464)"/><line class="b" x2="2.024" transform="translate(26.318 38.464)"/><line class="b" x2="2.024" transform="translate(32.391 38.464)"/><path class="b" d="M32.718,17.573a4.059,4.059,0,0,1-4.049,4.049H18.547A4.061,4.061,0,0,1,14.5,17.573V15.549A4.061,4.061,0,0,1,18.547,11.5H28.669a4.059,4.059,0,0,1,4.049,4.049Z" transform="translate(13.84 8.744)"/><path class="b" d="M37.915,17.647V11.573A6.092,6.092,0,0,0,31.842,5.5H3.5" transform="translate(2.573 2.598)"/><path class="b" d="M28.809,3.5H4.516a2.025,2.025,0,0,0,0,4.049" transform="translate(1.558 0.549)"/><path class="b" d="M40.989,31.866V37.94a6.092,6.092,0,0,1-6.073,6.073H6.573A6.091,6.091,0,0,1,.5,37.94V7.573A6.091,6.091,0,0,1,6.573,1.5H30.866c3.338,0,6.073,1.822,6.073,4.049V9.6" transform="translate(-0.5 -1.5)"/></g><rect class="c" width="48.586" height="48.586"/></g><g transform="translate(-399 -3278)"><g transform="translate(1402 3534)"><g transform="translate(1.012 5.061)"><path class="d" d="M47.065,30.844a2.029,2.029,0,0,1-2.025,2.025H2.525A2.031,2.031,0,0,1,.5,30.844V4.525A2.031,2.031,0,0,1,2.525,2.5H45.041a2.029,2.029,0,0,1,2.025,2.025Z" transform="translate(-0.5 -2.5)"/><rect class="d" width="38.467" height="22.27" transform="translate(4.049 4.049)"/><line class="b" x2="20.246" transform="translate(13.16 36.443)"/><line class="d" y2="6.074" transform="translate(20.246 30.369)"/><line class="d" y2="6.074" transform="translate(26.32 30.369)"/></g><rect class="c" width="48.59" height="48.59"/></g><g transform="translate(1411.718 3546.665)"><line class="b" y1="4.049" transform="translate(0 14.172)"/><line class="b" y1="10.123" transform="translate(4.903 8.098)"/><line class="b" y1="6.074" transform="translate(9.805 12.148)"/><line class="b" y1="4.049" transform="translate(14.708 14.172)"/><line class="b" y1="14.172" transform="translate(29.416 4.049)"/><line class="b" y1="9.111" transform="translate(24.513 9.111)"/><line class="b" y1="18.221" transform="translate(19.61 0)"/></g></g></g><g transform="translate(1005 3313)"><g transform="translate(2.813 2.813)"><line class="e" x2="129.375" transform="translate(0 129.375)"/><rect class="e" width="16.875" height="28.125" transform="translate(5.625 101.25)"/><rect class="e" width="16.875" height="56.25" transform="translate(39.375 73.125)"/><rect class="e" width="16.875" height="45" transform="translate(73.125 84.375)"/><rect class="e" width="16.875" height="84.375" transform="translate(106.875 45)"/><circle class="e" cx="5.625" cy="5.625" r="5.625" transform="translate(8.438 56.25)"/><circle class="e" cx="5.625" cy="5.625" r="5.625" transform="translate(42.188 28.125)"/><circle class="e" cx="5.625" cy="5.625" r="5.625" transform="translate(75.938 39.375)"/><circle class="e" cx="5.625" cy="5.625" r="5.625" transform="translate(109.688)"/><line class="e" y1="20.931" x2="25.104" transform="translate(18.388 37.344)"/><line class="e" x2="23.259" y2="7.751" transform="translate(53.128 35.522)"/><line class="e" x1="26.437" y2="30.836" transform="translate(85.219 9.889)"/></g><rect class="c" width="135" height="135"/></g></g></svg>