<svg xmlns="http://www.w3.org/2000/svg" viewBox="0 0 500.884 460.226"><defs><style>.a,.b,.c,.d,.e{fill:none;}.a{stroke:#e7e8ed;}.a,.b,.c,.d{stroke-width:1.5px;}.b,.c,.d{stroke:#003dc6;stroke-linejoin:round;}.b,.d{stroke-linecap:round;}.b,.c{stroke-miterlimit:10;}</style></defs><g transform="matrix(0.921, -0.391, 0.391, 0.921, -1788.51, -3265.53)"><g transform="translate(-19 3519)"><g transform="translate(320.088 289)"><g transform="translate(0 153.341)"><line class="a" y2="106.62"/><line class="a" y2="106.62" transform="translate(415.683)"/></g><g transform="translate(57.753 359.992) rotate(-60)"><line class="a" y2="106.62"/><line class="a" y2="106.62" transform="translate(415.683 0)"/></g><g transform="translate(150.089 0) rotate(60)"><line class="a" y2="106.62" transform="translate(0 0)"/><line class="a" y2="106.62" transform="translate(415.683 0)"/></g></g><g transform="translate(310 578)"><path class="b" d="M45.2.5,14.563,38.527,4,27.964" transform="translate(3.394 -0.5)"/><path class="b" d="M38.047,20.276a19,19,0,1,1-10.083-12.8" transform="translate(-0.5 5.063)"/></g><g transform="translate(503.75 690)"><rect class="c" width="48.59" height="31.689"/><line class="b" y2="6.338" transform="translate(23.239 31.689)"/><path class="b" d="M6.5,29.063,17.063,18.5,27.626,29.063" transform="translate(6.176 19.527)"/><path class="b" d="M2.5,12.95h8.45l4.225-5.282L19.4,17.176l5.282-6.338,4.225,4.225L36.3,4.5" transform="translate(1.725 3.95)"/><rect class="c" width="40.14" height="23.239" transform="translate(4.225 4.225)"/></g><g transform="translate(312 363)"><line class="b" y2="5.217" transform="translate(20.87 20.87)"/><path class="b" d="M6.824,4.139q-.717.826-1.348,1.724A21.828,21.828,0,0,0,1.5,18.458V36.2" transform="translate(-1.5 3.455)"/><path class="b" d="M10.111,1.3a21.833,21.833,0,0,0-4.1,2.246" transform="translate(3.4 0.37)"/><path class="b" d="M22.952,2.61A21.987,21.987,0,0,0,10.562.7" transform="translate(8.35 -0.5)"/><path class="b" d="M26.309,19.511A21.862,21.862,0,0,0,19,3.17" transform="translate(17.517 2.402)"/><path class="b" d="M17,28.935h4.174a7.3,7.3,0,0,0,7.3-7.3V18.5" transform="translate(15.348 19.065)"/><path class="b" d="M7.5,20a7.3,7.3,0,0,0,7.3,7.3h6.261" transform="translate(5.022 20.696)"/><path class="b" d="M6.368,7.446A15.568,15.568,0,0,0,4.5,14.863V20.08" transform="translate(1.761 7.05)"/><path class="b" d="M27.223,6.639A15.651,15.651,0,0,0,6.646,8.194" transform="translate(4.093 2.761)"/><path class="b" d="M20.7,22.563v-7.3a15.558,15.558,0,0,0-2.3-8.177" transform="translate(16.865 6.654)"/><path class="b" d="M15.5,13.5v2.087a4.175,4.175,0,0,0,4.174,4.174" transform="translate(13.717 13.63)"/><path class="b" d="M11.5,7a8.348,8.348,0,0,1,8.348,8.348" transform="translate(9.37 6.565)"/><path class="b" d="M7.5,19.491V14.274a8.327,8.327,0,0,1,2.855-6.286" transform="translate(5.022 7.639)"/><line class="b" y2="2.087" transform="translate(20.87 30.261)"/><path class="b" d="M15.674,22.674A4.175,4.175,0,0,1,11.5,18.5" transform="translate(9.37 19.065)"/><line class="b" x2="4.174" transform="translate(29.217 41.739)"/><path class="b" d="M21.587,19.5A2.086,2.086,0,0,1,19.5,21.587" transform="translate(18.065 20.152)"/><line class="b" y2="5.217" transform="translate(12.522 31.304)"/><line class="b" y2="7.304" transform="translate(43.826 26.087)"/><line class="b" y2="3.13" transform="translate(6.261 31.304)"/><path class="b" d="M6.587,27.348A2.086,2.086,0,0,1,4.5,25.261V19" transform="translate(1.761 19.609)"/></g><g transform="translate(696.75 578)"><circle class="b" cx="1.056" cy="1.056" r="1.056" transform="translate(12.676 20.07)"/><line class="b" y2="4.225" transform="translate(13.732 22.182)"/><path class="b" d="M2.613,28.626H.5V7.5H27.964V18.063" transform="translate(-0.5 7.288)"/><path class="b" d="M21.513,15.288V10.007a9.507,9.507,0,1,0-19.013,0v5.282" transform="translate(1.725 -0.5)"/><rect class="b" width="40.14" height="16.901" transform="translate(8.45 31.689)"/><g transform="translate(13.732 36.971)"><line class="b" x2="6.338" y2="6.338"/><line class="b" x1="6.338" y2="6.338"/></g><g transform="translate(25.351 36.971)"><line class="b" x2="6.338" y2="6.338"/><line class="b" x1="6.338" y2="6.338"/></g><line class="b" x2="8.45" transform="translate(35.914 44.365)"/></g><g transform="translate(503.75 256)"><path class="b" d="M49.09,37.17a3.267,3.267,0,0,1-3.169,3.357H3.669A3.267,3.267,0,0,1,.5,37.17V5.857A3.267,3.267,0,0,1,3.669,2.5H45.921A3.267,3.267,0,0,1,49.09,5.857Z" transform="translate(-0.5 -2.5)"/><line class="b" x2="29.577" transform="translate(9.507 42.252)"/><line class="b" y2="4.225" transform="translate(23.239 38.027)"/><circle class="c" cx="1.056" cy="1.056" r="1.056" transform="translate(23.239 32.745)"/><line class="c" x2="48.59" transform="translate(0 29.577)"/><line class="b" y2="2.113" transform="translate(38.019 19.013)"/><line class="b" y2="2.113" transform="translate(38.019 4.225)"/><path class="b" d="M17,15.007a3.169,3.169,0,1,0,3.169-3.169,3.169,3.169,0,1,1,3.169-3.169" transform="translate(17.854 0.838)"/><path class="b" d="M.5,19.9,12.648,7.75,21.1,16.2,29.02,8.278" transform="translate(-0.5 3.341)"/></g><g transform="translate(697 363)"><g transform="translate(4.049 1.012)"><path class="d" d="M3.5,14.525V12.5H35.893v2.025" transform="translate(-0.463 11.795)"/><line class="d" y2="6.074" transform="translate(19.234 20.246)"/><g transform="translate(0 30.369)"><path class="d" d="M2,25.611a3.037,3.037,0,1,0,3.037-3.037,3.037,3.037,0,1,1,3.037-3.037" transform="translate(-2 -14.475)"/><line class="d" y2="2.025" transform="translate(3.037 14.172)"/><line class="d" y2="2.025" transform="translate(3.037)"/></g><line class="d" y2="9.111" transform="translate(19.234 37.455)"/><path class="d" d="M17.6,16l-4.049,6.074L9.5,16" transform="translate(5.684 15.381)"/><line class="d" x2="4.049" transform="translate(17.209 38.467)"/><line class="d" x2="4.049" transform="translate(17.209 42.516)"/><path class="d" d="M24.677,18.861a2.321,2.321,0,1,0-4.64,0V27.1c0,1.306-1.731,3.571-3.037,3.571h8.1" transform="translate(13.369 15.893)"/><line class="d" x2="9.111" transform="translate(29.356 40.492)"/><path class="d" d="M25.221,15.111A9.111,9.111,0,0,0,7,15.111Z" transform="translate(3.123 5.135)"/><circle class="d" cx="5.568" cy="5.568" r="5.568" transform="translate(13.666)"/></g><rect class="e" width="48.59" height="48.59"/></g></g><g transform="translate(441 3948)"><g transform="translate(2.826 2.826)"><circle class="d" cx="42.384" cy="42.384" r="42.384" transform="translate(45.21)"/><line class="d" y2="5.651" transform="translate(87.594 59.338)"/><line class="d" y2="5.651" transform="translate(87.594 19.779)"/><path class="d" d="M14.5,30.431a8.477,8.477,0,1,0,8.477-8.477,8.477,8.477,0,1,1,8.477-8.477" transform="translate(64.618 20.431)"/><path class="d" d="M45.857,8.609A42.364,42.364,0,1,0,85.127,47.874" transform="translate(-0.5 36.748)"/><path class="d" d="M24.279,52.559a19.779,19.779,0,1,1,0-39.559" transform="translate(18.105 57.641)"/><line class="d" x2="22.605" transform="translate(16.954 84.769)"/><line class="d" x2="22.605" transform="translate(16.954 96.071)"/><path class="d" d="M.981,5.1,12.317,16.358,23.586,5.022" transform="translate(1.737 20.533)"/><path class="d" d="M31.156,1.013A28.256,28.256,0,0,0,2.984,29.354v5.651" transform="translate(11.054 1.886)"/><path class="d" d="M41.624,28.235,30.288,16.972,19.019,28.308" transform="translate(85.636 76.115)"/><path class="d" d="M16.031,50.969A28.249,28.249,0,0,0,44.2,22.622l-.017-5.651" transform="translate(71.739 76.111)"/></g><rect class="e" width="135.63" height="135.63"/></g></g></svg>