<svg xmlns="http://www.w3.org/2000/svg" viewBox="0 0 502.256 463.212"><defs><style>.a,.b,.c,.d,.e{fill:none;}.a{stroke:#e7e8ed;}.a,.b,.d,.e{stroke-width:1.5px;}.b,.d,.e{stroke:#003dc6;stroke-linejoin:round;}.b,.e{stroke-linecap:round;}.b,.d{stroke-miterlimit:10;}</style></defs><g transform="matrix(0.921, -0.391, 0.391, 0.921, -2568.5, -3596.22)"><g transform="translate(-421 4129)"><g transform="translate(1315 289)"><g transform="translate(0 153.341)"><line class="a" y2="106.62"/><line class="a" y2="106.62" transform="translate(415.683)"/></g><g transform="translate(57.753 359.992) rotate(-60)"><line class="a" y2="106.62"/><line class="a" y2="106.62" transform="translate(415.683 0)"/></g><g transform="translate(150.089 0) rotate(60)"><line class="a" y2="106.62" transform="translate(0 0)"/><line class="a" y2="106.62" transform="translate(415.683 0)"/></g></g><g transform="translate(1692.34 362)"><g transform="translate(0 1.276)"><path class="b" d="M30.783,7.5V19.117L18.641,26.926,6.5,19.117V7.5" transform="translate(5.641 -0.215)"/><path class="b" d="M30.783,11.785,18.641,19.07,6.5,11.785,18.641,4.5Z" transform="translate(5.641 -4.5)"/><line class="b" y2="12.141" transform="translate(24.283 14.57)"/><path class="b" d="M35.783,15.5V27.117L23.641,34.926,11.5,27.117V15.5" transform="translate(12.783 11.211)"/><path class="b" d="M35.783,20.093,23.641,27.378,11.5,20.093l12.141-7.809Z" transform="translate(12.783 6.618)"/><line class="b" y2="12.141" transform="translate(36.424 33.996)"/><path class="b" d="M25.783,15.5V27.117L13.641,34.926,1.5,27.117V15.5" transform="translate(-1.5 11.211)"/><path class="b" d="M25.783,20.093,13.641,27.378,1.5,20.093l12.141-7.809Z" transform="translate(-1.5 6.618)"/><line class="b" y2="12.141" transform="translate(12.141 33.996)"/></g><rect class="c" width="48.59" height="48.59"/></g><g transform="translate(1499 690)"><g transform="translate(1.012 1.012)"><path class="b" d="M26.6,14.648V5.537A3.038,3.038,0,0,0,23.561,2.5H18.5" transform="translate(17.942 1.549)"/><path class="b" d="M22.549.5,18.5,4.549,22.549,8.6" transform="translate(17.942 -0.5)"/><path class="b" d="M10.537,35.8H33.82a6.075,6.075,0,0,0,6.074-6.074V17.574H13.574V32.758a3.037,3.037,0,0,1-6.074,0V11.5h8.1v2.025H35.844v4.049" transform="translate(6.672 10.77)"/><path class="b" d="M1.5,16.5v7.086a3.034,3.034,0,0,0,3.037,3.037H9.6" transform="translate(0.525 15.893)"/><path class="b" d="M3.5,27.6l4.049-4.049L3.5,19.5" transform="translate(2.574 18.967)"/><line class="b" x1="11.135" transform="translate(3.037 24.295)"/><path class="b" d="M28.844,8.6V4.549H10.623V.5H.5V21.758a3.037,3.037,0,0,0,6.074,0V8.6h26.32V19.734c0,3.355-2.721,5.061-6.074,5.061H22.77" transform="translate(-0.5 -0.5)"/></g><rect class="c" width="48.59" height="48.59"/></g><g transform="translate(1305 362)"><g transform="translate(1.012 1.012)"><g transform="translate(12.982 25.115)"><path class="d" d="M26.044,18.23l3.606,1.842C21.813,35.394,6.912,31.181,6.912,31.181s20.728,10.6,29.948-7.42c.9.462,3.606,1.842,3.606,1.842l-2.6-12.7Z" transform="translate(-6.912 -12.905)"/></g><line class="b" x2="24.435" transform="translate(2.83 34.418)"/><line class="d" x2="38.435" transform="translate(4.073 10.123)"/><line class="b" x1="39.455" transform="translate(0.022 22.27)"/><path class="b" d="M9.366,42.067A23.29,23.29,0,1,1,46.744,19.776" transform="translate(-0.5 -0.5)"/><path class="b" d="M15.826.526c-10.149,11-11.666,24.757-4.806,38.431" transform="translate(5.979 -0.473)"/><path class="b" d="M12.73.526c6.1,6.612,9.082,14.223,9,22.218" transform="translate(12.031 -0.473)"/></g><rect class="c" width="48.59" height="48.59"/></g><g transform="translate(1499 256)"><g transform="translate(1.012 1.012)"><line class="d" y2="30.369" transform="translate(42.516 8.098)"/><line class="d" x2="30.369" transform="translate(8.098 4.049)"/><path class="d" d="M36.918,38.918H2.5V4.5" transform="translate(1.549 3.598)"/><rect class="b" width="8.098" height="8.098"/><rect class="b" width="8.098" height="8.098" transform="translate(38.467)"/><rect class="b" width="8.098" height="8.098" transform="translate(38.467 38.467)"/><rect class="d" width="16.197" height="16.197" transform="translate(4.049 26.32)"/><line class="b" y1="10.123" x2="10.123" transform="translate(20.246 16.197)"/><path class="b" d="M11.5,8.5h8.1v8.1" transform="translate(10.77 7.697)"/></g><rect class="c" width="48.59" height="48.59"/></g><g transform="translate(1689.73 578)"><g transform="translate(1.012 1.014)"><circle class="d" cx="8.098" cy="8.098" r="8.098" transform="translate(18.219 12.148)"/><circle class="d" cx="3.037" cy="3.037" r="3.037" transform="translate(0 7.086)"/><circle class="d" cx="3.037" cy="3.037" r="3.037" transform="translate(40.492)"/><circle class="d" cx="3.037" cy="3.037" r="3.037" transform="translate(0 40.492)"/><circle class="d" cx="3.037" cy="3.037" r="3.037" transform="translate(23.281 40.492)"/><line class="d" y1="15.389" x2="15.427" transform="translate(5.183 25.992)"/><line class="d" y1="9.345" x2="9.323" transform="translate(32.055 5.185)"/><line class="d" x2="13.103" y2="5.618" transform="translate(5.77 11.439)"/><line class="d" x1="7.325" y1="3.027" transform="translate(33.292 24.364)"/><line class="d" y1="12.148" transform="translate(26.318 28.344)"/><circle class="d" cx="3.037" cy="3.037" r="3.037" transform="translate(40.492 25.307)"/></g><rect class="c" width="48.59" height="48.59"/></g><g transform="translate(1305 578)"><g transform="translate(3.037 3.037)"><ellipse class="b" cx="6.074" cy="3.037" rx="6.074" ry="3.037"/><path class="b" d="M13.647,5.5c0,1.676-2.721,3.037-6.074,3.037S1.5,7.176,1.5,5.5" transform="translate(-1.5 2.598)"/><path class="b" d="M13.647,3V13.123c0,1.676-2.721,3.037-6.074,3.037S1.5,14.8,1.5,13.123V3" transform="translate(-1.5 0.037)"/><ellipse class="b" cx="6.074" cy="3.037" rx="6.074" ry="3.037" transform="translate(30.369)"/><path class="b" d="M28.647,5.5c0,1.676-2.721,3.037-6.074,3.037S16.5,7.176,16.5,5.5" transform="translate(13.869 2.598)"/><path class="b" d="M28.647,3V13.123c0,1.676-2.721,3.037-6.074,3.037S16.5,14.8,16.5,13.123V3" transform="translate(13.869 0.037)"/><ellipse class="b" cx="6.074" cy="3.037" rx="6.074" ry="3.037" transform="translate(0 26.32)"/><path class="b" d="M13.647,18.5c0,1.676-2.721,3.037-6.074,3.037S1.5,20.176,1.5,18.5" transform="translate(-1.5 15.918)"/><path class="b" d="M13.647,16V26.123c0,1.676-2.721,3.037-6.074,3.037S1.5,27.8,1.5,26.123V16" transform="translate(-1.5 13.356)"/><ellipse class="b" cx="6.074" cy="3.037" rx="6.074" ry="3.037" transform="translate(30.369 26.32)"/><path class="b" d="M28.647,18.5c0,1.676-2.721,3.037-6.074,3.037S16.5,20.176,16.5,18.5" transform="translate(13.869 15.918)"/><path class="b" d="M28.647,16V26.123c0,1.676-2.721,3.037-6.074,3.037S16.5,27.8,16.5,26.123V16" transform="translate(13.869 13.356)"/><line class="b" x2="18.693" y2="14.526" transform="translate(11.917 13.984)"/><line class="b" y1="14.526" x2="18.693" transform="translate(11.917 13.984)"/></g><rect class="c" width="48.59" height="48.59"/></g></g><g transform="translate(-226 3517)"><path class="e" d="M72.359,73.014V92.693H56.308" transform="translate(1232.531 1018.381)"/><line class="e" y2="80.797" transform="translate(1318.773 1078.298)"/><path class="e" d="M85.308,68v28.76H70.05l-.057,33.449" transform="translate(1269.067 1029.011)"/><line class="e" y2="25.43" transform="translate(1336.857 1078.298)"/><circle class="e" cx="4.521" cy="4.521" r="4.521" transform="translate(1332.335 1103.728)"/><circle class="e" cx="4.521" cy="4.521" r="4.521" transform="translate(1334.596 1159.675)"/><line class="e" y2="16.753" transform="translate(1298.428 1123.508)"/><line class="e" y2="6.551" transform="translate(1359.461 1134.81)"/><circle class="e" cx="4.521" cy="4.521" r="4.521" transform="translate(1293.907 1141.592)"/><circle class="e" cx="4.521" cy="4.521" r="4.521" transform="translate(1354.94 1141.592)"/><circle class="e" cx="4.521" cy="4.521" r="4.521" transform="translate(1314.252 1159.675)"/><g transform="translate(1266.216 1048.347)"><path class="e" d="M101.5,76.181s24.328-3.17,24.328-27.03a26.974,26.974,0,0,0-28-26.973A37.778,37.778,0,0,0,25.936,36.069,20.264,20.264,0,0,0,1.5,55.9c0,20.6,21.622,20.277,21.622,20.277" transform="translate(-1.5 -0.5)"/></g><rect class="c" width="135.629" height="135.629" transform="translate(1260 1041)"/></g></g></svg>