<?xml version="1.0" encoding="utf-8"?>
<!-- Generator: Adobe Illustrator 22.1.0, SVG Export Plug-In . SVG Version: 6.00 Build 0)  -->
<svg version="1.1" id="Слой_1" xmlns="http://www.w3.org/2000/svg" xmlns:xlink="http://www.w3.org/1999/xlink" x="0px" y="0px"
	 viewBox="0 0 25 24" style="enable-background:new 0 0 25 24;" xml:space="preserve">
<path class="st0" d="M25,12c0-0.1,0-0.3-0.1-0.4c0,0,0,0,0,0c-0.1-0.1-0.1-0.2-0.2-0.3c0,0,0,0,0,0l-12.5-11c-0.4-0.4-1-0.3-1.4,0.1
	c-0.4,0.4-0.3,1,0.1,1.4L21.3,11H1c-0.6,0-1,0.4-1,1s0.4,1,1,1h20.4l-10.5,9.3c-0.4,0.4-0.5,1-0.1,1.4c0.2,0.2,0.5,0.3,0.8,0.3
	c0.2,0,0.5-0.1,0.7-0.2l12.5-11c0,0,0,0,0,0c0.1-0.1,0.1-0.1,0.1-0.2c0,0,0.1-0.1,0.1-0.1C25,12.3,25,12.2,25,12C25,12,25,12,25,12
	C25,12,25,12,25,12C25,12,25,12,25,12z"/>
</svg>
