<svg xmlns="http://www.w3.org/2000/svg" viewBox="0 0 48.624 48"><defs><style>.a,.b{fill:none;stroke:#003dc6;stroke-linejoin:round;stroke-miterlimit:10;stroke-width:2px;}.b{stroke-linecap:round;}</style></defs><g transform="translate(-0.688)"><ellipse class="a" cx="7" cy="7" rx="7" ry="7" transform="translate(5.688 1)"/><line class="a" x2="8" transform="translate(8.688 37)"/><path class="b" d="M11.532,13.339l-2.559,3.6L4.027,10.057" transform="translate(3.715 10.057)"/><ellipse class="a" cx="7" cy="7" rx="7" ry="7" transform="translate(23.312 1)"/><path class="a" d="M31.812,9.5h-22c0,8.138,3.28,12.884,7,15v13h8v-13C28.528,22.384,31.812,17.638,31.812,9.5Z" transform="translate(9.5 9.5)"/><path class="b" d="M14.707,9.645A5.381,5.381,0,0,0,12,9C5.924,9,1,18,1,28H8V38h8V28h4.189" transform="translate(0.688 9)"/><path class="a" d="M24.312,16.5h3v14h-6v-14Z" transform="translate(21 16.5)"/><line class="b" y1="2" transform="translate(45.312 31)"/><path class="a" d="M17.312,9.5h-2l-1,12,2,2,2-2Z" transform="translate(14 9.5)"/></g></svg>