<svg xmlns="http://www.w3.org/2000/svg" viewBox="0 0 64.18 64.179"><defs><style>.a{fill:none;stroke:#003dc6;stroke-linejoin:round;stroke-miterlimit:10;stroke-width:2px;}</style></defs><g transform="translate(63.18 63.179) rotate(180)"><path class="a" d="M30.264.922l6.242,6.242L9.407,34.43a4.414,4.414,0,0,1-6.242-6.242Z" transform="translate(-1.872 26.456)"/><path class="a" d="M46.44,23.893A47.471,47.471,0,0,0,34.224,7.873c-.493-.422-7.543,3.661-7.543,3.661s4.489-6.052,3.6-6.666A52.086,52.086,0,0,0,23.55,1L12.173,19.79a5.89,5.89,0,0,0,.486,7.775l7.219,7.222a5.887,5.887,0,0,0,7.775.483Z" transform="translate(15.739 -1)"/></g></svg>