<svg xmlns="http://www.w3.org/2000/svg" viewBox="0 0 60 60"><defs><style>.a,.c{fill:none;}.a{stroke:#003dc6;stroke-linecap:round;stroke-linejoin:round;stroke-miterlimit:10;stroke-width:2px;}.b{opacity:0;}</style></defs><g transform="translate(3.75 1.25)"><line class="a" y2="6.25" transform="translate(25 25)"/><path class="a" d="M7.878,4.139q-.859.99-1.615,2.065A26.148,26.148,0,0,0,1.5,21.292v21.25" transform="translate(-1.5 4.958)"/><path class="a" d="M10.923,1.3A26.154,26.154,0,0,0,6.008,3.99" transform="translate(5.262 0.7)"/><path class="a" d="M25.4,3.028A26.338,26.338,0,0,0,10.562.745" transform="translate(12.093 -0.5)"/><path class="a" d="M27.756,22.745A26.189,26.189,0,0,0,19,3.17" transform="translate(24.744 3.505)"/><path class="a" d="M17,31h5a8.748,8.748,0,0,0,8.75-8.75V18.5" transform="translate(21.75 26.5)"/><path class="a" d="M7.5,20a8.748,8.748,0,0,0,8.75,8.75h7.5" transform="translate(7.5 28.75)"/><path class="a" d="M6.738,7.446A18.649,18.649,0,0,0,4.5,16.331v6.25" transform="translate(3 9.919)"/><path class="a" d="M31.3,7.26A18.749,18.749,0,0,0,6.646,9.123" transform="translate(6.219 4)"/><path class="a" d="M21.156,25.627v-8.75a18.637,18.637,0,0,0-2.76-9.8" transform="translate(23.844 9.373)"/><path class="a" d="M15.5,13.5V16a5,5,0,0,0,5,5" transform="translate(19.5 19)"/><path class="a" d="M11.5,7a10,10,0,0,1,10,10" transform="translate(13.5 9.25)"/><path class="a" d="M7.5,21.768v-6.25a9.975,9.975,0,0,1,3.42-7.53" transform="translate(7.5 10.732)"/><line class="a" y2="2.5" transform="translate(25 36.25)"/><path class="a" d="M16.5,23.5a5,5,0,0,1-5-5" transform="translate(13.5 26.5)"/><line class="a" x2="5" transform="translate(35 50)"/><path class="a" d="M22,19.5A2.5,2.5,0,0,1,19.5,22" transform="translate(25.5 28)"/><line class="a" y2="6.25" transform="translate(15 37.5)"/><line class="a" y2="8.75" transform="translate(52.5 31.25)"/><line class="a" y2="3.75" transform="translate(7.5 37.5)"/><path class="a" d="M7,29a2.5,2.5,0,0,1-2.5-2.5V19" transform="translate(3 27.25)"/></g><g class="b"><rect class="c" width="60" height="60"/></g></svg>