<svg xmlns="http://www.w3.org/2000/svg" viewBox="0 0 59.5 52"><defs><style>.a{fill:none;stroke:#fff;stroke-linecap:round;stroke-linejoin:round;stroke-miterlimit:10;stroke-width:2px;}.b{fill:#fff;}</style></defs><g transform="translate(1 1)"><path class="a" d="M50,10.338v30.4H2.5v-30.4" transform="translate(2.498 9.257)"/><rect class="a" width="20" height="15" transform="translate(10 27.5)"/><rect class="a" width="12.5" height="22.5" transform="translate(35 27.5)"/><path class="a" d="M53,2.5H5.5l-5,10H58Z" transform="translate(-0.502 -2.5)"/><path class="a" d="M58,9c0,5.755-6.9,10.57-12.5,5-3.635,5.775-11.645,6.825-16.25,1.6C24.6,20.892,16.59,19.695,13,14,7.467,19.515.5,14.817.5,9V6.5H58Z" transform="translate(-0.502 3.5)"/><path class="a" d="M5.5,20V12.5L8,2.5" transform="translate(6.998 -2.5)"/><path class="a" d="M12,21.615V2.5" transform="translate(16.748 -2.5)"/><path class="a" d="M20,20V12.5l-2.5-10" transform="translate(24.998 -2.5)"/><g transform="translate(41.25 38.75)"><path class="b" d="M18.252,18a1.25,1.25,0,1,0,1.25,1.25A1.25,1.25,0,0,0,18.252,18Z" transform="translate(-17.002 -18)"/></g></g></svg>
