<svg xmlns="http://www.w3.org/2000/svg" viewBox="0 0 68.829 26.945"><defs><style>.a{fill:#0f1b38;}</style></defs><path class="a" d="M253.126,53.685a5.313,5.313,0,0,1,1.763.3l-.616,2.111a2.118,2.118,0,0,0-1.019-.261c-1.045,0-1.68.63-1.68,1.87v4.762h-2.516V57.849C249.062,55.056,250.645,53.685,253.126,53.685Zm-30.916-11.2c0-1.243.63-1.873,1.677-1.873a2.118,2.118,0,0,1,1.018.261l.617-2.108a5.248,5.248,0,0,0-1.763-.3c-2.484,0-4.067,1.371-4.067,4.161v4.608h2.518ZM206.065,35.65a1.405,1.405,0,1,0,1.465,1.356A1.357,1.357,0,0,0,206.065,35.65ZM204.8,47.235h2.518V39.66H204.8ZM239.4,35.65h-2.516V47.235H239.4ZM256,62.464h2.516V50.877H256Zm-52.27-4.143-5.185-6.875a1.429,1.429,0,0,0-1.144-.569h0a1.434,1.434,0,0,0-1.434,1.434V62.464h2.565V55.022l5.2,6.873a1.432,1.432,0,0,0,2.576-.862V50.877h-2.578Zm13.286-.165c0,.193-.031.468-.047.677H210.4a2.313,2.313,0,0,0,2.484,1.742,2.936,2.936,0,0,0,2.179-.839l1.34,1.452a4.548,4.548,0,0,1-3.581,1.405c-3,0-4.963-1.889-4.963-4.469a4.43,4.43,0,0,1,4.631-4.47A4.3,4.3,0,0,1,217.015,58.157Zm-2.372-.784a2.166,2.166,0,0,0-4.274,0Zm19.3,2.288-1.452-4.851a1.439,1.439,0,0,0-2.753-.016l-1.512,4.861-1.447-5.872H224.1l2.142,7.359a1.829,1.829,0,0,0,3.513.042l1.306-4.109,1.256,4.1a1.829,1.829,0,0,0,3.5-.021l2.16-7.366h-2.529Zm-20.72-12.277A7.466,7.466,0,0,1,209.6,46.5V35.65h2.51v3.156a3.783,3.783,0,0,1,1.711-.371,4.337,4.337,0,0,1,4.441,4.5c.013,2.633-1.815,4.438-5.044,4.436Zm-1.108-2.192a7.6,7.6,0,0,0,1.136.175,2.27,2.27,0,0,0,2.471-2.429,2.235,2.235,0,0,0-2.333-2.437,2.184,2.184,0,0,0-1.275.394Zm49.69,13.6a1.2,1.2,0,0,1-.065-1.411l2.38-3.618h-2.7L259.735,56.4a3,3,0,0,0,.081,3.362l1.9,2.685h3ZM202.711,43.275V35.65H200.1v7.771c0,1.241-.549,1.87-1.6,1.87a2.275,2.275,0,0,1-1.567-.661l-1.045,2.014a4.9,4.9,0,0,0,2.753.784C201.3,47.439,202.711,46.068,202.711,43.275Zm23.356-.371a4.421,4.421,0,0,1,4.631-4.47,4.3,4.3,0,0,1,4.517,4.5c0,.2-.031.47-.05.679h-6.572a2.311,2.311,0,0,0,2.484,1.742,2.947,2.947,0,0,0,2.179-.839l1.337,1.452a4.546,4.546,0,0,1-3.581,1.4c-3,0-4.953-1.889-4.953-4.469Zm2.5-.758h4.276a2.168,2.168,0,0,0-4.276,0Zm19.249,15.979a4.456,4.456,0,0,1-4.759,4.47h0a4.478,4.478,0,1,1,0-8.939h0a4.449,4.449,0,0,1,4.752,4.47Zm-2.55,0a2.191,2.191,0,0,0-2.21-2.406h0a2.413,2.413,0,0,0,0,4.809h0a2.188,2.188,0,0,0,2.2-2.4ZM222.48,60.448c-1.045,0-1.677-.63-1.677-1.87V55.72h2.069l-.569-1.936h-1.5V50.877h-2.518v7.555c0,2.792,1.583,4.164,4.065,4.164a5.313,5.313,0,0,0,1.763-.3l-.614-2.111a2.137,2.137,0,0,1-1.021.261Z" transform="translate(-195.89 -35.65)"/></svg>