<svg xmlns="http://www.w3.org/2000/svg" viewBox="0 0 41.534 45.558"><defs><style>.a{fill:#003dc6;}</style></defs><path class="a" d="M20.774,45.558a7.732,7.732,0,0,1-3.857-1.032L3.855,36.989A7.737,7.737,0,0,1,0,30.309V15.237A7.745,7.745,0,0,1,3.848,8.568L16.909,1.035a7.706,7.706,0,0,1,7.713,0L37.673,8.557a7.738,7.738,0,0,1,3.861,6.68V30.309a7.733,7.733,0,0,1-3.843,6.68L24.631,44.525A7.732,7.732,0,0,1,20.774,45.558Zm-7.1-16.573-2.9,2.066A6.381,6.381,0,0,0,16,33.784a6.607,6.607,0,0,0,2.038-.324,6.388,6.388,0,0,0,4.509-6.177V24.764a6.945,6.945,0,0,0,.949.386,6.658,6.658,0,0,0,2.035.322,6.379,6.379,0,0,0,5.224-2.73l-2.9-2.069a2.926,2.926,0,0,1-5.308-1.7v-7.2H18.985V27.277a2.928,2.928,0,0,1-5.31,1.708Z" transform="translate(0 0)"/></svg>