<svg xmlns="http://www.w3.org/2000/svg" viewBox="0 0 24 24"><defs><style>.a{fill:#3d4f6c}.b{fill:#f4f5f6}</style></defs><circle class="a" cx="12" cy="12" r="12"/><path class="b" d="M104.418,50.863l-2,0a3.511,3.511,0,0,0-3.7,3.794V56.4h-2.01a.314.314,0,0,0-.314.314v2.534a.314.314,0,0,0,.314.314h2.01v6.395a.314.314,0,0,0,.314.314h2.622a.314.314,0,0,0,.314-.314V59.566h2.35a.314.314,0,0,0,.314-.314V56.717a.315.315,0,0,0-.314-.314h-2.351V54.92c0-.713.17-1.075,1.1-1.075h1.347a.314.314,0,0,0,.314-.314V51.177A.315.315,0,0,0,104.418,50.863Z" transform="translate(-89.197 -46.059)"/></svg>