<svg xmlns="http://www.w3.org/2000/svg" viewBox="0 0 300 160"><defs><style>.a,.b{fill:#3d4f6c;}.a{opacity:0;}</style></defs><g transform="translate(-323 -233)"><rect class="a" width="300" height="160" transform="translate(323 233)"/><g transform="translate(-5483 -1024)"><path class="b" d="M252.01,0h.493a13.068,13.068,0,0,1,4.6.886,8.765,8.765,0,0,1,3.367,2.272h12.9c-.53,2.117-1.056,4.235-1.593,6.35-2.11-.009-4.218,0-6.327,0-.534,1.4-1.047,2.808-1.587,4.2,1.685-.906,3.375-1.8,5.061-2.706.95-.494,1.882-1.027,2.849-1.5-1.728,2.5-3.469,4.986-5.2,7.49q-4,5.742-7.987,11.488c.692-2.641,1.407-5.27,2.107-7.914-1.671.855-3.353,1.674-5.027,2.518a3.345,3.345,0,0,1-.909.252,14.163,14.163,0,0,1-5.887-.188,9.951,9.951,0,0,1-4.533-2.4,5.043,5.043,0,0,1-1.587-3.276V6.162a4.574,4.574,0,0,1,.9-2.544A8.277,8.277,0,0,1,247.328.912,13.035,13.035,0,0,1,252.01,0m-2.738,1.271a10.684,10.684,0,0,0-3.407,1.491,6.694,6.694,0,0,0-1.39,1.329,4.712,4.712,0,0,0-.7,1.416,3.989,3.989,0,0,0,0,1.647,4.7,4.7,0,0,0,.712,1.424,6.539,6.539,0,0,0,1.836,1.61,11.082,11.082,0,0,0,2.922,1.194,14.066,14.066,0,0,0,4.822.2,9.511,9.511,0,0,0,2.087-.48A9.152,9.152,0,0,0,259.1,9.5h-6.34c.524-2.115,1.061-4.229,1.583-6.344h4.763A9.6,9.6,0,0,0,255.681,1.4a13.592,13.592,0,0,0-4.518-.4,14.218,14.218,0,0,0-1.889.285m4.7,7.265H260.3c-.412,1.744-.91,3.464-1.365,5.2-.7,2.564-1.375,5.128-2.075,7.683.648-.33,1.3-.654,1.951-.979,1.108-.57,2.242-1.081,3.345-1.661-.122.471-.259.937-.385,1.407-.322,1.122-.59,2.259-.924,3.376q3.951-5.7,7.91-11.386c-1.273.691-2.554,1.363-3.832,2.047-.919.5-1.862.95-2.789,1.436.855-2.387,1.769-4.746,2.642-7.122h6.28q.534-2.211,1.1-4.416H255.075c-.363,1.471-.735,2.941-1.1,4.416m-10.289.57a7.876,7.876,0,0,0,.087,1.611,4.544,4.544,0,0,0,1.172,1.959,7.692,7.692,0,0,0,2.58,1.7,10.933,10.933,0,0,0,4.091.883,14.034,14.034,0,0,0,2.634-.127,10.515,10.515,0,0,0,3.469-1.124c.087-.051.2-.09.221-.2.261-.947.5-1.9.776-2.849a11.718,11.718,0,0,1-4.463,1.567,13.959,13.959,0,0,1-6.084-.469,8.88,8.88,0,0,1-4.49-2.943m0,3.561a9.485,9.485,0,0,0,.081,1.709A4.675,4.675,0,0,0,245.1,16.55a8.384,8.384,0,0,0,2.81,1.692,11.708,11.708,0,0,0,4.441.741,11.608,11.608,0,0,0,4.407-.815c.285-1.006.544-2.018.822-3.027a12.578,12.578,0,0,1-4.1,1.057,6.639,6.639,0,0,1-.94-.014v.034a4.6,4.6,0,0,1,.464.016c-.513.017-1.026.02-1.537,0a4.454,4.454,0,0,0,.47-.028c-.293-.05-.588.038-.883,0a13.692,13.692,0,0,1-3.023-.61,8.749,8.749,0,0,1-4.346-2.906m0,3.716a8.653,8.653,0,0,0,.074,1.61,4.385,4.385,0,0,0,.272.721,5.5,5.5,0,0,0,1.8,2.055,10.577,10.577,0,0,0,3.766,1.584,13.817,13.817,0,0,0,6.081-.2c.265-.96.516-1.924.782-2.883a12.82,12.82,0,0,1-3.286.631,13.644,13.644,0,0,1-5.186-.631,8.819,8.819,0,0,1-4.308-2.886Z" transform="translate(5598.256 1326)"/><path class="b" d="M4.468,531.443a7.122,7.122,0,0,1,10.317-.014q-.9,1-1.772,2.021A4.911,4.911,0,0,0,10.272,532a3.793,3.793,0,0,0-3.561,1.358,4.664,4.664,0,0,0-.2,5.262,3.673,3.673,0,0,0,3.319,1.664,4.966,4.966,0,0,0,3.265-1.545c.638.672,1.255,1.363,1.886,2.044a6.8,6.8,0,0,1-3.846,2.114,7.232,7.232,0,0,1-6.06-1.473,7.122,7.122,0,0,1-.6-9.976Z" transform="translate(5873.439 804.091)"/><path class="b" d="M90.89,529.341a7.362,7.362,0,0,1,6.013,1.6,6.957,6.957,0,0,1,1.652,8.2,6.852,6.852,0,0,1-5.2,3.792,7.367,7.367,0,0,1-5.564-1.3,6.913,6.913,0,0,1,3.1-12.286m.2,2.775a3.787,3.787,0,0,0-1.994,1.3,4.456,4.456,0,0,0,.53,5.963,4,4,0,0,0,5.081.017,4.424,4.424,0,0,0,.226-6.278,3.959,3.959,0,0,0-3.843-1.007Z" transform="translate(5807.23 804.076)"/><path class="b" d="M609.888,531.471a7.581,7.581,0,0,1,10.461-.44c-.623.729-1.237,1.464-1.835,2.212a5.474,5.474,0,0,0-3.093-1.336,3.728,3.728,0,0,0-3.33,1.534,4.628,4.628,0,0,0-.454,4.511,3.78,3.78,0,0,0,3.57,2.3,4.9,4.9,0,0,0,2.706-.712q-.008-.964,0-1.923c-.957.01-1.913,0-2.87.008v-2.564h5.775q-.009,2.9,0,5.792a8.689,8.689,0,0,1-6.6,2.051,6.7,6.7,0,0,1-4.06-1.839,7.122,7.122,0,0,1-.27-9.594Z" transform="translate(5386.947 804.15)"/><path class="b" d="M779.029,530.214c.9-.093,1.8-.016,2.7-.046,1.9,4.46,3.846,8.9,5.681,13.383h-3.035c-.446-1.006-.843-2.03-1.268-3.044h-5.541c-.427,1.011-.813,2.04-1.265,3.04-1-.007-1.986,0-2.979,0,1.889-4.45,3.762-8.914,5.709-13.337m-.44,7.722q1.739-.011,3.48,0c-.57-1.368-1.113-2.746-1.7-4.108-.718,1.316-1.155,2.762-1.785,4.115Z" transform="translate(5254.246 803.33)"/><path class="b" d="M950.439,530.52h2.953v13.316h-2.939c-.016-1.8,0-3.6,0-5.4H945.1v5.393h-2.95c-.02-4.437,0-8.873-.01-13.311h2.967v5.226c1.781-.073,3.561.014,5.342,0C950.443,534.007,950.439,532.262,950.439,530.52Z" transform="translate(5118.608 803.048)"/><path class="b" d="M182.443,543.837c-.016-4.439,0-8.879,0-13.317h2.951v13.317Q183.916,543.831,182.443,543.837Z" transform="translate(5729.035 803.048)"/><path class="b" d="M225.655,530.535c.923-.01,1.852-.016,2.771.007,2.014,2.707,4.092,5.377,6.149,8.058.02-2.689,0-5.382.007-8.071h2.953v10.1a27.351,27.351,0,0,1-.083,3.211q-1.194-.022-2.387,0c-2.174-2.775-4.295-5.59-6.45-8.379-.031,2.792.02,5.584-.027,8.374a21.09,21.09,0,0,1-2.947-.1C225.677,539.343,225.645,534.938,225.655,530.535Z" transform="translate(5694.319 803.043)"/><path class="b" d="M308.51,533.26V530.5c3.674,0,7.349.007,11.022,0,.011.922.01,1.843.009,2.765-1.336,0-2.669,0-4-.01v10.562c-.98,0-1.959,0-2.937.01-.046-3.521-.011-7.041-.017-10.562Z" transform="translate(5627.731 803.066)"/><path class="b" d="M387.487,530.52h10.04c0,.872,0,1.746.007,2.621-2.372.007-4.741-.008-7.111.007v2.637c2.075-.016,4.152,0,6.226-.008q.013,1.314,0,2.631c-2.075-.007-4.152,0-6.226-.007v2.776c2.4.008,4.8-.073,7.191.037a12.16,12.16,0,0,1-.065,2.632c-3.352-.026-6.706-.007-10.058-.01C387.48,539.4,387.492,534.958,387.487,530.52Z" transform="translate(5564.271 803.048)"/><path class="b" d="M463.7,530.511h2.937c.011,3.533,0,7.064,0,10.6,2.206,0,4.416-.01,6.621,0-.009.879,0,1.756,0,2.635-3.186.014-6.374,0-9.561.007Q463.7,537.13,463.7,530.511Z" transform="translate(5503.032 803.057)"/><path class="b" d="M535,530.53h10v2.622c-2.357-.009-4.715,0-7.074,0v2.638h6.226v2.632c-2.075-.01-4.151,0-6.226,0V541.2c2.4-.033,4.8-.009,7.2-.016v2.59H535Z" transform="translate(5445.74 803.041)"/><path class="b" d="M697.89,530.532c1.9-.011,3.809,0,5.715-.007a6.381,6.381,0,0,1,3.735.937,4.446,4.446,0,0,1-.157,7.061,10.668,10.668,0,0,1-.989.537c1.01,1.622,2.212,3.119,3.165,4.778H705.97c-.952-1.439-1.927-2.86-2.894-4.288h-2.234c0,1.424.01,2.859-.009,4.288h-2.9c-.063-4.433.036-8.872-.048-13.307m2.954,2.7v3.7c.989-.01,1.979.011,2.967,0a2.619,2.619,0,0,0,1.53-.439,1.869,1.869,0,0,0-.031-2.886,2.755,2.755,0,0,0-1.5-.363c-.991-.023-1.979,0-2.97-.016Z" transform="translate(5314.855 803.045)"/><path class="b" d="M866.432,543.831c-.016-4.44-.007-8.88,0-13.321,1.8.016,3.6,0,5.413.007a5.5,5.5,0,0,1,3.833,1.368,4.86,4.86,0,0,1,.984,4.986,4.752,4.752,0,0,1-4.01,2.863c-1.087.084-2.177.031-3.263.04,0,1.35,0,2.706-.009,4.051h-2.942m2.942-10.609c.014,1.322.009,2.642,0,3.966a11.231,11.231,0,0,0,3.5-.249,1.981,1.981,0,0,0,.285-3.357c-1.165-.615-2.541-.252-3.795-.353Z" transform="translate(5179.437 803.057)"/></g></g></svg>