<svg xmlns="http://www.w3.org/2000/svg" viewBox="0 0 300 160"><defs><style>.a,.b{fill:#3d4f6c;}.a{opacity:0;}</style></defs><g transform="translate(-953 -233)"><rect class="a" width="300" height="160" transform="translate(953 233)"/><g transform="translate(-4802 -949)"><path class="b" d="M22,30.017c8.587-.066,17.174-.029,25.76,0,.007,3.65-.015,7.3.011,10.947-2.448.176-4.911.033-7.366.081.011,6.1,0,12.208.007,18.31-3.676.059-7.352-.007-11.028.055-.033-6.12-.007-12.237-.015-18.357q-3.678-.022-7.352,0C21.91,37.376,21.954,33.7,22,30.017Z" transform="translate(5822 1217.964)"/><path class="b" d="M102.2,29.933c3.279-.037,6.554.051,9.833,0,2.632.11,5.271-.176,7.9.143a10.885,10.885,0,0,1,6.153,3.1q3.06,3.016,6.08,6.069a11.214,11.214,0,0,1,3.147,7.98c-.007,4.032,0,8.065,0,12.1-3.676.051-7.348.055-11.024.048-.037-3.683.011-7.366-.022-11.05-.037-1.974-1.853-3.1-3.047-4.418-1.158-1.033-2.092-2.547-3.724-2.838-1.419-.132-2.845-.029-4.264-.062.011,6.109-.011,12.215.011,18.321-3.68.092-7.359-.051-11.035.048Q102.166,44.655,102.2,29.933Z" transform="translate(5771.261 1218)"/><path class="b" d="M202.317,29.926c3.672.081,7.344-.018,11.017,0q.022,9.186,0,18.372a21.163,21.163,0,0,0,4.448-.1c1.54-.382,2.426-1.816,3.551-2.816,1.18-1.312,3-2.415,3.044-4.385.033-3.687-.011-7.374.018-11.061,3.672-.022,7.348.048,11.02-.011.022,4.172,0,8.348.007,12.524a11.2,11.2,0,0,1-1.753,5.848c1.985-.055,3.981.191,5.962-.055,1.658-.261,2.591-1.8,3.757-2.841,1.191-1.331,3.055-2.437,3.066-4.433.026-3.669.011-7.337,0-11.006,3.68-.022,7.363.018,11.046-.04q.028,6.446,0,12.884a11.857,11.857,0,0,1-4.268,8.4c-2.441,2.224-4.466,4.966-7.3,6.716a10.815,10.815,0,0,1-5.1,1.419c-3.646.07-7.289.018-10.932,0,.007-2.3.022-4.61-.011-6.914-2.253,2.136-4.187,4.8-7.135,6.032a11.415,11.415,0,0,1-4.4.9c-5.348-.015-10.7.037-16.049-.018Q202.3,44.637,202.317,29.926Z" transform="translate(5707.942 1218)"/></g></g></svg>