<svg xmlns="http://www.w3.org/2000/svg" viewBox="0 0 300 160"><defs><style>.a,.b{fill:#3d4f6c;}.a{opacity:0;}</style></defs><g transform="translate(-638 -411)"><rect class="a" width="300" height="160" transform="translate(638 411)"/><g transform="translate(-4909 -1114)"><path class="b" d="M30.144,99.785c5.645-3.077,11.1-6.5,16.755-9.565A54.166,54.166,0,0,1,54,94.327c-1.146.644-2.285,1.294-3.418,1.963q-1.843-1.052-3.707-2.09c-4.37,2.663-8.88,5.1-13.247,7.767.071,5.072.032,10.151.026,15.223,4.519,2.446,8.812,5.439,13.46,7.544,4.422-2.382,8.7-5.027,13.08-7.5-.051-5.066.019-10.138-.045-15.2,1.2-.779,2.4-1.538,3.611-2.292.032,6.482-.039,12.97.039,19.459-5.594,3.321-11.252,6.54-16.891,9.8-5.568-3.341-11.239-6.5-16.833-9.8C30.2,112.73,30.08,106.254,30.144,99.785Z" transform="translate(5573 1494.939)"/><path class="b" d="M61.836,99.77c5.619-3.218,11.22-6.482,16.839-9.72q8.41,4.866,16.826,9.726c.026,6.45-.019,12.906.026,19.356-5.574,3.347-11.271,6.5-16.858,9.823-2.375-1.435-4.8-2.787-7.2-4.171a30.981,30.981,0,0,1,3.463-1.873,15.372,15.372,0,0,1,3.733,1.905c4.422-2.536,8.819-5.124,13.26-7.647.032-5.111,0-10.222.019-15.333-4.422-2.575-8.87-5.1-13.279-7.7-4.4,2.588-8.844,5.117-13.254,7.686.019,5.1-.006,10.2.019,15.307-1.21.708-2.414,1.423-3.624,2.143C61.855,112.772,61.816,106.271,61.836,99.77Z" transform="translate(5561.694 1495)"/><path class="b" d="M206.39,100.523c.875-.006,1.751-.006,2.633-.013-.006,3.573.071,7.145-.071,10.717,1.12-.933,2.452-2.1,4.023-1.513,1.983.573,2.272,2.852,2.279,4.6.006,3.927-.013,7.853.013,11.78-.953.006-1.9.006-2.845.006-.064-4.4.187-8.812-.154-13.2-.438-.206-1.307-.624-1.738-.83-.534.7-1.674,1.184-1.48,2.227-.058,3.939.006,7.879-.013,11.818H206.4C206.351,117.581,206.377,109.052,206.39,100.523Z" transform="translate(5510.186 1491.273)"/><path class="b" d="M144.37,126.113c.026-8.535-.006-17.064.019-25.593.663,0,2,.006,2.671.013.013,8.523-.019,17.051.013,25.574C146.4,126.107,145.046,126.113,144.37,126.113Z" transform="translate(5532.278 1491.27)"/><path class="b" d="M179.816,100.724c.624-.09,1.873-.264,2.5-.354.077,5.278.161,10.563-.058,15.841.232-.058.7-.18.933-.238.946-2.021,2.008-3.991,3-5.993,1.056-.161,2.111-.309,3.173-.418-1.236,2.691-3.161,5.111-4.036,7.917,1.332,2.9,2.774,5.742,4.126,8.626-.663-.026-2-.071-2.658-.1-2.092-2.3-2.221-5.851-4.474-8.046.064,2.543-.225,5.137.406,7.628a16.309,16.309,0,0,1-2.652.605c-.045-1.378-.084-2.755-.257-4.12-.064-2.826-.077-5.658.006-8.484C180.163,109.317,179.475,105.017,179.816,100.724Z" transform="translate(5519.683 1491.323)"/><path class="b" d="M125.4,102.713c3.206.116,7.692-.734,9.443,2.774.875,3,1.139,7.261-2.092,8.98,3.669,1.262,3.4,5.98,2.472,8.992-.515,1.957-2.407,2.877-4.178,3.431-1.88-.032-3.759-.019-5.639,0q.01-12.089-.006-24.177m2.832,2.948c.013,2.465.019,4.924-.006,7.383,1.21-.116,2.742.225,3.566-.908a5.476,5.476,0,0,0,.315-5.214c-.715-1.493-2.53-1.172-3.875-1.262m.058,10.64c-.135,2.485-.013,4.982-.051,7.473,1.538.026,3.669-.013,4.281-1.751.251-1.931.76-4.731-1.294-5.858-.973-.23-2.4-1.215-2.936.136Z" transform="translate(5539.037 1490.493)"/><path class="b" d="M266.506,102.428c2.208-.373,2.259,2.015,2.819,3.489,1.6,5.71,3.553,11.323,4.731,17.135a46.934,46.934,0,0,0-.283-7.428c-.129-4.371,0-8.735-.051-13.106.438.045,1.307.122,1.744.161.161,8.1.09,16.208.045,24.306-.406-.1-1.21-.3-1.616-.406-2.015-6.4-3.946-12.855-5.523-19.382-.206,6.521.013,13.054-.051,19.581l-1.841.026C266.531,118.682,266.454,110.558,266.506,102.428Z" transform="translate(5488.77 1490.603)"/><path class="b" d="M239.36,106.882c.463-1.365,1.313-2.819,2.993-2.285.322.727.657,1.448,1,2.169-.554.586-.953,1.423-1.77,1.674C240.551,108.511,240.029,107.468,239.36,106.882Z" transform="translate(5498.432 1489.857)"/><path class="b" d="M248.29,114.657c1.217-.039,2.5.122,2.845,1.545a3.108,3.108,0,0,1,5.69.792c.29,4.7.032,9.437.122,14.155-.676,0-2.028.006-2.7.006-.026-4.371.116-8.748-.1-13.112l-1.551-.824c-.386.2-1.152.6-1.532.8-.412,4.351-.1,8.735-.193,13.106-.875.006-1.757.019-2.633.032C248.271,125.664,248.187,120.161,248.29,114.657Z" transform="translate(5495.269 1486.234)"/><path class="b" d="M151.415,119.988c.122-2.852,2.427-6.225,5.652-5.433,2.44.618,3.367,3.154,3.862,5.336.045,3.27.47,6.913-1.474,9.765a4.15,4.15,0,0,1-6.559.122c-2.073-2.806-1.571-6.521-1.48-9.791m3.373-2.118c-.154.354-.476,1.049-.637,1.4a48.554,48.554,0,0,0-.045,7.306c.637.83,1.423,2.826,2.723,1.789,1.944-1.8,1.416-4.847,1.558-7.235-.277-1.609-.637-3.264-2.06-4.268-.388.25-1.154.758-1.54,1.009Z" transform="translate(5529.81 1486.31)"/><path class="b" d="M169.651,115.817c1.165-1.674,3.4-1.506,4.982-.573l-.026,2.678c-.6-.27-1.2-.534-1.8-.8-.631.663-1.229,1.345-1.8,2.053a50.021,50.021,0,0,0-.013,7.48,2.724,2.724,0,0,0,3.727,1.326c-.142,1.184.187,3.392-1.6,3.334-2.91.727-4.873-2.407-4.828-4.95C168.267,122.865,167.539,118.875,169.651,115.817Z" transform="translate(5523.804 1486.272)"/><path class="b" d="M194.533,121.2c.051-2.633.908-5.4,3.276-6.842a16.429,16.429,0,0,1,3.193.7c-.006.7-.026,2.086-.032,2.781-1.764-1.6-3.431.4-3.521,2.182-.386,2.884-.811,6.566,1.764,8.606.444-.238,1.326-.721,1.77-.959-.019,1.12-.039,2.24-.071,3.367-1.622.264-3.65.624-4.783-.9C194.295,127.569,194.481,124.209,194.533,121.2Z" transform="translate(5514.416 1486.338)"/><path class="b" d="M222.63,121.915c.206-2.549.309-5.832,2.813-7.267,1.506-.592,2.774.528,3.9,1.345.058-.36.161-1.081.212-1.448.837.187,1.674.367,2.51.554-.129,5.317-.039,10.634-.052,15.957l-2.6.051c0-.341.006-1.03.006-1.371-1.262,1.223-3.392,2.44-4.886.856-1.97-2.369-1.88-5.755-1.9-8.677m2.652.624c.045,2.246-.058,5,2.079,6.392.682-.721,1.693-1.345,1.686-2.465a20.126,20.126,0,0,0-.232-8.407c-.393-.264-1.172-.779-1.564-1.036-1.941,1.127-1.832,3.566-1.967,5.517Z" transform="translate(5504.393 1486.295)"/><path class="b" d="M240.46,115.13c.888.006,1.777.013,2.665.026-.084,5.381-.032,10.769-.032,16.15-.65.006-1.963.006-2.613.013C240.479,125.925,240.505,120.524,240.46,115.13Z" transform="translate(5498.04 1486.064)"/><path class="b" d="M283.347,118.281a5.28,5.28,0,0,1,2.716-3.7,3.344,3.344,0,0,1,3.914,2.156c.875,2.118.882,4.461,1.056,6.72-2.2-.013-4.39-.026-6.579-.013.251,2.041.013,4.68,1.867,6.031,3.212.908,1.41-4.886,4.615-3.991-.431,2-.65,4.564-2.71,5.607a3.435,3.435,0,0,1-4.6-2.2,19.944,19.944,0,0,1-.283-10.615m1.081,3.412c1.6.019,3.212.032,4.815.039-.245-1.873-.032-4.48-2.066-5.426-2.4.377-2.313,3.531-2.745,5.391Z" transform="translate(5482.967 1486.306)"/><path class="b" d="M295.56,115.022a3.31,3.31,0,0,1,2.266.1c.335,4.506,1.069,8.973,1.8,13.434.541-4.474,1.255-8.922,1.854-13.382.425-.187,1.281-.554,1.706-.74,1.223,4.512,1.249,9.237,2.247,13.788.637-4.358,1.4-8.7,1.918-13.073.464-.167,1.4-.5,1.86-.663-.8,5.549-1.873,11.059-2.922,16.575-.605.019-1.21.039-1.815.064-.927-4.4-1.081-8.934-2.143-13.305-.38,4.487-1.023,8.941-1.809,13.37-.972-.032-2.1,0-2.15-1.236C297.3,125,296.873,119.921,295.56,115.022Z" transform="translate(5478.408 1486.313)"/><path class="b" d="M317.448,117.494c.451-2.723,3.618-3.515,5.819-2.337.129.547.4,1.641.534,2.189-1.081-.348-2.1-1.069-3.289-.946-1.564.406-1.828,2.543-.908,3.669,1.526,2.163,4.229,3.624,4.712,6.418.219,2.092-1.056,4.673-3.334,4.937-1.294.245-2.465-.438-3.579-.978-.013-.637-.039-1.918-.052-2.555,1.036.7,2.06,2.021,3.5,1.59a2.458,2.458,0,0,0,1.036-3.972C320.126,123.036,316.464,121.04,317.448,117.494Z" transform="translate(5470.667 1486.243)"/></g></g></svg>