<svg xmlns="http://www.w3.org/2000/svg" viewBox="0 0 300 160"><defs><style>.a,.b{fill:#3d4f6c;}.a{opacity:0;}</style></defs><g transform="translate(-953 -411)"><rect class="a" width="300" height="160" transform="translate(953 411)"/><g transform="translate(-5537 -991)"><path class="b" d="M26.16,21.17H53.939c-.128,3.072.289,6.195-.206,9.228-3.006.156-6.034-.033-9.05.039V48.955q-4.634-.008-9.262-.006V30.437c-3.089-.006-6.173,0-9.262-.006Z" transform="translate(6516 1452)"/><path class="b" d="M92.837,21.17h18.512v9.262H92.837Q92.828,25.8,92.837,21.17Z" transform="translate(6486.37 1452)"/><path class="b" d="M213.48,34.127l4.172-1.667c0,1.778,0,3.55-.017,5.328,2.083-1.15,5.467-1.383,6.5,1.25,1.006,3.322.3,6.884.506,10.3h-4.2c-.05-2.55.122-5.111-.083-7.656.128-1.411-2.206-1.733-2.545-.439-.378,2.678-.083,5.4-.167,8.1H213.48Z" transform="translate(6432.752 1446.983)"/><path class="b" d="M239.832,35.974c2.083-2.917,6.367-3.495,9.467-1.995,1.572.772,2.3,2.45,3.045,3.928-1.328.556-2.672,1.078-4,1.633-.65-.939-1.1-2.383-2.461-2.422-2.078-.267-2.956,2.083-2.956,3.767-.1,1.856.117,4.684,2.4,5.089,1.578.339,2.489-1.161,3.295-2.228q1.892,1.008,3.778,2.028c-2.078,4.55-8.889,5.623-12.2,1.872A10.182,10.182,0,0,1,239.832,35.974Z" transform="translate(6421.778 1446.663)"/><path class="b" d="M360.65,34.127q2.075-.833,4.161-1.667c.006,1.783.011,3.567-.033,5.35,2.072-1.2,5.478-1.406,6.523,1.222,1.017,3.322.289,6.889.506,10.306h-4.189c-.05-2.556.111-5.117-.078-7.667.1-1.428-2.261-1.711-2.578-.389-.333,2.667-.067,5.373-.144,8.056H360.65Z" transform="translate(6367.348 1446.983)"/><path class="b" d="M143.188,33.666q6.784,0,13.567-.006,0,1.958.006,3.917h-4.539c-.006,4.1,0,8.2-.006,12.3h-4.495v-12.3h-4.534C143.188,36.271,143.182,34.966,143.188,33.666Z" transform="translate(6463.992 1446.449)"/><path class="b" d="M76.366,38.234l.572-.378c2.822-.1,5.65.011,8.478-.022v9.25q9.259.008,18.518,0,.008,4.634,0,9.262H76.155c.011-5.839-.011-11.684-.006-17.523C76.2,38.672,76.316,38.378,76.366,38.234Z" transform="translate(6493.784 1444.604)"/><path class="b" d="M170.785,52.98c-5.456-1.4-5.467-10.928.017-12.284a5.361,5.361,0,0,1,5.589,1.678c1.233,1.606,1.239,3.728,1.389,5.656-2.489.011-4.978-.044-7.462.078.506.583.75,1.511,1.556,1.767,1.35.333,2.672-.306,3.961-.656q.783,1.325,1.561,2.65c-2.056.917-4.35,1.683-6.611,1.111m-.489-7.589c1.333.044,2.672.044,4.006.006-.55-.639-.839-1.778-1.856-1.806-1.194-.284-1.577,1.066-2.146,1.8Z" transform="translate(6453.546 1443.402)"/><path class="b" d="M193.152,41.082a5.925,5.925,0,0,1,7.589,2.089c-.922.717-1.856,1.428-2.783,2.139-.767-.794-2.078-2.222-3.1-.933a5.173,5.173,0,0,0,.078,4.922c1.128,1.211,2.489-.228,3.356-1.011.85.689,1.7,1.367,2.556,2.05a10.434,10.434,0,0,1-2.661,2.356c-2.628,1.122-6.295.189-7.389-2.645C189.624,47.049,189.968,42.7,193.152,41.082Z" transform="translate(6443.108 1443.428)"/><path class="b" d="M268.147,40.783a17.268,17.268,0,0,1,4.634.361,6.2,6.2,0,0,1,4.078-.361c-.256,1.478-.578,2.939-.894,4.406-1.022-.617-2.906-1.483-3.5.106a73.364,73.364,0,0,0-.15,7.662h-4.167Q268.138,46.872,268.147,40.783Z" transform="translate(6408.459 1443.365)"/><path class="b" d="M287.391,40.96h4.2c.055,2.6-.133,5.2.094,7.789.011,1.061,1.233,1.283,2.039.978a2.535,2.535,0,0,0,.639-2.028c.033-2.245-.011-4.495,0-6.739h4.2q-.008,6.084-.005,12.162c-1.528-.05-3.128.211-4.6-.361-1.495.5-3.228.983-4.678.106-1.445-.833-1.833-2.622-1.867-4.167C287.347,46.121,287.408,43.538,287.391,40.96Z" transform="translate(6399.91 1443.205)"/><path class="b" d="M312.9,40.748a15.7,15.7,0,0,1,4.589.378c1.361-.456,2.867-.922,4.261-.317,1.528.572,2.178,2.295,2.256,3.811.144,2.761.017,5.534.056,8.3h-4.2c-.05-2.567.117-5.139-.078-7.7.083-1.517-2.528-1.617-2.606-.178-.278,2.611-.044,5.256-.117,7.878H312.9Z" transform="translate(6388.568 1443.4)"/><path class="b" d="M339.568,41.545a5.887,5.887,0,0,1,8.328,1.633c-.928.728-1.861,1.445-2.789,2.172-.711-.956-2.239-2.311-3.178-.822-.628,1.55-.811,3.717.417,5.022,1.245.767,2.25-.522,3.078-1.267.856.678,1.717,1.356,2.567,2.045a8.615,8.615,0,0,1-2.733,2.417C342.618,53.8,339,52.84,337.94,50,336.929,47.234,337.074,43.5,339.568,41.545Z" transform="translate(6377.701 1443.42)"/></g></g></svg>