<svg xmlns="http://www.w3.org/2000/svg" viewBox="0 0 300 160"><defs><style>.a,.b{fill:#3d4f6c;}.a{opacity:0;}</style></defs><g transform="translate(-323 -589)"><rect class="a" width="300" height="160" transform="translate(323 589)"/><g transform="translate(-7020 -669)"><path class="b" d="M123.923,127.63q4.547,4.628,9.085,9.264c-3.018,3.1-6.065,6.179-9.083,9.28v-2.166Q107.142,144,90.362,144q-6.857,10.178-13.68,20.384c-2.463,3.871-4.908,7.757-7.368,11.63-3.961-6.193-7.864-12.424-11.809-18.627v19.281q-7.5-.006-15,0V130.047H57.467c4.061,6.025,8.169,12.021,12.25,18.034Q75.8,139.02,81.875,129.95q21.017,0,42.034.006C123.935,129.18,123.917,128.406,123.923,127.63Z" transform="translate(7405 1184)"/><path class="b" d="M258.826,224.45c10.5.026,21,0,31.493.012v13.511H261.9v3.141h28.421v13.11q-15.979.015-31.962,0c-2.874-.066-5.752-.05-8.628-.052.02-5.333-.038-10.672.028-16C252.755,233.581,255.817,229.031,258.826,224.45Z" transform="translate(7239.102 1106.49)"/></g></g></svg>