<svg xmlns="http://www.w3.org/2000/svg" viewBox="0 0 300 160"><defs><style>.a,.b{fill:#3d4f6c;}.a{opacity:0;}</style></defs><g transform="translate(-638 -589)"><rect class="a" width="300" height="160" transform="translate(638 589)"/><g transform="translate(-5431 -936)"><path class="b" d="M947.219,342.152a52.9,52.9,0,0,1,6.714-.2c2.585.039,5.215-.179,7.75.449a4.053,4.053,0,0,1,2.9,2.314,19.985,19.985,0,0,1,.89,6.763,43.6,43.6,0,0,1-.362,7.44,5.556,5.556,0,0,1-1.667,3.4,4.5,4.5,0,0,1-2.36.987c-.333-.013-.092.439.137.365,1.118.036,2.241-.048,3.356.077-.027,2.383.1,4.766,0,7.148-2.38,0-4.763.107-7.141-.007V363.6c-3.258-.049-6.525.127-9.774-.153-1.527-.147-3.255-.467-4.237-1.77a8.6,8.6,0,0,1-1.237-4.109c-.247-2.707-.122-5.426-.1-8.138.122-1.979.24-4.146,1.487-5.788.851-1.125,2.344-1.335,3.651-1.5m2.855,6.888c-.021,2.474,0,4.946-.009,7.418,2.454.107,4.913.113,7.367,0v-7.433c-2.46.015-4.913-.018-7.366.021Z" transform="translate(5328.25 1249.054)"/><path class="b" d="M100.25,343.745h7.08c2.765,2.549,5.291,5.341,7.942,8.008.618.635,1.281,1.225,1.948,1.81a11.88,11.88,0,0,0,0-1.783q0-4.018,0-8.035c2.53-.019,5.063-.094,7.592.006.022,2.975-.064,5.949-.039,8.924-.012,4.117.031,8.236-.036,12.351-2.377-.024-4.752.1-7.127,0-3.294-3.276-6.546-6.593-9.806-9.9a9.249,9.249,0,0,0-.033,1.56q0,4.17,0,8.34h-7.516Z" transform="translate(6044.75 1247.562)"/><path class="b" d="M279.679,343.99c2.679.083,5.361-.009,8.04.079,3.417,7.013,6.607,14.131,9.891,21.2-2.78-.009-5.56.016-8.34-.012-.33-.839-.737-1.643-1.145-2.445-1.332.018-2.663-.07-3.993-.034-1.624.077-3.247.007-4.871.046a25.18,25.18,0,0,1-1.223,2.447c-2.743-.006-5.486,0-8.227,0q4.786-10.709,9.869-21.281m1.744,12.688h4.556c-.78-1.68-1.467-3.4-2.274-5.068-.786,1.675-1.606,3.339-2.283,5.063Z" transform="translate(5900.426 1247.314)"/><path class="b" d="M458.761,344.05a25.3,25.3,0,0,1,5.431-.243h12.68c.082,2.02,0,4.042.094,6.06-5.011.091-10.027,0-15.038.079v1.332c3.727.213,7.458.015,11.188.1a6.161,6.161,0,0,1,3.95,1.152,5.231,5.231,0,0,1,1.386,3.923,23.352,23.352,0,0,1-.119,4.922,4.108,4.108,0,0,1-1.752,2.856,7.034,7.034,0,0,1-3.748.885c-3.721.1-7.444.049-11.165-.028-1.761.019-3.523-.1-5.283.009v-6.368c5.071-.016,10.143.028,15.213-.022a11.413,11.413,0,0,0,0-1.275c-2.761-.13-5.525-.065-8.287-.08a17.628,17.628,0,0,1-4.963-.4,3.739,3.739,0,0,1-2.448-2.6,16.1,16.1,0,0,1-.408-4.282,8.891,8.891,0,0,1,.848-4.432,3.493,3.493,0,0,1,2.421-1.588Z" transform="translate(5742.38 1247.5)"/><path class="b" d="M617.764,343.777c5.809-.022,11.621-.115,17.427.1a7.154,7.154,0,0,1,3.643,1,4.028,4.028,0,0,1,1.618,2.454,23.934,23.934,0,0,1,.528,5.52,42.759,42.759,0,0,1-.411,8.105,4.55,4.55,0,0,1-1.8,3.085c-1.637,1.043-3.661.984-5.529,1.052q-5.811.029-11.619-.071c-1.287.01-2.575-.027-3.861.046.025-3.377-.062-6.751-.037-10.126.019-3.721-.043-7.443.04-11.164m7.857,6.967c-.021,2.477,0,4.955-.009,7.433,2.441,0,4.882-.006,7.322,0,.112-1.823-.006-3.652.064-5.477.034-.655.012-1.311.019-1.966-2.463-.1-4.931.006-7.4.009Z" transform="translate(5604.296 1247.528)"/><path class="b" d="M774.568,343.99h8.125q4.976,10.624,9.881,21.283c-2.773.091-5.544-.024-8.317,0-.371-.827-.731-1.662-1.171-2.456-1.6.01-3.206-.1-4.807,0-1.336.006-2.671.013-4.006-.006-.482.79-.811,1.661-1.264,2.466H764.68c3.286-7.1,6.556-14.206,9.888-21.284m4.106,7.721c-.847,1.613-1.581,3.283-2.282,4.966,1.518.006,3.035,0,4.553,0-.767-1.65-1.471-3.332-2.271-4.969Z" transform="translate(5479.207 1247.314)"/></g></g></svg>