<svg xmlns="http://www.w3.org/2000/svg" viewBox="0 0 493.122 469.45"><defs><style>.a,.b,.c,.d{fill:none;}.a{stroke:#e7e8ed;}.a,.b{stroke-width:1.5px;}.b,.c{stroke:#003dc6;stroke-linecap:round;stroke-linejoin:round;}.c{stroke-width:2px;}</style></defs><g transform="matrix(0.951, -0.309, 0.309, 0.951, -1819.905, -2666.353)"><g transform="translate(45 2899)"><g transform="translate(820.073 289)"><g transform="translate(0 153.341)"><line class="a" y2="106.62"/><line class="a" y2="106.62" transform="translate(415.683)"/></g><g transform="translate(57.753 359.992) rotate(-60)"><line class="a" y2="106.62"/><line class="a" y2="106.62" transform="translate(415.683 0)"/></g><g transform="translate(150.089 0) rotate(60)"><line class="a" y2="106.62" transform="translate(0 0)"/><line class="a" y2="106.62" transform="translate(415.683 0)"/></g></g><g transform="translate(809.26 361.251)"><path class="b" d="M19.246,18.75h-8v8" transform="translate(11.901 20.383)"/><path class="b" d="M34.829,20.313a11.882,11.882,0,0,1-22.9-1.563" transform="translate(12.668 20.383)"/><path class="b" d="M19.5,20h8V12" transform="translate(21.243 12.74)"/><path class="b" d="M11.833,19.284a11.882,11.882,0,0,1,22.9,1.563" transform="translate(12.562 11.889)"/><path class="b" d="M47.944,18.343A10.382,10.382,0,0,0,32.451,13.79a15.993,15.993,0,1,0-15.7,18.946" transform="translate(0 0)"/></g><g transform="translate(1002.5 260.25)"><rect class="b" width="48" height="6.857" rx="0.75" transform="translate(1.5 1.75)"/><rect class="b" width="41.143" height="30.857" transform="translate(4.929 8.607)"/><line class="b" y1="6.857" transform="translate(25.5 39.464)"/><line class="b" x2="48" transform="translate(1.5 39.464)"/><path class="b" d="M17.357,23.536c0-1.262-1.536-2.286-3.429-2.286S10.5,22.274,10.5,23.536" transform="translate(11.571 25.071)"/><path class="b" d="M6.909,19.735a4.014,4.014,0,0,0,3.477,1.829,3.582,3.582,0,0,0,3.851-3.225,3.582,3.582,0,0,0-3.851-3.214,3.582,3.582,0,0,1-3.858-3.216,3.584,3.584,0,0,1,3.858-3.216,4.016,4.016,0,0,1,3.474,1.829" transform="translate(6.463 8.911)"/><line class="b" y2="2.142" transform="translate(16.849 30.463)"/><line class="b" y2="2.142" transform="translate(16.849 15.462)"/><line class="b" y1="6.857" transform="translate(28.929 25.75)"/><line class="b" y1="13.714" transform="translate(35.786 18.893)"/></g><g transform="translate(1196.25 361.249)"><path class="b" d="M35.253,27.9v2.618A3.627,3.627,0,0,1,31.825,34.3H14.681a3.627,3.627,0,0,1-3.428-3.783V17.291A3.627,3.627,0,0,1,14.681,13.5H31.825a3.627,3.627,0,0,1,3.428,3.783v2.084" transform="translate(11.898 14.45)"/><path class="b" d="M30.315,16.915,27.58,11.443a1.707,1.707,0,0,0-2.291-.762L12.857,16.9" transform="translate(13.721 11.049)"/><path class="b" d="M26.984,24.784a1.707,1.707,0,0,0,1.707-1.707v-5.12a1.707,1.707,0,0,0-1.707-1.707H22.717a4.267,4.267,0,0,0,0,8.534Z" transform="translate(20.06 17.567)"/><path class="b" d="M11.388,44.691a24,24,0,1,1,36.308-27q.156.516.292,1.03" transform="translate(0 0)"/><path class="b" d="M9.352,40.165A55.712,55.712,0,0,1,7.422,14.916,34.71,34.71,0,0,1,12.143,1.079" transform="translate(6.824 0.372)"/><line class="b" x2="22.347" transform="translate(0.802 23.15)"/><line class="b" x2="40.612" transform="translate(4.444 11.949)"/><line class="b" x2="11.857" transform="translate(2.748 34.35)"/><path class="b" d="M14.711,1.079a31.788,31.788,0,0,1,4.267,11.326q.378,1.856.61,3.706" transform="translate(15.823 0.372)"/></g><g transform="translate(1199 578.25)"><path class="b" d="M38.524,43.65H5.876A2.874,2.874,0,0,1,3,40.77V5.25H41.4V40.77a2.874,2.874,0,0,1-2.876,2.88Z" transform="translate(0 5.1)"/><line class="b" y2="38.4" transform="translate(22.2 10.35)"/><line class="b" x2="38.4" transform="translate(3 29.55)"/><line class="b" y2="6.4" transform="translate(12.6 16.75)"/><line class="b" x2="6.4" transform="translate(9.4 19.95)"/><line class="b" x1="6.4" y2="6.4" transform="translate(9.4 35.95)"/><line class="b" x2="6.4" y2="6.4" transform="translate(9.4 35.95)"/><line class="b" x2="6.4" transform="translate(28.6 19.95)"/><line class="b" x2="6.4" transform="translate(28.6 35.95)"/><line class="b" x2="6.4" transform="translate(28.6 42.35)"/><path class="b" d="M41.4,10.35H3V3.95A3.2,3.2,0,0,1,6.2.75h32a3.2,3.2,0,0,1,3.2,3.2Z" transform="translate(0 0)"/></g><g transform="translate(1004.75 690.25)"><path class="b" d="M43.85,45.55a3.2,3.2,0,0,1-3.2,3.2H5.45a3.2,3.2,0,0,1-3.2-3.2V3.95A3.2,3.2,0,0,1,5.45.75H28.125a3.2,3.2,0,0,1,2.261.936L42.913,14.213a3.2,3.2,0,0,1,.937,2.261Z" transform="translate(0 0)"/><path class="b" d="M30.25,16.75H17.45a3.2,3.2,0,0,1-3.2-3.2V.75" transform="translate(13.6 0)"/><path class="b" d="M5.873,15.367a4.738,4.738,0,0,0,3.964,1.867c2.43,0,4.4-1.478,4.4-3.3s-1.971-3.3-4.4-3.3-4.4-1.478-4.4-3.3,1.969-3.3,4.4-3.3A4.738,4.738,0,0,1,13.8,5.9" transform="translate(3.613 3.716)"/><line class="b" y2="2.199" transform="translate(13.45 20.951)"/><line class="b" y2="2.199" transform="translate(13.45 5.55)"/><rect class="b" width="28.8" height="12.8" rx="0.5" transform="translate(8.65 29.55)"/><line class="b" x2="28.8" transform="translate(8.65 35.95)"/><line class="b" y2="12.8" transform="translate(18.25 29.55)"/><line class="b" y2="12.8" transform="translate(27.85 29.55)"/></g><g transform="translate(809.25 575.25)"><path class="b" d="M8.123,17.619a4.738,4.738,0,0,0,3.964,1.867c2.43,0,4.4-1.478,4.4-3.3s-1.971-3.3-4.4-3.3-4.4-1.478-4.4-3.3,1.969-3.3,4.4-3.3a4.745,4.745,0,0,1,3.964,1.867" transform="translate(7.863 6.265)"/><line class="b" y2="2.199" transform="translate(19.95 25.751)"/><line class="b" y2="2.197" transform="translate(19.95 10.35)"/><circle class="b" cx="19.332" cy="19.332" r="19.332" transform="translate(0.75 0.75)"/><line class="b" x2="14.995" y2="14.997" transform="translate(33.755 33.753)"/></g></g><g transform="translate(1005 3313)"><g transform="translate(2.813 2.813)"><line class="c" x2="129.375" transform="translate(0 129.375)"/><rect class="c" width="16.875" height="28.125" transform="translate(5.625 101.25)"/><rect class="c" width="16.875" height="56.25" transform="translate(39.375 73.125)"/><rect class="c" width="16.875" height="45" transform="translate(73.125 84.375)"/><rect class="c" width="16.875" height="84.375" transform="translate(106.875 45)"/><circle class="c" cx="5.625" cy="5.625" r="5.625" transform="translate(8.438 56.25)"/><circle class="c" cx="5.625" cy="5.625" r="5.625" transform="translate(42.188 28.125)"/><circle class="c" cx="5.625" cy="5.625" r="5.625" transform="translate(75.938 39.375)"/><circle class="c" cx="5.625" cy="5.625" r="5.625" transform="translate(109.688)"/><line class="c" y1="20.931" x2="25.104" transform="translate(18.388 37.344)"/><line class="c" x2="23.259" y2="7.751" transform="translate(53.128 35.522)"/><line class="c" x1="26.437" y2="30.836" transform="translate(85.219 9.889)"/></g><rect class="d" width="135" height="135"/></g></g></svg>