<svg xmlns="http://www.w3.org/2000/svg" viewBox="0 0 491.342 469.275"><defs><style>.a,.b,.c,.d{fill:none;}.a{stroke:#e7e8ed;}.a,.d{stroke-width:1.5px;}.b,.c,.d{stroke:#003dc6;stroke-linejoin:round;}.b,.d{stroke-linecap:round;}.b,.c{stroke-miterlimit:10;stroke-width:2px;}</style></defs><g transform="matrix(0.951, -0.309, 0.309, 0.951, -890.688, -660.577)"><g transform="translate(589.073 992)"><g transform="translate(0 153.341)"><line class="a" y2="106.62"/><line class="a" y2="106.62" transform="translate(415.683)"/></g><g transform="translate(57.753 359.992) rotate(-60)"><line class="a" y2="106.62"/><line class="a" y2="106.62" transform="translate(415.683 0)"/></g><g transform="translate(150.089 0) rotate(60)"><line class="a" y2="106.62" transform="translate(0 0)"/><line class="a" y2="106.62" transform="translate(415.683 0)"/></g></g><g transform="translate(733.558 1141.227)"><path class="b" d="M132.5,96.685a8.875,8.875,0,0,1-8.609,9.119H9.109A8.875,8.875,0,0,1,.5,96.685V11.619A8.875,8.875,0,0,1,9.109,2.5H123.891a8.875,8.875,0,0,1,8.609,9.119Z" transform="translate(-0.5 -2.5)"/><line class="b" x2="80.348" transform="translate(25.826 114.783)"/><line class="b" y2="11.478" transform="translate(66.13 103.304)"/><circle class="c" cx="2.87" cy="2.87" r="2.87" transform="translate(63.13 88.957)"/><line class="c" x2="132" transform="translate(0 80.348)"/><line class="b" y2="5.739" transform="translate(103.281 51.652)"/><line class="b" y2="5.739" transform="translate(103.281 11.478)"/><path class="b" d="M17,31.326A8.609,8.609,0,1,0,25.6,22.717a8.609,8.609,0,1,1,8.609-8.609" transform="translate(77.677 11.717)"/><path class="b" d="M.5,40.75l33-33L56.457,30.707,77.978,9.185" transform="translate(-0.5 22.38)"/></g><g transform="translate(578.25 1278.251)"><path class="d" d="M6.75,18.35l7.027,9.836a3.255,3.255,0,0,0,5.15.192L41.948.749" transform="translate(6.799)"/><path class="d" d="M45.548,19.849v20.8a6.4,6.4,0,0,1-6.4,6.4h-32a6.4,6.4,0,0,1-6.4-6.4v-32a6.4,6.4,0,0,1,6.4-6.4h27.2" transform="translate(0 1.701)"/></g><g transform="translate(972.25 1064.25)"><path class="d" d="M18.6,18.75a19.059,19.059,0,0,0,3.2,9.6H9a19.059,19.059,0,0,0,3.2-9.6" transform="translate(9.35 20.4)"/><line class="d" x2="22.4" transform="translate(13.55 48.75)"/><line class="d" x2="48" transform="translate(0.75 32.75)"/><path class="d" d="M48.75,32.75v3.2a3.2,3.2,0,0,1-3.2,3.2H3.95a3.2,3.2,0,0,1-3.2-3.2v-32A3.2,3.2,0,0,1,3.95.75h22.4" transform="translate(0 0)"/><rect class="d" width="19.2" height="16" rx="1.5" transform="translate(29.55 10.35)"/><path class="d" d="M15.75,10.35V7.15a6.4,6.4,0,0,1,6.4-6.4h0a6.4,6.4,0,0,1,6.4,6.4v3.2" transform="translate(17 0)"/><path class="d" d="M19.175,8.625a.8.8,0,1,0,.566.234.8.8,0,0,0-.566-.234h0" transform="translate(19.975 8.925)"/><path class="d" d="M17.3,6.75l-8,9.6-4.8-4.8" transform="translate(4.25 6.8)"/></g><g transform="translate(972.25 1278.252)"><path class="d" d="M24.748,2.892a16,16,0,0,0-24,13.859" transform="translate(0 0)"/><path class="d" d="M16.457,11.649a15.952,15.952,0,0,0-1.331-6.4" transform="translate(16.29 5.101)"/><path class="d" d="M8.25,23.42a16.139,16.139,0,0,0,3.2-.32" transform="translate(8.499 25.328)"/><path class="d" d="M.75,12.75v6.4a16,16,0,0,0,9.6,14.668" transform="translate(0 13.6)"/><path class="d" d="M20.4,16.55v-3.2A9.6,9.6,0,0,0,6,5.035" transform="translate(5.949 3.4)"/><path class="d" d="M3.75,8.25v16a9.6,9.6,0,0,0,9.6,9.6" transform="translate(3.399 8.501)"/><path class="d" d="M13.149,17.949v-8a3.2,3.2,0,1,0-6.4,0v6.4" transform="translate(6.799 6.801)"/><path class="d" d="M6.75,15.75a3.2,3.2,0,0,0,3.2,3.2" transform="translate(6.799 16.999)"/><circle class="d" cx="12.799" cy="12.799" r="12.799" transform="translate(23.142 23.15)"/><path class="d" d="M26.194,15.5,20,23.769a1.6,1.6,0,0,1-2.413.171l-3.2-3.2" transform="translate(15.451 16.722)"/></g><g transform="translate(771.25 1393.247)"><path class="d" d="M21.8,28.353H9l1.6-9.6h9.6Z" transform="translate(9.35 20.4)"/><line class="d" x2="22.4" transform="translate(13.55 48.753)"/><rect class="d" width="48" height="38.4" rx="3" transform="translate(0.75 0.753)"/><line class="d" y2="19.2" transform="translate(10.35 10.353)"/><rect class="d" width="9.6" height="19.2" transform="translate(29.55 10.353)"/><rect class="d" width="9.6" height="12.8" transform="translate(19.95 16.753)"/><rect class="d" width="9.6" height="6.4" transform="translate(10.35 23.153)"/></g><g transform="translate(771.25 961.25)"><circle class="d" cx="12.8" cy="12.8" r="12.8" transform="translate(23.15 0.75)"/><path class="d" d="M15.75,16.55V3.75h4.8a3.2,3.2,0,1,1,0,6.4,3.2,3.2,0,1,1,0,6.4Z" transform="translate(17 3.4)"/><line class="d" x2="4.8" transform="translate(32.75 13.55)"/><line class="d" y1="1.6" transform="translate(35.95 5.55)"/><line class="d" y2="1.6" transform="translate(35.95 19.95)"/><path class="d" d="M12.074,14.25H7.737A2.863,2.863,0,0,0,6.67,19.769l4.4,1.762a2.863,2.863,0,0,1-1.067,5.519H5.674" transform="translate(4.676 15.3)"/><line class="d" y1="1.6" transform="translate(13.55 27.95)"/><line class="d" y1="1.6" transform="translate(13.55 42.35)"/><circle class="d" cx="12.8" cy="12.8" r="12.8" transform="translate(0.75 23.15)"/><path class="d" d="M.75,4.5l4.8,8,8-4.8" transform="translate(0 4.25)"/><path class="d" d="M13.22.9A14.4,14.4,0,0,0,3.8,15.59" transform="translate(3.4 0.17)"/><path class="d" d="M30.05,23.75l-4.8-8-8,4.8" transform="translate(18.7 17)"/><path class="d" d="M15.811,30.9a14.4,14.4,0,0,0,9.423-14.686" transform="translate(17.069 17.528)"/></g><g transform="translate(579.5 1064.25)"><circle class="d" cx="5.6" cy="5.6" r="5.6" transform="translate(18.3 0.75)"/><path class="d" d="M7.5,16.35a9.6,9.6,0,1,1,19.2,0" transform="translate(6.8 6.8)"/><path class="d" d="M41.4,14.45a3.2,3.2,0,0,0-3.2-3.2H6.2A3.2,3.2,0,0,0,3,14.45" transform="translate(1.7 11.9)"/><line class="d" y1="3.2" transform="translate(4.7 32.75)"/><line class="d" y1="3.2" transform="translate(4.7 45.55)"/><path class="d" d="M7.9,17.25H3.1a1.589,1.589,0,0,0-1.6,1.6c0,3.2,6.4,3.2,6.4,6.4a1.6,1.6,0,0,1-1.6,1.6H1.5" transform="translate(0 18.7)"/><path class="d" d="M10.5,15.75v3.2a3.2,3.2,0,1,0,6.4,0v-3.2" transform="translate(10.2 17)"/><line class="d" y2="9.6" transform="translate(23.9 39.15)"/><line class="d" x2="6.4" transform="translate(20.7 42.35)"/><path class="d" d="M27.6,18.95a3.2,3.2,0,1,0-6.4,0v9.6a3.2,3.2,0,0,1-3.2,3.2h9.6" transform="translate(18.7 17)"/><line class="d" x2="9.6" transform="translate(36.7 42.35)"/></g></g></svg>