<svg xmlns="http://www.w3.org/2000/svg" viewBox="0 0 504.17 470"><defs><style>.a,.b,.c,.d{fill:none;}.a{stroke:#e7e8ed;}.a,.d{stroke-width:1.5px;}.b,.d{stroke:#003dc6;stroke-linecap:round;stroke-linejoin:round;}.b{stroke-width:2px;}</style></defs><g transform="matrix(0.951, -0.309, 0.309, 0.951, -1095.108, -1329.17)"><g transform="translate(589.073 1695)"><g transform="translate(0 153.341)"><line class="a" y2="106.62"/><line class="a" y2="106.62" transform="translate(415.683)"/></g><g transform="translate(57.753 359.992) rotate(-60)"><line class="a" y2="106.62"/><line class="a" y2="106.62" transform="translate(415.683 0)"/></g><g transform="translate(150.089 0) rotate(60)"><line class="a" y2="106.62" transform="translate(0 0)"/><line class="a" y2="106.62" transform="translate(415.683 0)"/></g></g><g transform="translate(-528 793)"><path class="b" d="M72.359,73.014V92.693H56.308" transform="translate(1232.531 1018.381)"/><line class="b" y2="80.797" transform="translate(1318.773 1078.298)"/><path class="b" d="M85.308,68v28.76H70.05l-.057,33.449" transform="translate(1269.067 1029.011)"/><line class="b" y2="25.43" transform="translate(1336.857 1078.298)"/><circle class="b" cx="4.521" cy="4.521" r="4.521" transform="translate(1332.335 1103.728)"/><circle class="b" cx="4.521" cy="4.521" r="4.521" transform="translate(1334.596 1159.675)"/><line class="b" y2="16.753" transform="translate(1298.428 1123.508)"/><line class="b" y2="6.551" transform="translate(1359.461 1134.81)"/><circle class="b" cx="4.521" cy="4.521" r="4.521" transform="translate(1293.907 1141.592)"/><circle class="b" cx="4.521" cy="4.521" r="4.521" transform="translate(1354.94 1141.592)"/><circle class="b" cx="4.521" cy="4.521" r="4.521" transform="translate(1314.252 1159.675)"/><g transform="translate(1266.216 1048.347)"><path class="b" d="M101.5,76.181s24.328-3.17,24.328-27.03a26.974,26.974,0,0,0-28-26.973A37.778,37.778,0,0,0,25.936,36.069,20.264,20.264,0,0,0,1.5,55.9c0,20.6,21.622,20.277,21.622,20.277" transform="translate(-1.5 -0.5)"/></g><rect class="c" width="135.629" height="135.629" transform="translate(1260 1041)"/></g><g transform="translate(577.25 1981.249)"><path class="d" d="M24.75,19.951c-13.254,0-24-4.3-24-9.6s10.746-9.6,24-9.6,24,4.3,24,9.6c0,2.522-2.432,4.817-6.4,6.53" transform="translate(0 0)"/><line class="d" y1="9.6" transform="translate(48.75 10.351)"/><path class="d" d="M.75,5.251v12.8c0,4.181,6.682,7.738,16,9.054" transform="translate(0 5.1)"/><path class="d" d="M.75,11.251v12.8c0,4.405,7.422,8.119,17.538,9.248" transform="translate(0 11.9)"/><path class="d" d="M22.574,14.251H18.237A2.863,2.863,0,0,0,17.17,19.77l4.4,1.76a2.863,2.863,0,0,1-1.067,5.521H16.174" transform="translate(16.576 15.3)"/><line class="d" y1="1.6" transform="translate(35.95 27.951)"/><line class="d" y1="1.6" transform="translate(35.95 42.351)"/><circle class="d" cx="12.8" cy="12.8" r="12.8" transform="translate(23.15 23.151)"/></g><g transform="translate(577.25 1767.249)"><path class="d" d="M24.75,19.951c-13.254,0-24-4.3-24-9.6s10.746-9.6,24-9.6,24,4.3,24,9.6c0,2.5-2.4,4.785-6.33,6.5" transform="translate(0 0)"/><line class="d" y1="11.095" transform="translate(48.75 10.351)"/><path class="d" d="M.75,5.251v12.8c0,4.177,6.673,7.731,15.987,9.052" transform="translate(0 5.1)"/><path class="d" d="M.75,11.251v12.8c0,4.41,7.437,8.126,17.568,9.25" transform="translate(0 11.9)"/><circle class="d" cx="12.8" cy="12.8" r="12.8" transform="translate(23.15 23.151)"/><path class="d" d="M26.2,15.506,20,23.771a1.6,1.6,0,0,1-2.413.171l-3.2-3.2" transform="translate(15.456 16.722)"/></g><g transform="translate(972.25 1767.249)"><circle class="d" cx="12.8" cy="12.8" r="12.8" transform="translate(23.15 23.151)"/><path class="d" d="M22.908,20.257H17.25V14.6" transform="translate(18.7 15.694)"/><path class="d" d="M40.987,17.419c4.772-1.754,7.763-4.267,7.763-7.068,0-5.3-10.746-9.6-24-9.6s-24,4.3-24,9.6,10.746,9.6,24,9.6" transform="translate(0 0)"/><path class="d" d="M.75,11.251c0,4.233,6.85,7.825,16.356,9.1" transform="translate(0 11.9)"/><path class="d" d="M.75,5.251v25.6c0,4.533,7.857,8.333,18.421,9.338" transform="translate(0 5.1)"/><line class="d" y1="11.29" transform="translate(48.75 10.351)"/><path class="d" d="M40.987,17.419c4.772-1.754,7.763-4.267,7.763-7.068,0-5.3-10.746-9.6-24-9.6s-24,4.3-24,9.6,10.746,9.6,24,9.6" transform="translate(0 0)"/><path class="d" d="M.75,11.251c0,4.233,6.85,7.825,16.356,9.1" transform="translate(0 11.9)"/><path class="d" d="M.75,5.251v25.6c0,4.533,7.857,8.333,18.421,9.338" transform="translate(0 5.1)"/><line class="d" y1="11.29" transform="translate(48.75 10.351)"/></g><g transform="translate(972.25 1981.249)"><path class="d" d="M31.184,19.616C15.15,21.282.75,16.489.75,10.351c0-5.3,10.746-9.6,24-9.6s24,4.3,24,9.6c0,2.526-2.441,4.826-6.432,6.539" transform="translate(0 0)"/><line class="d" y1="11.2" transform="translate(48.75 10.351)"/><path class="d" d="M.75,5.251v12.8c0,5.062,9.8,9.212,22.229,9.574" transform="translate(0 5.1)"/><path class="d" d="M.75,11.251v12.8c0,5.062,9.813,9.212,22.229,9.574" transform="translate(0 11.9)"/><rect class="d" width="19.2" height="16" rx="1.5" transform="translate(29.55 32.751)"/><path class="d" d="M22.15,11.251h0a6.4,6.4,0,0,0-6.4,6.4v3.2h12.8v-3.2a6.4,6.4,0,0,0-6.4-6.4Z" transform="translate(17 11.9)"/><path class="d" d="M19.175,19.155a.8.8,0,1,0,.8.8.8.8,0,0,0-.8-.8h0" transform="translate(19.975 20.858)"/></g><g transform="translate(771.25 2096.249)"><path class="d" d="M24.75,19.951c-13.254,0-24-4.3-24-9.6s10.746-9.6,24-9.6,24,4.3,24,9.6c0,2.807-3.014,5.333-7.823,7.091" transform="translate(0 0)"/><line class="d" y1="11.153" transform="translate(48.75 10.351)"/><path class="d" d="M.75,5.251v12.8c0,4.181,6.686,7.738,16.013,9.054" transform="translate(0 5.1)"/><path class="d" d="M.75,11.251v12.8c0,4.638,8.226,8.508,19.162,9.4" transform="translate(0 11.9)"/><circle class="d" cx="12.8" cy="12.8" r="12.8" transform="translate(23.15 23.151)"/><line class="d" y1="12.8" transform="translate(35.95 29.551)"/><line class="d" x1="4.8" y2="4.8" transform="translate(31.15 29.551)"/><line class="d" x2="4.8" y2="4.8" transform="translate(35.95 29.551)"/></g><g transform="translate(771.25 1664.249)"><path class="d" d="M24.75,19.951c-13.254,0-24-4.3-24-9.6s10.746-9.6,24-9.6,24,4.3,24,9.6c0,2.447-2.289,4.681-6.057,6.374" transform="translate(0 0)"/><line class="d" y1="9.6" transform="translate(48.75 10.351)"/><path class="d" d="M.75,5.251v12.8c0,4.4,7.407,8.107,17.506,9.244" transform="translate(0 5.1)"/><path class="d" d="M.75,11.251v12.8C.75,28.458,8.176,32.17,18.3,33.3" transform="translate(0 11.9)"/><circle class="d" cx="3.2" cy="3.2" r="3.2" transform="translate(32.75 31.151)"/><path class="d" d="M26.764,11.777l.943,3.1a2.118,2.118,0,0,0,2.5,1.453l3.14-.727a2.857,2.857,0,0,1,2.72,4.734l-2.2,2.366a2.133,2.133,0,0,0,0,2.906l2.2,2.37a2.857,2.857,0,0,1-2.72,4.732l-3.14-.727a2.118,2.118,0,0,0-2.5,1.453l-.943,3.091a2.837,2.837,0,0,1-5.436,0l-.943-3.1a2.118,2.118,0,0,0-2.5-1.453l-3.14.727a2.857,2.857,0,0,1-2.72-4.732l2.2-2.37a2.133,2.133,0,0,0,0-2.906l-2.2-2.37a2.857,2.857,0,0,1,2.72-4.734l3.14.727a2.118,2.118,0,0,0,2.5-1.453l.943-3.1a2.837,2.837,0,0,1,5.436.011Z" transform="translate(11.904 10.198)"/></g></g></svg>