<svg xmlns="http://www.w3.org/2000/svg" viewBox="0 0 60 60">
  <defs>
    <style>
      .cls-1, .cls-2 {
        fill: none;
      }

      .cls-1 {
        stroke: #003dc6;
        stroke-linecap: round;
        stroke-linejoin: round;
        stroke-width: 2px;
      }
    </style>
  </defs>
  <g id="Group_9595" data-name="Group 9595" transform="translate(-1260 -1041)">
    <path id="Path_18556" data-name="Path 18556" class="cls-1" d="M63.409,73.014V81.72h-7.1" transform="translate(1216.45 990.28)"/>
    <line id="Line_3735" data-name="Line 3735" class="cls-1" y2="35.743" transform="translate(1286 1057.5)"/>
    <path id="Path_18557" data-name="Path 18557" class="cls-1" d="M76.768,68V80.72h-6.75l-.025,14.8" transform="translate(1224.982 997.78)"/>
    <line id="Line_3736" data-name="Line 3736" class="cls-1" y2="11.25" transform="translate(1294 1057.5)"/>
    <circle id="Ellipse_1287" data-name="Ellipse 1287" class="cls-1" cx="2" cy="2" r="2" transform="translate(1292 1068.75)"/>
    <circle id="Ellipse_1288" data-name="Ellipse 1288" class="cls-1" cx="2" cy="2" r="2" transform="translate(1293 1093.5)"/>
    <line id="Line_3739" data-name="Line 3739" class="cls-1" y2="7.411" transform="translate(1277 1077.5)"/>
    <line id="Line_3845" data-name="Line 3845" class="cls-1" y2="2.898" transform="translate(1304 1082.5)"/>
    <circle id="Ellipse_1301" data-name="Ellipse 1301" class="cls-1" cx="2" cy="2" r="2" transform="translate(1275 1085.5)"/>
    <circle id="Ellipse_1309" data-name="Ellipse 1309" class="cls-1" cx="2" cy="2" r="2" transform="translate(1302 1085.5)"/>
    <circle id="Ellipse_1302" data-name="Ellipse 1302" class="cls-1" cx="2" cy="2" r="2" transform="translate(1284 1093.5)"/>
    <g id="Group_9249" data-name="Group 9249" transform="translate(1262.75 1044.25)">
      <path id="Path_19011" data-name="Path 19011" class="cls-1" d="M45.738,33.98S56.5,32.578,56.5,22.023A11.933,11.933,0,0,0,44.113,10.09a16.712,16.712,0,0,0-31.8,6.145A8.964,8.964,0,0,0,1.5,25.01c0,9.113,9.565,8.97,9.565,8.97" transform="translate(-1.5 -0.5)"/>
    </g>
    <rect id="Rectangle_11320" data-name="Rectangle 11320" class="cls-2" width="60" height="60" transform="translate(1260 1041)"/>
  </g>
</svg>
