<svg version="1" xmlns="http://www.w3.org/2000/svg" width="433.333" height="433.333" viewBox="0 0 325.000000 325.000000"><path d="M147.5 1.8c-7 2.1-12.1 4.7-26.3 13.1-5.7 3.4-10.6 6.1-10.8 6.1-.2 0-2.1 1.1-4.2 2.4-3.2 2-14.8 8.7-43.7 25.4-3.3 1.9-8 4.6-10.5 6-17.3 9.7-25.8 17.3-31.5 28.4C14 95.7 14 95.7 14.3 164c.2 33.8.6 62.7 1 64.3 4.7 17.7 14.3 28.6 35.2 40.2 2.8 1.5 12.2 6.9 21 12 25.6 14.8 61.8 35.7 63.5 36.6 14.1 7.2 30.2 8.7 44.3 4.1 2.9-1 24-12.5 46.8-25.7 22.8-13.1 43.4-24.9 45.9-26.3 9.7-5.4 18.3-11.5 22.6-16 7.6-8 12.9-19.1 14.2-29.7.3-2.8.6-31.6.6-64 0-53.5-.2-59.6-1.8-64.9-5-16.7-13.4-26.6-32.1-37.3-1.1-.6-10.1-5.9-20-11.6-9.9-5.8-19.6-11.4-21.5-12.5-1.9-1.1-11.3-6.5-20.9-12.1-9.5-5.5-17.6-10.1-17.8-10.1-.3 0-1.7-.9-3.3-2-1.5-1.1-6.3-3.4-10.6-5.1C171.2-.2 157-1 147.5 1.8zm26.3 82.7c.3.3.7 13.1.7 28.4l.1 27.7 2.7 4.7c6.5 11.1 21.6 13.6 31.4 5.2l3.8-3.2 9.5 6.7c5.2 3.8 9.6 7.3 9.8 7.8.5 1.6-5.3 7.6-11 11.5-11.3 7.7-25.9 9.8-38.8 5.8-3.6-1.2-6.7-2.1-7-2.1-.3 0-.5 4.6-.5 10.2.2 18.9-4 30.4-14.5 40.2-9.5 8.7-18.6 12.3-32 12.4-7.1 0-10.6-.4-14.9-2-7.2-2.6-15.6-8.3-19.5-13.2-2.6-3.1-2.8-3.9-1.6-4.6.8-.5 5.5-3.8 10.5-7.4 8.3-6 9-6.3 10.2-4.6 3.7 5.2 13.6 8.1 21 6.1 5.1-1.4 11.2-6.6 13.4-11.5 1.7-3.8 1.9-7.8 1.9-61.3V84.1l3.3-.3c5.3-.5 20.8 0 21.5.7z"/></svg>