<?xml version="1.0" standalone="no"?>
<!DOCTYPE svg PUBLIC "-//W3C//DTD SVG 20010904//EN"
 "http://www.w3.org/TR/2001/REC-SVG-20010904/DTD/svg10.dtd">
<svg version="1.0" xmlns="http://www.w3.org/2000/svg"
 width="260.000000pt" height="260.000000pt" viewBox="0 0 260.000000 260.000000"
 preserveAspectRatio="xMidYMid meet">
<metadata>
Created by potrace 1.11, written by Peter Selinger 2001-2013
</metadata>
<g transform="translate(0.000000,260.000000) scale(0.100000,-0.100000)"
fill="#000000" stroke="none">
<path d="M1084 1668 c0 -513 -3 -947 -6 -963 -26 -145 -159 -262 -309 -273
-110 -8 -193 22 -274 99 l-40 38 -155 -110 c-85 -60 -161 -116 -169 -124 -12
-12 -8 -22 32 -69 58 -67 173 -155 247 -188 175 -78 334 -92 522 -44 274 70
476 269 550 544 17 65 21 109 22 283 l1 206 63 -23 c104 -40 187 -55 292 -56
157 0 283 38 411 124 84 56 194 164 194 191 0 6 -65 58 -145 115 -80 56 -153
110 -164 118 -17 15 -21 13 -60 -24 -22 -23 -66 -53 -96 -69 -48 -25 -66 -28
-145 -28 -77 0 -98 4 -147 27 -100 47 -177 145 -196 249 -4 24 -7 239 -7 477
l0 432 -210 0 -210 0 -1 -932z"/>
</g>
</svg>
