<svg version="1" xmlns="http://www.w3.org/2000/svg" width="693.333" height="693.333" viewBox="0 0 520 520"><path d="M243.2 1.6C227.1 5 223.9 6.4 186 28.5c-14 8.1-27.1 15.6-29 16.7-1.9 1.1-18.3 10.6-36.5 21.1-18.1 10.4-38.8 22.4-46 26.5-22.5 12.9-32.7 22.6-42.3 40.3-3.7 6.9-8 19.4-9 26.3-.9 6.2-1 194.4-.1 200.1 3.5 22.1 15.8 43 33 55.9 4.7 3.6 27.7 17.4 48.9 29.4 1.9 1.1 7.6 4.3 12.5 7.2 5 2.9 11 6.4 13.5 7.8 2.5 1.3 7.2 4 10.5 6 3.3 1.9 7.4 4.2 9 5.2 1.7.9 7.5 4.3 13 7.5 10.7 6.2 26.1 15.1 33.5 19.3 2.5 1.4 7.7 4.4 11.5 6.7 19.4 11.4 32.8 15.3 51.6 15 6.3-.1 13.2-.5 15.4-.9 5-1 18-5.3 22-7.3 3-1.6 78.1-44.7 88.5-50.9 10-5.9 56.4-32.6 62.4-35.9 25.9-14.3 43.4-39.2 47.1-67.5.6-5.2.6-186-.1-193.5-1-11.8-6.9-27.4-14.5-38.6-5-7.5-15.4-18.2-22-22.7-4.4-2.9-52.7-31.2-53.4-31.2-.2 0-4-2.3-8.5-5-4.5-2.8-8.3-5-8.5-5-.1 0-6.3-3.5-13.7-7.8-7.4-4.3-14.1-8.2-14.9-8.6-.8-.4-2.3-1.2-3.4-1.9-1.8-1.1-18.3-10.7-22.8-13.2-.9-.6-7.7-4.4-15-8.6-7.2-4.2-15.3-8.9-17.9-10.3-5.1-2.9-15.5-6.7-23.3-8.6-7.2-1.8-26.8-2-34.3-.4zm35.9 133.8c0 .6.2 20.7.3 44.6.3 47.9.2 47.5 6.7 56.5 11.8 16.4 38.4 17.7 51.2 2.6l2.6-3.1 12.8 9c18.4 13.1 20.3 14.4 20.3 15.1 0 1.9-15.6 16.2-21.6 19.7-6.4 3.8-20.4 9.8-20.4 8.7 0-.2-1.2 0-2.7.6-4.3 1.6-19 1.9-26.8.5-3.8-.7-10.1-2.3-14-3.6-3.8-1.3-7.2-2.3-7.5-2.2-.3.1-.6 7.3-.6 15.9-.2 19.8-.9 26.8-3.5 34.6-4.3 12.4-8.8 19.7-18.4 29.2-7.6 7.6-10.6 9.8-18.5 13.7-26.6 13.1-57.9 10.2-79.3-7.5-6.4-5.3-9.4-8.3-12.7-12.8l-1.9-2.5 16.5-11.8 16.5-11.8 3.7 4c6.3 6.7 15.5 10.2 25.9 9.8 8.1-.4 15.9-4.3 22.1-11.1 9.2-10 8.6-2.7 8.9-105.5.1-49.8.2-91.2.3-92.1 0-1.4 2.3-1.6 20-1.6 13.9 0 20 .3 20.1 1.1z"/></svg>