<?xml version="1.0" standalone="no"?>
<!DOCTYPE svg PUBLIC "-//W3C//DTD SVG 20010904//EN"
"http://www.w3.org/TR/2001/REC-SVG-20010904/DTD/svg10.dtd">
<svg version="1" xmlns="http://www.w3.org/2000/svg" viewBox="0 0 320 320">
 <path d="M177.7 11.9c-8.7 2.9-15.9 8.8-19.5 16.1-3.3 6.6-3.8 9.3-4.7 24.5-.5 11.1-.7 12.4-3.1 20.4-4 13.9-12 27.1-24.4 40.3-8 8.6-21.9 20.4-31.7 26.9-2.9 1.8-5.7 4.3-6.3 5.4-.7 1.1-4.3 4-8.2 6.5-14.8 9.6-22.5 20.1-21.4 29.3 1.4 12.4 10.2 20.4 45.6 41.7 29.6 17.8 44.6 28.8 60.4 44.3 5 4.9 9.5 9.1 10.1 9.5.6.4 3.4 3.6 6.2 7.2 10.5 13.3 20.8 21.2 31.7 24.3 30.6 8.6 57.5-21 47.1-51.8-4-12.1-11.5-21.3-23.5-29-11.5-7.3-17.6-9.7-37-14.5-29.8-7.4-42.3-14.9-44.9-26.9-1.6-7.7-1.4-9 2.4-16.5 6.6-12.9 17.1-24.4 53.3-58.5 16-15.1 23.8-25.4 27.8-37.1 5.4-15.4 2.7-31.6-7.3-43.9-4.3-5.3-5-5.9-12.3-11-11.4-7.9-28.8-11-40.3-7.2zm19.3 9.6c8 1.5 18 7.1 23.7 13.5 1.3 1.4 3.8 5.4 5.5 8.9 2.8 5.6 3.2 7.4 3.2 14 0 4.6-.8 9.6-1.9 12.6-2.8 8.1-10.1 18.4-19.5 27.7-7.7 7.6-10.3 9.5-19.7 14.1-13.5 6.6-23.3 10.7-34.8 14.7-7.8 2.7-27.7 8.5-32.8 9.5-.9.2-2.2.7-2.7 1-.6.3-1 .2-1-.4 0-.5.7-1.4 1.6-1.9.8-.5 5.2-4.4 9.6-8.8 20-19.7 32-41 35.3-62.9.3-2.2.8-8.7 1.1-14.5.7-13.7 3.3-19.7 10.6-24.4 5.9-3.8 12.5-4.7 21.8-3.1zm-31.4 117.7c-8.5 9.8-16.1 20.8-19.5 27.8-3.4 7.1-3.5 8.1-3.5 17.5.1 15.1 5.2 37.3 13.3 57.3 1.9 4.8 1.9 5.2.3 4-.9-.7-5.1-3.8-9.2-6.9-9.5-7.1-23.6-16.3-42-27.4-13.9-8.4-21.2-13.1-25.4-16.5-4.2-3.2-9.6-9.4-10.4-11.9-2.1-6.3 3.1-13.1 17.3-22.5 7-4.6 12.4-6.7 18-6.7.2 0 1.9-.5 3.7-1 1.8-.5 4.7-1.2 6.3-1.5 10-1.8 42.8-11.4 50.5-14.8 1.9-.8 3.7-1.5 3.9-1.6.2 0-1.3 1.9-3.3 4.2zm.9 73.7c9 4.3 17.7 7.3 28 9.6 28 6.3 45.3 16.8 53.1 32.3 2.5 5 2.9 6.8 2.9 14.7 0 7.5-.4 9.7-2.3 13.3-8.1 15.1-23.8 20.6-38.5 13.4-10.9-5.4-26.1-22.8-33.3-38-8.2-17.4-19.9-49.2-18.1-49.2.2 0 3.9 1.7 8.2 3.9z"/>
</svg>
