<?xml version="1.0" standalone="no"?>
<!DOCTYPE svg PUBLIC "-//W3C//DTD SVG 20010904//EN"
 "http://www.w3.org/TR/2001/REC-SVG-20010904/DTD/svg10.dtd">
<svg version="1.0" xmlns="http://www.w3.org/2000/svg"
 width="320.000000pt" height="320.000000pt" viewBox="0 0 320.000000 320.000000"
 preserveAspectRatio="xMidYMid meet">
<metadata>
Created by potrace 1.11, written by Peter Selinger 2001-2013
</metadata>
<g transform="translate(0.000000,320.000000) scale(0.100000,-0.100000)"
fill="#000000" stroke="none">
<path d="M1777 3081 c-87 -29 -159 -88 -195 -161 -33 -66 -38 -93 -47 -245 -5
-111 -7 -124 -31 -204 -40 -139 -120 -271 -244 -403 -80 -86 -219 -204 -317
-269 -29 -18 -57 -43 -63 -54 -7 -11 -43 -40 -82 -65 -148 -96 -225 -201 -214
-293 14 -124 102 -204 456 -417 296 -178 446 -288 604 -443 50 -49 95 -91 101
-95 6 -4 34 -36 62 -72 105 -133 208 -212 317 -243 306 -86 575 210 471 518
-40 121 -115 213 -235 290 -115 73 -176 97 -370 145 -298 74 -423 149 -449
269 -16 77 -14 90 24 165 66 129 171 244 533 585 160 151 238 254 278 371 54
154 27 316 -73 439 -43 53 -50 59 -123 110 -114 79 -288 110 -403 72z m193
-96 c80 -15 180 -71 237 -135 13 -14 38 -54 55 -89 28 -56 32 -74 32 -140 0
-46 -8 -96 -19 -126 -28 -81 -101 -184 -195 -277 -77 -76 -103 -95 -197 -141
-135 -66 -233 -107 -348 -147 -78 -27 -277 -85 -328 -95 -9 -2 -22 -7 -27 -10
-6 -3 -10 -2 -10 4 0 5 7 14 16 19 8 5 52 44 96 88 200 197 320 410 353 629 3
22 8 87 11 145 7 137 33 197 106 244 59 38 125 47 218 31z m-314 -1177 c-85
-98 -161 -208 -195 -278 -34 -71 -35 -81 -35 -175 1 -151 52 -373 133 -573 19
-48 19 -52 3 -40 -9 7 -51 38 -92 69 -95 71 -236 163 -420 274 -139 84 -212
131 -254 165 -42 32 -96 94 -104 119 -21 63 31 131 173 225 70 46 124 67 180
67 2 0 19 5 37 10 18 5 47 12 63 15 100 18 428 114 505 148 19 8 37 15 39 16
2 0 -13 -19 -33 -42z m9 -737 c90 -43 177 -73 280 -96 280 -63 453 -168 531
-323 25 -50 29 -68 29 -147 0 -75 -4 -97 -23 -133 -81 -151 -238 -206 -385
-134 -109 54 -261 228 -333 380 -82 174 -199 492 -181 492 2 0 39 -17 82 -39z"/>
</g>
</svg>
