<svg version="1" xmlns="http://www.w3.org/2000/svg" width="346.667" height="346.667" viewBox="0 0 260 260"><path d="M119.7 67.6c-.4.4-.7 21.4-.7 46.6 0 37.6-.3 46.4-1.4 48.6-5.2 10-18.3 12.5-26.2 5.1l-2.4-2.2-7 4.8c-10.5 7.2-10.4 7-4 12.6 7.3 6.6 14.3 9.2 24.5 9.2 11.3 0 18.1-2.8 26.1-10.7 8.1-8.2 10.5-14.3 11.2-28.9.4-9.1.7-10.7 2-10.2 9.4 3.6 22.3 3.2 30.5-.9 5-2.6 13.7-9.9 13.7-11.6 0-.4-3.6-3.2-7.9-6.3-7.7-5.4-8-5.5-9.6-3.7-5 5.5-16 6.2-22.2 1.4-5.6-4.3-5.8-5-6.3-30.4l-.5-23.5-9.5-.3c-5.3-.1-9.9 0-10.3.4z"/></svg>