<?xml version="1.0" encoding="utf-8"?>
<!-- Generator: Adobe Illustrator 22.1.0, SVG Export Plug-In . SVG Version: 6.00 Build 0)  -->
<svg version="1.1" id="Слой_1" xmlns="http://www.w3.org/2000/svg" xmlns:xlink="http://www.w3.org/1999/xlink" x="0px" y="0px"
	 viewBox="0 0 25 24" style="enable-background:new 0 0 25 24;" xml:space="preserve">
<g transform="translate(0.5)">
	<path class="st0" d="M23.5,13h-23c-0.6,0-1-0.4-1-1c0-0.6,0.4-1,1-1h23c0.6,0,1,0.4,1,1C24.5,12.6,24.1,13,23.5,13z"/>
	<path class="st0" d="M13,24c-0.2,0-0.5-0.1-0.7-0.2l-12.5-11c-0.2-0.2-0.3-0.5-0.3-0.8s0.1-0.6,0.3-0.8l12.5-11
		c0.4-0.4,1-0.3,1.4,0.1c0.4,0.4,0.3,1-0.1,1.4L2,12l11.6,10.2c0.4,0.4,0.5,1,0.1,1.4C13.6,23.9,13.3,24,13,24z"/>
</g>
</svg>
