<svg xmlns="http://www.w3.org/2000/svg" viewBox="0 0 59.5 52"><defs><style>.a,.b{fill:none;stroke:#003dc6;stroke-linejoin:round;stroke-miterlimit:10;stroke-width:2px;}.a{stroke-linecap:round;}</style></defs><g transform="translate(-0.25 -2.75)"><g transform="translate(1.25 3.75)"><path class="a" d="M58,13a7.527,7.527,0,0,0-7.5-7.5H8A7.525,7.525,0,0,0,.5,13V38A7.522,7.522,0,0,0,8,45.5H50.5A7.524,7.524,0,0,0,58,38Z" transform="translate(-0.5 4.5)"/><path class="a" d="M8.5,11.5v-5a5.013,5.013,0,0,1,5-5H21a5.015,5.015,0,0,1,5,5v5" transform="translate(11.5 -1.5)"/><g transform="translate(-180.25 -1641.75)"><path class="a" d="M28.5,17,21,24.5l-5-5" transform="translate(187 1651.5)"/><circle class="b" cx="12.5" cy="12.5" r="12.5" transform="translate(196.75 1659.75)"/></g></g></g></svg>