<svg xmlns="http://www.w3.org/2000/svg" viewBox="0 0 60 60"><defs><style>.c,.d{opacity:0;}</style></defs><g transform="translate(1.25 1.25)"><rect class="a" width="10" height="20.105" transform="translate(0 32.5)"/><path class="b" d="M4.5,25.438c26.25,8.75,17.5,8.75,47.5-6.25-2.655-2.655-4.755-3.283-7.5-2.5L33.415,20.366" transform="translate(5.5 23.312)"/><path class="b" d="M4.5,14.5H12c5.882,0,10,3.75,11.25,5h7.5c3.985,0,3.985,5,0,5H17" transform="translate(5.5 20.5)"/><circle class="b" cx="7.5" cy="7.5" r="7.5" transform="translate(35)"/><circle class="b" cx="7.5" cy="7.5" r="7.5" transform="translate(22.5 17.5)"/><line class="b" y2="5" transform="translate(30 22.5)"/><line class="b" y2="5" transform="translate(42.5 5)"/></g><g class="c"><rect class="d" width="60" height="60"/></g></svg>
