<svg xmlns="http://www.w3.org/2000/svg" viewBox="0 0 59.5 59.5"><defs><style>.a{fill:none;stroke:#003dc6;stroke-linecap:round;stroke-linejoin:round;stroke-miterlimit:10;stroke-width:2px;}</style></defs><g transform="translate(-0.25 -0.25)"><g transform="translate(1.25 1.25)"><rect class="a" width="25" height="25" transform="translate(0 32.5)"/><line class="a" y1="20" x2="20" transform="translate(30 7.5)"/><path class="a" d="M15.5,3.5H28V16" transform="translate(22 4)"/><path class="a" d="M7,.5H4.5V3" transform="translate(5.5 -0.5)"/><path class="a" d="M22.5.5H25V3" transform="translate(32.5 -0.5)"/><line class="a" y2="2.5" transform="translate(10 7.5)"/><line class="a" x1="2.5" transform="translate(17.5)"/><line class="a" x1="2.5" transform="translate(25)"/><line class="a" x1="2.5" transform="translate(32.5)"/><line class="a" x1="2.5" transform="translate(40)"/><line class="a" x1="2.5" transform="translate(47.5)"/><line class="a" x1="2.5" transform="translate(25 47.5)"/><line class="a" x1="2.5" transform="translate(32.5 47.5)"/><line class="a" x1="2.5" transform="translate(40 47.5)"/><line class="a" x1="2.5" transform="translate(47.5 47.5)"/><path class="a" d="M22.5,21H25V18.5" transform="translate(32.5 26.5)"/><line class="a" y1="2.5" transform="translate(57.5 37.5)"/><line class="a" y1="2.5" transform="translate(57.5 30)"/><line class="a" y1="2.5" transform="translate(57.5 22.5)"/><line class="a" y1="2.5" transform="translate(57.5 15)"/><line class="a" y1="2.5" transform="translate(10 30)"/><line class="a" y1="2.5" transform="translate(10 22.5)"/><line class="a" y1="2.5" transform="translate(10 15)"/><line class="a" y1="2.5" transform="translate(57.5 7.5)"/></g></g></svg>