<svg xmlns="http://www.w3.org/2000/svg" viewBox="0 0 36.501 36.501"><defs><style>.a,.b{fill:rgba(0,0,0,0);stroke:#fff;stroke-linejoin:round;stroke-miterlimit:10;stroke-width:2px;}.a{stroke-linecap:round;}</style></defs><g transform="translate(1 1)"><path class="a" d="M11,26H3.5a3,3,0,0,1-3-3V3.5a3,3,0,0,1,3-3H32a3,3,0,0,1,3,3V17" transform="translate(-0.5 -0.5)"/><path class="b" d="M21.247,16.464V8.455c0-.8-.327-1.455-1.125-1.455H17.95c-.8,0-1.2.653-1.2,1.455V22.286L14.167,19.2a1.561,1.561,0,0,0-1.2-.552l-1.5.028a1.463,1.463,0,0,0-1.292,2.155l5.6,10.162a1.437,1.437,0,0,0,1.266.757H26.63a1.449,1.449,0,0,0,1.338-.9l2.28-10.021a1.423,1.423,0,0,0-.885-1.455Z" transform="translate(4.253 2.75)"/></g></svg>