<svg xmlns="http://www.w3.org/2000/svg" viewBox="0 0 60 60"><defs><style>.a,.c{fill:none;}.a{stroke:#003dc6;stroke-linecap:round;stroke-linejoin:round;stroke-miterlimit:10;stroke-width:2px;}.b{opacity:0;}</style></defs><g transform="translate(1.249 1.25)"><path class="a" d="M25.219,9.59c0,5.017-9.092,15.91-9.092,15.91S7.036,14.61,7.036,9.59a9.091,9.091,0,0,1,18.182,0Z" transform="translate(9.305 -0.5)"/><circle class="a" cx="3.41" cy="3.41" r="3.41" transform="translate(22.021 5.68)"/><path class="a" d="M32.763,15.68C32.763,20.2,24.58,30,24.58,30s-8.18-9.8-8.18-14.32a8.181,8.181,0,0,1,16.362,0Z" transform="translate(23.351 10)"/><circle class="a" cx="3.068" cy="3.068" r="3.068" transform="translate(44.863 22.612)"/><g transform="translate(0 25)"><path class="a" d="M21.153,22.548c-.92,5.5-10.228,14.875-10.228,20.452C10.925,37.423,1.87,28.947.7,22.548-.462,16.195,3.488,10.5,10.925,10.5S22.238,16.077,21.153,22.548Z" transform="translate(-0.5 -10.5)"/><circle class="a" cx="4.682" cy="4.682" r="4.682" transform="translate(5.743 5.085)"/></g><line class="a" x2="12.265" y2="8.175" transform="translate(27.726 28.75)"/><line class="a" y1="11.608" x2="24.867" transform="translate(16.813 42.917)"/></g><g class="b"><rect class="c" width="60" height="60"/></g></svg>