<svg xmlns="http://www.w3.org/2000/svg" viewBox="0 0 59.5 44.5"><defs><style>.a,.b{fill:none;stroke:#003dc6;stroke-linejoin:round;stroke-miterlimit:10;stroke-width:2px;}.b{stroke-linecap:round;}</style></defs><g transform="translate(-0.25 -10.25)"><g transform="translate(1.25 11.25)"><path class="a" d="M18.75,28.252S30,20.152,30,14.152c0-6.925-9.205-9.112-11.25-.69C16.7,5.042,7.5,7.23,7.5,14.152,7.5,20.15,18.75,28.252,18.75,28.252Z" transform="translate(10 0.753)"/><path class="b" d="M1.5,39.5V8.25A3.75,3.75,0,0,1,5.25,4.5h45A3.75,3.75,0,0,1,54,8.25V39.5" transform="translate(1 -4.5)"/><path class="b" d="M35.5,18.5V21H23V18.5H.5v5A2.5,2.5,0,0,0,3,26H55.5A2.5,2.5,0,0,0,58,23.5v-5Z" transform="translate(-0.5 16.5)"/></g></g></svg>