<?xml version="1.0" encoding="utf-8"?>
<!-- Generator: Adobe Illustrator 22.1.0, SVG Export Plug-In . SVG Version: 6.00 Build 0)  -->
<svg version="1.1" id="Слой_1" xmlns="http://www.w3.org/2000/svg" xmlns:xlink="http://www.w3.org/1999/xlink" x="0px" y="0px"
	 viewBox="0 0 16 16" style="enable-background:new 0 0 16 16;" xml:space="preserve">
<style type="text/css">
	.st0{fill:#003DC6;}
</style>
<g transform="translate(-1071 -2582)">
	<g transform="translate(6722 1396.5)">
		<path class="st0" d="M-5642.9,1201.5L-5642.9,1201.5c-0.3,0-0.6-0.1-0.8-0.4c-0.5-0.7-5.3-6.5-5.3-9.5c0-1.6,0.6-3.2,1.8-4.3
			s2.7-1.8,4.3-1.8c0,0,0,0,0,0c1.6,0,3.2,0.6,4.3,1.8c1.2,1.1,1.8,2.7,1.8,4.3c0,0,0,0,0,0c0,3.1-4.8,8.9-5.3,9.5
			C-5642.3,1201.4-5642.6,1201.5-5642.9,1201.5z M-5642.9,1187.5C-5642.9,1187.5-5642.9,1187.5-5642.9,1187.5
			c-1.1,0-2.1,0.4-2.9,1.2s-1.2,1.8-1.2,2.9c0,1.6,2.3,5,4.1,7.3c1.8-2.3,4.1-5.8,4.1-7.3v0c0-1.1-0.4-2.1-1.2-2.9
			C-5640.8,1187.9-5641.8,1187.5-5642.9,1187.5z"/>
		<path class="st0" d="M-5642.9,1194.5c-1.6,0-2.9-1.3-2.9-2.9s1.3-2.9,2.9-2.9s2.9,1.3,2.9,2.9S-5641.3,1194.5-5642.9,1194.5z
			 M-5642.9,1190.7c-0.5,0-0.9,0.4-0.9,0.9c0,0.5,0.4,0.9,0.9,0.9c0.5,0,0.9-0.4,0.9-0.9C-5642,1191.1-5642.4,1190.7-5642.9,1190.7z
			"/>
	</g>
</g>
</svg>
