<svg xmlns="http://www.w3.org/2000/svg" viewBox="0 0 24 24">
  <path d="M14.3 13.2h-1v-2.8c0-.3-.2-.5-.5-.5s-.5.2-.5.5v3.2c0 .2.2.4.5.4h1.5c.3 0 .5-.2.5-.4s-.2-.4-.5-.4zM10.9 10.4c-.1-.2-.3-.5-.6-.5s-.6.2-.6.5l-1.1 3c-.1.4 0 .6.1.7.1 0 .2.1.3.1.2 0 .4-.1.4-.2l.2-.6h1.5l.2.6c0 .1.2.2.4.2.1 0 .2 0 .3-.1.1-.1.3-.2.1-.7l-1.2-3zm-1.1 2.1l.5-1.4.5 1.4h-1zM9.1 10.4c0-.3-.2-.5-.5-.5H6.2c-.3 0-.5.2-.5.5s.2.5.5.5H7v2.8c0 .3.2.5.5.5s.5-.2.5-.5v-2.8h.7c.2 0 .4-.2.4-.5z"/>
  <path d="M12 0C5.4 0 0 5.4 0 12s5.4 12 12 12 12-5.4 12-12S18.6 0 12 0zm0 18.4c-.5 0-1 0-1.5-.1-.5.3-3.2 2.3-3.5 2.3h-.2c-.1-.1-.1-.2-.1-.2 0-.2.7-2.6.8-3-2.3-1.2-3.9-3.2-3.9-5.5 0-3.6 3.7-6.5 8.3-6.5s8.3 2.9 8.3 6.5c.1 3.6-3.6 6.5-8.2 6.5z"/>
  <path d="M16.8 11.8l1.1-1.1c.1-.1.1-.2.1-.3 0-.1-.1-.2-.1-.3-.1-.1-.2-.1-.3-.1-.1 0-.2 0-.3.1L16 11.4v-1c0-.3-.2-.5-.5-.5s-.5.3-.5.5v3.3c0 .3.2.5.5.5s.5-.2.5-.5v-1l.2-.2 1.1 1.5c.1.1.2.2.4.2.1 0 .2 0 .3-.1.1-.1.2-.2.2-.3 0-.1 0-.3-.1-.4l-1.3-1.6z"/>
</svg>