<?xml version="1.0" encoding="utf-8"?>
<!-- Generator: Adobe Illustrator 23.0.2, SVG Export Plug-In . SVG Version: 6.00 Build 0)  -->
<svg version="1.1" id="Capa_1" xmlns="http://www.w3.org/2000/svg" xmlns:xlink="http://www.w3.org/1999/xlink" x="0px" y="0px"
	 viewBox="0 0 24 24" style="enable-background:new 0 0 24 24;" xml:space="preserve">
<g>
	<g>
		<g>
			<path d="M12,0C5.4,0,0,5.4,0,12s5.4,12,12,12s12-5.4,12-12C24,5.4,18.6,0,12,0z M9,17.8H6V7.3h3V17.8z M7.6,6.7
				C6.8,6.7,6.2,6,6.2,5.3s0.6-1.4,1.4-1.4C8.4,3.9,9,4.5,9,5.3C9,6,8.4,6.7,7.6,6.7z M19.5,17.8h-3v-6.5c0-0.8-0.2-1.3-1.2-1.3
				c-1.5,0-1.8,1.3-1.8,1.3v6.5h-3V7.3h3v1c0.4-0.3,1.5-1,3-1c1,0,3,0.6,3,4.1L19.5,17.8L19.5,17.8z"/>
		</g>
	</g>
</g>
</svg>
