<?xml version="1.0" encoding="utf-8"?>
<!-- Generator: Adobe Illustrator 23.0.2, SVG Export Plug-In . SVG Version: 6.00 Build 0)  -->
<svg version="1.1" id="Capa_1" xmlns="http://www.w3.org/2000/svg" xmlns:xlink="http://www.w3.org/1999/xlink" x="0px" y="0px"
	 viewBox="0 0 24 24" style="enable-background:new 0 0 24 24;" xml:space="preserve">
<g>
	<g>
		<path d="M12,0C5.4,0,0,5.4,0,12c0,6.6,5.4,12,12,12c6.6,0,12-5.4,12-12C24,5.4,18.6,0,12,0z M17.4,9.3c0,0.1,0,0.2,0,0.4
			c0,3.6-2.8,7.9-7.9,7.9c-1.6,0-3-0.5-4.2-1.2c0.2,0,0.4,0,0.7,0c1.3,0,2.5-0.4,3.4-1.2c-1.2,0-2.2-0.8-2.6-1.9c0.2,0,0.3,0,0.5,0
			c0.3,0,0.5,0,0.7-0.1c-1.3-0.3-2.2-1.4-2.2-2.7c0,0,0,0,0,0c0.4,0.2,0.8,0.3,1.3,0.3c-0.7-0.5-1.2-1.3-1.2-2.3
			c0-0.5,0.1-1,0.4-1.4c1.4,1.7,3.4,2.8,5.7,2.9c0-0.2-0.1-0.4-0.1-0.6c0-1.5,1.2-2.8,2.8-2.8c0.8,0,1.5,0.3,2,0.9
			c0.6-0.1,1.2-0.4,1.8-0.7c-0.2,0.6-0.6,1.2-1.2,1.5c0.6-0.1,1.1-0.2,1.6-0.4C18.4,8.4,17.9,8.9,17.4,9.3z"/>
	</g>
</g>
</svg>
