<?xml version="1.0" encoding="utf-8"?>
<!-- Generator: Adobe Illustrator 23.0.2, SVG Export Plug-In . SVG Version: 6.00 Build 0)  -->
<svg version="1.1" id="Capa_1" xmlns="http://www.w3.org/2000/svg" xmlns:xlink="http://www.w3.org/1999/xlink" x="0px" y="0px"
	 viewBox="0 0 24 24" style="enable-background:new 0 0 24 24;" xml:space="preserve">
<g>
	<g>
		<path d="M12,0C5.4,0,0,5.4,0,12c0,6.6,5.4,12,12,12c6.6,0,12-5.4,12-12C24,5.4,18.6,0,12,0z M15,12.4h-2c0,3.1,0,7,0,7h-2.9
			c0,0,0-3.8,0-7H8.8V10h1.4V8.4c0-1.1,0.5-2.9,2.9-2.9l2.1,0v2.4c0,0-1.3,0-1.6,0C13.4,7.8,13,8,13,8.5V10h2.2L15,12.4z"/>
	</g>
</g>
</svg>
