<svg width="24" height="24" viewBox="0 0 24 24" fill="none" xmlns="http://www.w3.org/2000/svg">
<path d="M10.0031 14.4033L9.89418 16.7806C9.79219 16.7955 9.73281 16.7436 9.70744 16.6484C9.7042 16.6363 9.69673 16.6077 9.68553 16.5648C9.57937 16.158 9.13832 14.4683 8.79023 13.3625C9.32075 13.0293 9.80317 12.7192 10.286 12.4088C10.7591 12.1047 11.2325 11.8004 11.752 11.4738C12.8899 10.7583 14.0278 10.0428 15.1669 9.32728C15.2391 9.27927 15.321 9.24565 15.4077 9.23605C15.4992 9.22164 15.5666 9.23605 15.5859 9.27446C15.6063 9.31508 15.5646 9.37631 15.5425 9.40875C15.5385 9.41466 15.5351 9.41961 15.5329 9.42332L9.9894 14.393L10.0031 14.4033Z" fill="#3D4F6C"/>
<path fill-rule="evenodd" clip-rule="evenodd" d="M24 12C24 18.6274 18.6274 24 12 24C5.37258 24 0 18.6274 0 12C0 5.37258 5.37258 0 12 0C18.6274 0 24 5.37258 24 12ZM17.6183 7.3874C17.3438 7.20494 17.0356 7.34419 17.0211 7.35379C14.8008 8.18448 5.76073 11.5793 5.20205 11.925C5.13462 11.9682 4.95642 12.0834 4.94197 12.2515C4.92752 12.434 5.11054 12.5876 5.24058 12.6837L8.33743 13.62L8.34004 13.6183C8.72999 14.8572 9.36352 16.9649 9.39474 17.082C9.4222 17.1849 9.49475 17.2567 9.57469 17.3228C9.8398 17.542 10.2394 17.3602 10.4336 17.1329L11.7603 15.7235C12.7594 16.4732 13.7584 17.2218 14.7575 17.9703C14.8057 18.0039 14.8586 18.0375 14.9116 18.0615C15.1139 18.148 15.3451 18.1336 15.5281 18.0231C15.8026 17.8599 15.8412 17.5574 15.846 17.5189C16.1807 15.944 16.5166 14.369 16.8526 12.7941C17.1885 11.2191 17.5244 9.64419 17.8592 8.06924C17.9314 7.80515 17.8303 7.53146 17.6183 7.3874Z" fill="#3D4F6C"/>
</svg>
