<svg xmlns="http://www.w3.org/2000/svg" viewBox="0 0 24 24"><defs><style>.a,.b{fill:#fff;}.a{opacity:0;}</style></defs><g transform="translate(0)"><circle class="a" cx="12" cy="12" r="12" transform="translate(0)"/><g transform="translate(4.8 6)"><path class="b" d="M18.546,7.648a5.947,5.947,0,0,1-1.714.469,2.994,2.994,0,0,0,1.312-1.65,6.013,6.013,0,0,1-1.894.724,2.985,2.985,0,0,0-5.164,2.041,2.918,2.918,0,0,0,.078.68A8.46,8.46,0,0,1,5.013,6.793a2.986,2.986,0,0,0,.923,3.985A2.967,2.967,0,0,1,4.585,10.4v.038a2.983,2.983,0,0,0,2.394,2.926,2.97,2.97,0,0,1-.786.107,2.909,2.909,0,0,1-.561-.054,2.989,2.989,0,0,0,2.787,2.074A5.986,5.986,0,0,1,4.713,16.77,5.917,5.917,0,0,1,4,16.727a8.486,8.486,0,0,0,13.067-7.15c0-.128,0-.258-.009-.386A6.113,6.113,0,0,0,18.546,7.648Z" transform="translate(-4 -6.246)"/></g></g></svg>