<svg xmlns="http://www.w3.org/2000/svg" viewBox="0 0 505.926 461.711">
  <defs>
    <style>
      .cls-1, .cls-2, .cls-3, .cls-4, .cls-5, .cls-6, .cls-7, .cls-8 {
        fill: none;
      }

      .cls-1 {
        stroke: #e7e8ed;
      }

      .cls-1, .cls-2, .cls-3, .cls-6, .cls-7 {
        stroke-width: 1.5px;
      }

      .cls-2, .cls-3, .cls-4, .cls-5, .cls-6, .cls-7 {
        stroke: #003dc6;
        stroke-linejoin: round;
      }

      .cls-2, .cls-4, .cls-6 {
        stroke-linecap: round;
      }

      .cls-2, .cls-3, .cls-4, .cls-5 {
        stroke-miterlimit: 10;
      }

      .cls-4, .cls-5 {
        stroke-width: 2px;
      }
    </style>
  </defs>
  <g id="Group_9550" data-name="Group 9550" transform="matrix(0.921, -0.391, 0.391, 0.921, -1783.468, -3264.045)">
    <g id="Group_9553" data-name="Group 9553" transform="translate(-19 3519)">
      <g id="Group_7633" data-name="Group 7633" transform="translate(319.978 288.89)">
        <g id="Group_7557" data-name="Group 7557" transform="translate(0 153.341)">
          <line id="Line_42" data-name="Line 42" class="cls-1" y2="106.62"/>
          <line id="Line_43" data-name="Line 43" class="cls-1" y2="106.62" transform="translate(415.683)"/>
        </g>
        <g id="Group_7558" data-name="Group 7558" transform="translate(57.753 359.992) rotate(-60)">
          <line id="Line_42-2" data-name="Line 42" class="cls-1" y2="106.62"/>
          <line id="Line_43-2" data-name="Line 43" class="cls-1" y2="106.62" transform="translate(415.683 0)"/>
        </g>
        <g id="Group_7559" data-name="Group 7559" transform="translate(150.089 0) rotate(60)">
          <line id="Line_42-3" data-name="Line 42" class="cls-1" y2="106.62" transform="translate(0 0)"/>
          <line id="Line_43-3" data-name="Line 43" class="cls-1" y2="106.62" transform="translate(415.683 0)"/>
        </g>
      </g>
      <g id="Outline_Icons_1_" transform="translate(309.978 578)">
        <g id="Outline_Icons">
          <g id="Group_7572" data-name="Group 7572">
            <path id="Path_18517" data-name="Path 18517" class="cls-2" d="M45.2.5,14.563,38.527,4,27.964" transform="translate(3.394 -0.5)"/>
            <path id="Path_18518" data-name="Path 18518" class="cls-2" d="M38.047,20.276a19,19,0,1,1-10.083-12.8" transform="translate(-0.5 5.063)"/>
          </g>
        </g>
      </g>
      <g id="Outline_Icons-2" data-name="Outline_Icons" transform="translate(503.75 690)">
        <g id="Group_7592" data-name="Group 7592">
          <rect id="Rectangle_11372" data-name="Rectangle 11372" class="cls-3" width="48.59" height="31.689"/>
          <line id="Line_90" data-name="Line 90" class="cls-2" y2="6.338" transform="translate(23.239 31.689)"/>
          <path id="Path_18562" data-name="Path 18562" class="cls-2" d="M6.5,29.063,17.063,18.5,27.626,29.063" transform="translate(6.176 19.527)"/>
          <path id="Path_18563" data-name="Path 18563" class="cls-2" d="M2.5,12.95h8.45l4.225-5.282L19.4,17.176l5.282-6.338,4.225,4.225L36.3,4.5" transform="translate(1.725 3.95)"/>
          <rect id="Rectangle_11373" data-name="Rectangle 11373" class="cls-3" width="40.14" height="23.239" transform="translate(4.225 4.225)"/>
        </g>
      </g>
      <g id="Outline_Icons_1_2" data-name="Outline_Icons_1_" transform="translate(696.75 578)">
        <g id="New_icons_1_">
          <g id="Group_7580" data-name="Group 7580">
            <g id="Group_7577" data-name="Group 7577">
              <circle id="Ellipse_393" data-name="Ellipse 393" class="cls-2" cx="1.056" cy="1.056" r="1.056" transform="translate(12.676 20.07)"/>
              <line id="Line_58" data-name="Line 58" class="cls-2" y2="4.225" transform="translate(13.732 22.182)"/>
              <path id="Path_18539" data-name="Path 18539" class="cls-2" d="M2.613,28.626H.5V7.5H27.964V18.063" transform="translate(-0.5 7.288)"/>
              <path id="Path_18540" data-name="Path 18540" class="cls-2" d="M21.513,15.288V10.007a9.507,9.507,0,1,0-19.013,0v5.282" transform="translate(1.725 -0.5)"/>
            </g>
            <rect id="Rectangle_11365" data-name="Rectangle 11365" class="cls-2" width="40.14" height="16.901" transform="translate(8.45 31.689)"/>
            <g id="Group_7578" data-name="Group 7578" transform="translate(13.732 36.971)">
              <line id="Line_59" data-name="Line 59" class="cls-2" x2="6.338" y2="6.338"/>
              <line id="Line_60" data-name="Line 60" class="cls-2" x1="6.338" y2="6.338"/>
            </g>
            <g id="Group_7579" data-name="Group 7579" transform="translate(25.351 36.971)">
              <line id="Line_61" data-name="Line 61" class="cls-2" x2="6.338" y2="6.338"/>
              <line id="Line_62" data-name="Line 62" class="cls-2" x1="6.338" y2="6.338"/>
            </g>
            <line id="Line_63" data-name="Line 63" class="cls-2" x2="8.45" transform="translate(35.914 44.365)"/>
          </g>
        </g>
      </g>
      <g id="Outline_Icons-3" data-name="Outline_Icons" transform="translate(459.977 436.89)">
        <g id="Group_7590" data-name="Group 7590">
          <g id="Group_7589" data-name="Group 7589">
            <path id="Path_18553" data-name="Path 18553" class="cls-4" d="M135.5,98.825a9.077,9.077,0,0,1-8.8,9.327H9.3A9.077,9.077,0,0,1,.5,98.825v-87A9.077,9.077,0,0,1,9.3,2.5H126.7a9.077,9.077,0,0,1,8.8,9.327Z" transform="translate(-0.5 -2.5)"/>
            <line id="Line_82" data-name="Line 82" class="cls-4" x2="82.174" transform="translate(26.413 117.391)"/>
            <line id="Line_83" data-name="Line 83" class="cls-4" y2="11.739" transform="translate(64.565 105.652)"/>
            <circle id="Ellipse_400" data-name="Ellipse 400" class="cls-5" cx="2.935" cy="2.935" r="2.935" transform="translate(64.565 90.978)"/>
            <line id="Line_84" data-name="Line 84" class="cls-5" x2="135" transform="translate(0 82.174)"/>
          </g>
          <line id="Line_85" data-name="Line 85" class="cls-4" y2="5.87" transform="translate(105.629 52.826)"/>
          <line id="Line_86" data-name="Line 86" class="cls-4" y2="5.87" transform="translate(105.629 11.739)"/>
          <path id="Path_18554" data-name="Path 18554" class="cls-4" d="M17,31.913a8.8,8.8,0,1,0,8.8-8.8,8.8,8.8,0,1,1,8.8-8.8" transform="translate(79.828 12.109)"/>
          <path id="Path_18555" data-name="Path 18555" class="cls-4" d="M.5,41.5,34.25,7.75,57.728,31.228,79.739,9.217" transform="translate(-0.5 23.065)"/>
        </g>
      </g>
      <g id="currency-choice" transform="translate(697 363)">
        <g id="Outline_Icons-4" data-name="Outline_Icons" transform="translate(4.049 1.012)">
          <g id="Group_9558" data-name="Group 9558">
            <path id="Path_19193" data-name="Path 19193" class="cls-6" d="M3.5,14.525V12.5H35.893v2.025" transform="translate(-0.463 11.795)"/>
            <line id="Line_4027" data-name="Line 4027" class="cls-6" y2="6.074" transform="translate(19.234 20.246)"/>
            <g id="Group_9557" data-name="Group 9557" transform="translate(0 30.369)">
              <path id="Path_19194" data-name="Path 19194" class="cls-6" d="M2,25.611a3.037,3.037,0,1,0,3.037-3.037,3.037,3.037,0,1,1,3.037-3.037" transform="translate(-2 -14.475)"/>
              <line id="Line_4028" data-name="Line 4028" class="cls-6" y2="2.025" transform="translate(3.037 14.172)"/>
              <line id="Line_4029" data-name="Line 4029" class="cls-6" y2="2.025" transform="translate(3.037)"/>
            </g>
            <path id="Path_19197" data-name="Path 19197" class="cls-6" d="M25.221,15.111A9.111,9.111,0,0,0,7,15.111Z" transform="translate(3.123 5.135)"/>
            <circle id="Ellipse_1314" data-name="Ellipse 1314" class="cls-6" cx="5.568" cy="5.568" r="5.568" transform="translate(13.666)"/>
            <g id="Group_9565" data-name="Group 9565" transform="translate(12.228 -38.642)">
              <path id="Path_19188" data-name="Path 19188" class="cls-6" d="M11.132,26.264a6.632,6.632,0,0,1,0-13.264" transform="translate(14.349 57.641)"/>
              <line id="Line_4025" data-name="Line 4025" class="cls-6" x2="7.579" transform="translate(16.954 75.378)"/>
              <line id="Line_4026" data-name="Line 4026" class="cls-6" x2="7.579" transform="translate(16.954 79.167)"/>
            </g>
            <g id="Group_9567" data-name="Group 9567" transform="translate(14.272 30.979)">
              <path id="Path_10627" data-name="Path 10627" class="cls-7" d="M4956,5306l4.642,6.876-4.642,2.777Z" transform="translate(-4951.183 -5306)"/>
              <path id="Path_10629" data-name="Path 10629" class="cls-7" d="M4960.571,5306l-4.572,6.876,4.572,2.777Z" transform="translate(-4955.755 -5306)"/>
              <g id="Group_9568" data-name="Group 9568" transform="translate(0 0.201)">
                <path id="Path_19199" data-name="Path 19199" class="cls-6" d="M.062-.572,4.63,4.735,9.382-.572" transform="translate(0.179 10.508)"/>
              </g>
            </g>
          </g>
        </g>
        <g id="Invisible_Shape">
          <rect id="Rectangle_11402" data-name="Rectangle 11402" class="cls-8" width="48.59" height="48.59"/>
        </g>
      </g>
      <g id="touch-id-lock" transform="translate(309.477 362.066)">
        <path id="Path_19224" data-name="Path 19224" class="cls-6" d="M21.051,16.176A18.944,18.944,0,0,0,16.207,3.5" transform="translate(17.476 3.338)"/>
        <path id="Path_19225" data-name="Path 19225" class="cls-6" d="M.5,11.5v6.338A19.013,19.013,0,0,0,12.119,35.36" transform="translate(0 12.238)"/>
        <path id="Path_19226" data-name="Path 19226" class="cls-6" d="M29,3.047A19.013,19.013,0,0,0,.514,18.457" transform="translate(0.016)"/>
        <path id="Path_19227" data-name="Path 19227" class="cls-6" d="M7,4.651A12.676,12.676,0,0,1,24.957,16.177V19.19" transform="translate(7.232 3.336)"/>
        <path id="Path_19228" data-name="Path 19228" class="cls-6" d="M6.728,5.5A12.627,12.627,0,0,0,3.5,13.95V24.513A12.676,12.676,0,0,0,22.513,35.5" transform="translate(3.338 5.563)"/>
        <path id="Path_19229" data-name="Path 19229" class="cls-6" d="M6.5,23.4a6.338,6.338,0,1,0,12.676,0V12.838a6.338,6.338,0,1,0-12.676,0v6.338" transform="translate(6.676 6.675)"/>
        <line id="Line_4056" data-name="Line 4056" class="cls-6" y2="6.338" transform="translate(19.513 19.513)"/>
        <line id="Line_4057" data-name="Line 4057" class="cls-6" y2="2.113" transform="translate(19.513 30.076)"/>
        <path id="Path_19230" data-name="Path 19230" class="cls-6" d="M9.5,23.9a19.049,19.049,0,0,0,5.33-.756" transform="translate(10.013 25.191)"/>
        <rect id="Rectangle_11421" data-name="Rectangle 11421" class="cls-6" width="19.013" height="16.899" transform="translate(30.077 32.189)"/>
        <circle id="Ellipse_1326" data-name="Ellipse 1326" class="cls-6" cx="2.641" cy="2.641" r="2.641" transform="translate(36.943 38.132)"/>
        <path id="Path_19231" data-name="Path 19231" class="cls-6" d="M27.063,16.782a5.282,5.282,0,1,0-10.563,0V19.95H27.063Z" transform="translate(17.802 12.238)"/>
      </g>
      <g id="exchange-currency" transform="translate(502.999 253)">
        <g id="Outline_Icons-5" data-name="Outline_Icons" transform="translate(1.012 1.012)">
          <g id="Group_9556" data-name="Group 9556">
            <circle id="Ellipse_1313" data-name="Ellipse 1313" class="cls-6" cx="15.184" cy="15.184" r="15.184" transform="translate(16.197)"/>
            <line id="Line_4023" data-name="Line 4023" class="cls-6" y2="2.025" transform="translate(31.381 21.258)"/>
            <line id="Line_4024" data-name="Line 4024" class="cls-6" y2="2.025" transform="translate(31.381 7.086)"/>
            <path id="Path_19186" data-name="Path 19186" class="cls-6" d="M14.5,14.111a3.037,3.037,0,1,0,3.037-3.037,3.037,3.037,0,1,1,3.037-3.037" transform="translate(13.844 4.111)"/>
            <path id="Path_19187" data-name="Path 19187" class="cls-6" d="M16.749,8.544A15.177,15.177,0,1,0,30.818,22.611" transform="translate(-0.5 7.705)"/>
            <path id="Path_19189" data-name="Path 19189" class="cls-6" d="M.981,5.048,5.042,9.083,9.079,5.022" transform="translate(-0.007 4.133)"/>
            <path id="Path_19190" data-name="Path 19190" class="cls-6" d="M13.077,1.013A10.123,10.123,0,0,0,2.984,11.166v2.025" transform="translate(2.045 0.026)"/>
            <path id="Path_19191" data-name="Path 19191" class="cls-6" d="M27.117,21.007l-4.061-4.035-4.037,4.061" transform="translate(18.474 16.377)"/>
            <path id="Path_19192" data-name="Path 19192" class="cls-6" d="M16.031,29.151A10.12,10.12,0,0,0,26.122,19l-.006-2.025" transform="translate(15.413 16.376)"/>
            <g id="Group_9592" data-name="Group 9592" transform="translate(10.31 23.979)">
              <path id="Path_10627-2" data-name="Path 10627" class="cls-7" d="M4956,5306l4.642,6.876-4.642,2.777Z" transform="translate(-4951.183 -5306)"/>
              <path id="Path_10629-2" data-name="Path 10629" class="cls-7" d="M4960.571,5306l-4.572,6.876,4.572,2.777Z" transform="translate(-4955.755 -5306)"/>
              <g id="Group_9568-2" data-name="Group 9568" transform="translate(0 0.201)">
                <path id="Path_19199-2" data-name="Path 19199" class="cls-6" d="M.062-.572,4.63,4.735,9.382-.572" transform="translate(0.179 10.508)"/>
              </g>
            </g>
          </g>
          <g id="Group_9566" data-name="Group 9566" transform="translate(7.244 23.724)">
            <g id="Invisible_Shape-2" data-name="Invisible_Shape">
              <rect id="Rectangle_11383" data-name="Rectangle 11383" class="cls-8" width="15.73" height="15.73"/>
            </g>
          </g>
        </g>
        <g id="Invisible_Shape-3" data-name="Invisible_Shape">
          <rect id="Rectangle_11401" data-name="Rectangle 11401" class="cls-8" width="48.59" height="48.59"/>
        </g>
      </g>
    </g>
  </g>
</svg>
