<svg xmlns="http://www.w3.org/2000/svg" viewBox="0 0 502.505 463.212">
  <defs>
    <style>
      .cls-1, .cls-2, .cls-3, .cls-4, .cls-5 {
        fill: none;
      }

      .cls-1, .cls-2, .cls-5 {
        stroke: #003dc6;
        stroke-linejoin: round;
      }

      .cls-1, .cls-5 {
        stroke-linecap: round;
      }

      .cls-1, .cls-2 {
        stroke-miterlimit: 10;
      }

      .cls-1, .cls-2, .cls-4 {
        stroke-width: 1.5px;
      }

      .cls-4 {
        stroke: #e7e8ed;
      }

      .cls-5 {
        stroke-width: 2px;
      }
    </style>
  </defs>
  <g id="Group_9549" data-name="Group 9549" transform="matrix(0.921, -0.391, 0.391, 0.921, -2568.499, -3596.22)">
    <g id="Group_9552" data-name="Group 9552" transform="translate(-421 4129)">
      <g id="server-key" transform="translate(1693 362)">
        <g id="Outline_Icons_1_" transform="translate(1.012 1.012)">
          <g id="New_icons_1_">
            <g id="Group_9591" data-name="Group 9591">
              <g id="Group_9589" data-name="Group 9589">
                <g id="Group_9588" data-name="Group 9588">
                  <ellipse id="Ellipse_1324" data-name="Ellipse 1324" class="cls-1" cx="19.234" cy="8.098" rx="19.234" ry="8.098"/>
                  <path id="Path_19220" data-name="Path 19220" class="cls-1" d="M22.77,16.5c-.99.067-2,.1-3.037.1C9.113,16.6.5,12.974.5,8.5" transform="translate(-0.5 7.697)"/>
                  <path id="Path_19221" data-name="Path 19221" class="cls-1" d="M19.734,21.1C9.113,21.1.5,17.474.5,13" transform="translate(-0.5 12.307)"/>
                  <path id="Path_19222" data-name="Path 19222" class="cls-1" d="M19.734,38.918C9.113,38.918.5,35.294.5,30.82V4.5" transform="translate(-0.5 3.598)"/>
                </g>
                <line id="Line_4055" data-name="Line 4055" class="cls-1" y2="11.135" transform="translate(38.467 8.098)"/>
              </g>
              <g id="Group_9590" data-name="Group 9590" transform="translate(23.282 25.307)">
                <path id="Path_19223" data-name="Path 19223" class="cls-2" d="M33.258,13H29.209l-7.76,7.517a7.083,7.083,0,1,0,4.294,4.292l7.515-7.76Z" transform="translate(-12 -13)"/>
                <circle id="Ellipse_1325" data-name="Ellipse 1325" class="cls-2" cx="1.012" cy="1.012" r="1.012" transform="translate(6.074 13.16)"/>
              </g>
            </g>
          </g>
        </g>
        <g id="Invisible_Shape">
          <rect id="Rectangle_11420" data-name="Rectangle 11420" class="cls-3" width="48.59" height="48.59"/>
        </g>
      </g>
      <g id="server-favorite-heart-1" transform="translate(1690 578)">
        <g id="Outline_Icons_1_2" data-name="Outline_Icons_1_" transform="translate(1.012 1.012)">
          <g id="Outline_Icons">
            <g id="Group_9587" data-name="Group 9587">
              <g id="Group_9584" data-name="Group 9584" transform="translate(24.295 26.319)">
                <path id="Path_19216" data-name="Path 19216" class="cls-2" d="M23.635,33.746s11.135-8.1,11.135-14.1c0-6.924-9.111-9.111-11.135-.692-2.025-8.418-11.135-6.232-11.135.692C12.5,25.648,23.635,33.746,23.635,33.746Z" transform="translate(-12.5 -13.5)"/>
              </g>
              <g id="Group_9586" data-name="Group 9586">
                <g id="Group_9585" data-name="Group 9585">
                  <ellipse id="Ellipse_1323" data-name="Ellipse 1323" class="cls-1" cx="19.234" cy="8.098" rx="19.234" ry="8.098"/>
                  <path id="Path_19217" data-name="Path 19217" class="cls-1" d="M19.734,16.6C9.113,16.6.5,12.974.5,8.5" transform="translate(-0.5 7.697)"/>
                  <path id="Path_19218" data-name="Path 19218" class="cls-1" d="M16.7,21C7.519,20.382.5,17.037.5,13" transform="translate(-0.5 12.307)"/>
                  <path id="Path_19219" data-name="Path 19219" class="cls-1" d="M17.709,38.875C8.04,38.448.5,35,.5,30.82V4.5" transform="translate(-0.5 3.598)"/>
                </g>
                <line id="Line_4054" data-name="Line 4054" class="cls-1" y2="9.111" transform="translate(38.467 8.098)"/>
              </g>
            </g>
          </g>
        </g>
        <g id="Invisible_Shape-2" data-name="Invisible_Shape">
          <rect id="Rectangle_11419" data-name="Rectangle 11419" class="cls-3" width="48.59" height="48.59"/>
        </g>
      </g>
      <g id="server-edit-1" transform="translate(1499 690)">
        <g id="Outline_Icons_1_3" data-name="Outline_Icons_1_" transform="translate(1.012 1.012)">
          <g id="Outline_Icons-2" data-name="Outline_Icons">
            <g id="Group_9583" data-name="Group 9583">
              <g id="Group_9580" data-name="Group 9580" transform="translate(24.291 24.291)">
                <path id="Path_19212" data-name="Path 19212" class="cls-1" d="M19.584,32.748,12.5,34.772l2.025-7.086L29.711,12.5l5.061,5.061Z" transform="translate(-12.498 -12.498)"/>
                <line id="Line_4051" data-name="Line 4051" class="cls-2" x2="5.061" y2="5.061" transform="translate(13.164 4.049)"/>
                <line id="Line_4052" data-name="Line 4052" class="cls-1" x2="5.061" y2="5.061" transform="translate(2.025 15.188)"/>
              </g>
              <g id="Group_9582" data-name="Group 9582">
                <g id="Group_9581" data-name="Group 9581">
                  <ellipse id="Ellipse_1322" data-name="Ellipse 1322" class="cls-1" cx="19.234" cy="8.098" rx="19.234" ry="8.098"/>
                  <path id="Path_19213" data-name="Path 19213" class="cls-1" d="M19.734,16.6C9.113,16.6.5,12.974.5,8.5" transform="translate(-0.5 7.697)"/>
                  <path id="Path_19214" data-name="Path 19214" class="cls-1" d="M16.7,21C7.519,20.382.5,17.037.5,13" transform="translate(-0.5 12.307)"/>
                  <path id="Path_19215" data-name="Path 19215" class="cls-1" d="M17.709,38.873C8.04,38.448.5,35,.5,30.82V4.5" transform="translate(-0.5 3.598)"/>
                </g>
                <line id="Line_4053" data-name="Line 4053" class="cls-1" y2="9.111" transform="translate(38.467 8.098)"/>
              </g>
            </g>
          </g>
        </g>
        <g id="Invisible_Shape-3" data-name="Invisible_Shape">
          <rect id="Rectangle_11418" data-name="Rectangle 11418" class="cls-3" width="48.59" height="48.59"/>
        </g>
      </g>
      <g id="server-download-1" transform="translate(1305 578)">
        <g id="Outline_Icons_1_4" data-name="Outline_Icons_1_" transform="translate(1.012 1.012)">
          <g id="Outline_Icons-3" data-name="Outline_Icons">
            <g id="Group_9579" data-name="Group 9579">
              <g id="Group_9576" data-name="Group 9576" transform="translate(22.27 22.27)">
                <path id="Path_19207" data-name="Path 19207" class="cls-1" d="M15,18l5.061,5.061L25.123,18" transform="translate(-7.914 -4.84)"/>
                <circle id="Ellipse_1321" data-name="Ellipse 1321" class="cls-2" cx="12.148" cy="12.148" r="12.148"/>
                <line id="Line_4049" data-name="Line 4049" class="cls-1" y2="12.148" transform="translate(12.148 6.074)"/>
              </g>
              <g id="Group_9578" data-name="Group 9578">
                <g id="Group_9577" data-name="Group 9577">
                  <path id="Path_19208" data-name="Path 19208" class="cls-1" d="M38.967,8.647c0,4.466-8.613,8.1-19.234,8.1S.5,13.113.5,8.647,9.113.5,19.734.5,38.967,4.173,38.967,8.647Z" transform="translate(-0.5 -0.5)"/>
                  <path id="Path_19209" data-name="Path 19209" class="cls-1" d="M19.734,16.622C9.113,16.622.5,12.99.5,8.524" transform="translate(-0.5 7.721)"/>
                  <path id="Path_19210" data-name="Path 19210" class="cls-1" d="M16.7,21.02C7.519,20.4.5,17.056.5,13.025" transform="translate(-0.5 12.333)"/>
                  <path id="Path_19211" data-name="Path 19211" class="cls-1" d="M17.709,38.9C8.04,38.473.5,35.053.5,30.868V4.5" transform="translate(-0.5 3.598)"/>
                </g>
                <line id="Line_4050" data-name="Line 4050" class="cls-1" y2="9.111" transform="translate(38.467 8.098)"/>
              </g>
            </g>
          </g>
        </g>
        <g id="Invisible_Shape-4" data-name="Invisible_Shape">
          <rect id="Rectangle_11417" data-name="Rectangle 11417" class="cls-3" width="48.59" height="48.59"/>
        </g>
      </g>
      <g id="server-add-1" transform="translate(1499 256)">
        <g id="Outline_Icons_1_5" data-name="Outline_Icons_1_" transform="translate(1.012 1.012)">
          <g id="Outline_Icons-4" data-name="Outline_Icons">
            <g id="Group_9571" data-name="Group 9571">
              <circle id="Ellipse_1317" data-name="Ellipse 1317" class="cls-2" cx="12.148" cy="12.148" r="12.148" transform="translate(22.27 22.27)"/>
              <line id="Line_4045" data-name="Line 4045" class="cls-1" x2="10.123" transform="translate(29.356 34.418)"/>
              <line id="Line_4046" data-name="Line 4046" class="cls-1" y1="10.123" transform="translate(34.418 29.356)"/>
              <g id="Group_9570" data-name="Group 9570">
                <g id="Group_9569" data-name="Group 9569">
                  <ellipse id="Ellipse_1318" data-name="Ellipse 1318" class="cls-1" cx="19.234" cy="8.098" rx="19.234" ry="8.098"/>
                  <path id="Path_19200" data-name="Path 19200" class="cls-1" d="M19.734,16.6C9.113,16.6.5,12.974.5,8.5" transform="translate(-0.5 7.697)"/>
                  <path id="Path_19201" data-name="Path 19201" class="cls-1" d="M16.7,21C7.519,20.382.5,17.037.5,13" transform="translate(-0.5 12.307)"/>
                  <path id="Path_19202" data-name="Path 19202" class="cls-1" d="M17.709,38.873C8.04,38.448.5,35,.5,30.82V4.5" transform="translate(-0.5 3.598)"/>
                </g>
                <line id="Line_4047" data-name="Line 4047" class="cls-1" y2="9.111" transform="translate(38.467 8.098)"/>
              </g>
            </g>
          </g>
        </g>
        <g id="Invisible_Shape-5" data-name="Invisible_Shape">
          <rect id="Rectangle_11415" data-name="Rectangle 11415" class="cls-3" width="48.59" height="48.59"/>
        </g>
      </g>
      <g id="Group_7633" data-name="Group 7633" transform="translate(1315 289)">
        <g id="Group_7557" data-name="Group 7557" transform="translate(0 153.341)">
          <line id="Line_42" data-name="Line 42" class="cls-4" y2="106.62"/>
          <line id="Line_43" data-name="Line 43" class="cls-4" y2="106.62" transform="translate(415.683)"/>
        </g>
        <g id="Group_7558" data-name="Group 7558" transform="translate(57.753 359.992) rotate(-60)">
          <line id="Line_42-2" data-name="Line 42" class="cls-4" y2="106.62"/>
          <line id="Line_43-2" data-name="Line 43" class="cls-4" y2="106.62" transform="translate(415.683 0)"/>
        </g>
        <g id="Group_7559" data-name="Group 7559" transform="translate(150.089 0) rotate(60)">
          <line id="Line_42-3" data-name="Line 42" class="cls-4" y2="106.62" transform="translate(0 0)"/>
          <line id="Line_43-3" data-name="Line 43" class="cls-4" y2="106.62" transform="translate(415.683 0)"/>
        </g>
      </g>
      <g id="server-check-1" transform="translate(1305 362)">
        <g id="Outline_Icons_1_6" data-name="Outline_Icons_1_" transform="translate(1.012 1.012)">
          <g id="Outline_Icons-5" data-name="Outline_Icons">
            <g id="Group_9575" data-name="Group 9575">
              <g id="Group_9572" data-name="Group 9572" transform="translate(22.27 22.27)">
                <circle id="Ellipse_1319" data-name="Ellipse 1319" class="cls-1" cx="12.148" cy="12.148" r="12.148"/>
                <path id="Path_19203" data-name="Path 19203" class="cls-1" d="M26.648,15.5l-8.1,8.1L14.5,19.549" transform="translate(-8.426 -7.402)"/>
              </g>
              <g id="Group_9574" data-name="Group 9574">
                <g id="Group_9573" data-name="Group 9573">
                  <ellipse id="Ellipse_1320" data-name="Ellipse 1320" class="cls-1" cx="19.234" cy="8.098" rx="19.234" ry="8.098"/>
                  <path id="Path_19204" data-name="Path 19204" class="cls-1" d="M19.734,16.6C9.113,16.6.5,12.974.5,8.5" transform="translate(-0.5 7.697)"/>
                  <path id="Path_19205" data-name="Path 19205" class="cls-1" d="M16.7,21C7.519,20.382.5,17.037.5,13" transform="translate(-0.5 12.307)"/>
                  <path id="Path_19206" data-name="Path 19206" class="cls-1" d="M17.709,38.873C8.04,38.448.5,35,.5,30.82V4.5" transform="translate(-0.5 3.598)"/>
                </g>
                <line id="Line_4048" data-name="Line 4048" class="cls-1" y2="9.111" transform="translate(38.467 8.098)"/>
              </g>
            </g>
          </g>
        </g>
        <g id="Invisible_Shape-6" data-name="Invisible_Shape">
          <rect id="Rectangle_11416" data-name="Rectangle 11416" class="cls-3" width="48.59" height="48.59"/>
        </g>
      </g>
    </g>
    <g id="Group_9554" data-name="Group 9554" transform="translate(-226 3517)">
      <path id="Path_18556" data-name="Path 18556" class="cls-5" d="M72.359,73.014V92.693H56.308" transform="translate(1232.531 1018.381)"/>
      <line id="Line_3735" data-name="Line 3735" class="cls-5" y2="80.797" transform="translate(1318.773 1078.298)"/>
      <path id="Path_18557" data-name="Path 18557" class="cls-5" d="M85.308,68v28.76H70.05l-.057,33.449" transform="translate(1269.067 1029.011)"/>
      <line id="Line_3736" data-name="Line 3736" class="cls-5" y2="25.43" transform="translate(1336.857 1078.298)"/>
      <circle id="Ellipse_1287" data-name="Ellipse 1287" class="cls-5" cx="4.521" cy="4.521" r="4.521" transform="translate(1332.335 1103.728)"/>
      <circle id="Ellipse_1288" data-name="Ellipse 1288" class="cls-5" cx="4.521" cy="4.521" r="4.521" transform="translate(1334.596 1159.675)"/>
      <line id="Line_3739" data-name="Line 3739" class="cls-5" y2="16.753" transform="translate(1298.428 1123.508)"/>
      <line id="Line_3845" data-name="Line 3845" class="cls-5" y2="6.551" transform="translate(1359.461 1134.81)"/>
      <circle id="Ellipse_1301" data-name="Ellipse 1301" class="cls-5" cx="4.521" cy="4.521" r="4.521" transform="translate(1293.907 1141.592)"/>
      <circle id="Ellipse_1309" data-name="Ellipse 1309" class="cls-5" cx="4.521" cy="4.521" r="4.521" transform="translate(1354.94 1141.592)"/>
      <circle id="Ellipse_1302" data-name="Ellipse 1302" class="cls-5" cx="4.521" cy="4.521" r="4.521" transform="translate(1314.252 1159.675)"/>
      <g id="Group_9249" data-name="Group 9249" transform="translate(1266.216 1048.347)">
        <path id="Path_19011" data-name="Path 19011" class="cls-5" d="M101.5,76.181s24.328-3.17,24.328-27.03a26.974,26.974,0,0,0-28-26.973A37.778,37.778,0,0,0,25.936,36.069,20.264,20.264,0,0,0,1.5,55.9c0,20.6,21.622,20.277,21.622,20.277" transform="translate(-1.5 -0.5)"/>
      </g>
      <rect id="Rectangle_11320" data-name="Rectangle 11320" class="cls-3" width="135.629" height="135.629" transform="translate(1260 1041)"/>
    </g>
  </g>
</svg>
