<svg xmlns="http://www.w3.org/2000/svg" viewBox="0 0 62 60">
  <defs>
    <style>
      .cls-1, .cls-2, .cls-3 {
        fill: none;
      }

      .cls-1, .cls-2 {
        stroke: #003dc6;
        stroke-linejoin: round;
        stroke-miterlimit: 10;
        stroke-width: 2px;
      }

      .cls-1 {
        stroke-linecap: round;
      }
    </style>
  </defs>
  <g id="Group_9617" data-name="Group 9617" transform="translate(-129 -344)">
    <g id="Outline_Icons" transform="translate(130 348)">
      <g id="Group_9592" data-name="Group 9592">
        <g id="Group_9591" data-name="Group 9591">
          <path id="Path_19259" data-name="Path 19259" class="cls-1" d="M60.5,45.311a4.034,4.034,0,0,1-3.913,4.145H4.413A4.034,4.034,0,0,1,.5,45.311V6.645A4.034,4.034,0,0,1,4.413,2.5H56.587A4.034,4.034,0,0,1,60.5,6.645Z" transform="translate(-0.5 -2.5)"/>
          <line id="Line_4137" data-name="Line 4137" class="cls-1" x2="36.522" transform="translate(11.739 52.174)"/>
          <line id="Line_4138" data-name="Line 4138" class="cls-1" y2="5.217" transform="translate(30.059 46.957)"/>
          <circle id="Ellipse_1324" data-name="Ellipse 1324" class="cls-2" cx="1.304" cy="1.304" r="1.304" transform="translate(28.696 40.435)"/>
          <line id="Line_4139" data-name="Line 4139" class="cls-2" x2="60" transform="translate(0 36.522)"/>
        </g>
        <line id="Line_4140" data-name="Line 4140" class="cls-1" y2="2.609" transform="translate(46.946 23.478)"/>
        <line id="Line_4141" data-name="Line 4141" class="cls-1" y2="2.609" transform="translate(46.946 5.217)"/>
        <path id="Path_19260" data-name="Path 19260" class="cls-1" d="M17,17.239a3.913,3.913,0,1,0,3.913-3.913,3.913,3.913,0,1,1,3.913-3.913" transform="translate(26.037 2.326)"/>
        <path id="Path_19261" data-name="Path 19261" class="cls-1" d="M.5,22.75l15-15L25.935,18.185,35.717,8.4" transform="translate(-0.5 5.946)"/>
      </g>
      <rect id="Rectangle_11432" data-name="Rectangle 11432" class="cls-3" width="60" height="60" transform="translate(0 -4)"/>
    </g>
  </g>
</svg>
