<svg xmlns="http://www.w3.org/2000/svg" viewBox="0 0 60 60"><defs><style>.a,.b{fill:none;}.a{stroke:#fff;stroke-width:2px;}</style></defs><g transform="translate(-1146 -5189)"><g transform="translate(1156.909 5190.212)"><path class="a" d="M4264.189,5871.974l-3.61,52.874H4282.1s3.657-9.295,1.079-23.714-18.986-24.155-18.986-24.155" transform="translate(-4253.361 -5871.974)"/><path class="a" d="M4275.564,5940.034v-47.489" transform="translate(-4264.424 -5887.162)"/><line class="a" x1="13.086" transform="translate(11.123 17.411)"/><line class="a" x1="18.843" transform="translate(11.123 29.187)"/><line class="a" x1="20.152" transform="translate(10.599 41.488)"/><path class="a" d="M2.094,0H36.116A2.094,2.094,0,0,1,38.21,2.094V3.985H0V2.094A2.094,2.094,0,0,1,2.094,0Z" transform="translate(0 52.873)"/><line class="a" x2="8.987" transform="translate(14.771 23.441)"/><line class="a" x2="11.184" transform="translate(14.771 35.48)"/><line class="a" x2="9.786" transform="translate(14.771 47.519)"/></g><rect class="b" width="60" height="60" transform="translate(1146 5189)"/></g></svg>