<svg xmlns="http://www.w3.org/2000/svg" viewBox="0 0 60 60"><defs><style>.a,.b,.c{fill:none;}.a,.b{stroke:#003dc6;stroke-linejoin:round;stroke-miterlimit:10;stroke-width:2px;}.a{stroke-linecap:round;}</style></defs><g transform="translate(1.25 1.25)"><g transform="translate(27.5 27.5)"><path class="a" d="M15,18l6.25,6.25L27.5,18" transform="translate(-6.25 -1.75)"/><circle class="b" cx="15" cy="15" r="15"/><line class="a" y2="15" transform="translate(15 7.5)"/></g><line class="a" y2="5" transform="translate(7.5 15)"/><line class="a" y2="5" transform="translate(22.5 15)"/><line class="a" y2="5" transform="translate(17.5 27.5)"/><line class="a" y2="5" transform="translate(22.5 27.5)"/><rect class="a" width="5" height="5" transform="translate(12.5 15)"/><rect class="a" width="5" height="5" transform="translate(7.5 27.5)"/><rect class="a" width="5" height="5" transform="translate(17.5 40)"/><line class="a" y2="5" transform="translate(7.5 40)"/><line class="a" y2="5" transform="translate(12.5 40)"/><path class="a" d="M25.5,53H.5V.5H28L40.5,13V23" transform="translate(-0.5 -0.5)"/><path class="a" d="M11.5.5V13H24" transform="translate(16 -0.5)"/></g><rect class="c" width="60" height="60"/></svg>