<svg xmlns="http://www.w3.org/2000/svg" viewBox="0 0 60 60"><defs><style>.a,.b,.c{fill:none;}.a,.b{stroke:#003dc6;stroke-linejoin:round;stroke-miterlimit:10;stroke-width:2px;}.a{stroke-linecap:round;}</style></defs><g transform="translate(1.25 1.25)"><line class="a" x2="57.5" transform="translate(0 50)"/><line class="a" x2="57.5" transform="translate(0 42.5)"/><line class="a" x2="57.5" transform="translate(0 35)"/><line class="b" y2="7.5" transform="translate(20 27.5)"/><line class="b" y2="7.5" transform="translate(45 27.5)"/><line class="b" y2="7.5" transform="translate(20 42.5)"/><line class="b" y2="7.5" transform="translate(45 42.5)"/><line class="b" y2="7.5" transform="translate(10 50)"/><line class="b" y2="7.5" transform="translate(35 50)"/><line class="b" y2="7.5" transform="translate(10 35.04)"/><line class="b" y2="7.5" transform="translate(35 35)"/><rect class="a" width="57.5" height="30" transform="translate(0 27.5)"/><path class="a" d="M38.595,11.75c1.25,3.75-2.5,3.75-3.75,7.5,1.25-12.5-10-10-5-18.75-10.557,1.767-15,10-12.572,19.808C14.845,15.5,8.595,15.5,9.845,10.5,3.6,13.41,1.095,23,6.095,28h37.5C48.595,21.75,46.095,14.25,38.595,11.75Z" transform="translate(3.905 -0.5)"/><path class="a" d="M11.354,18.25C8.854,13.25,15.1,7,15.1,7c-1.25,6.25,6.25,6.25,3.75,11.25" transform="translate(14.896 9.25)"/><path class="a" d="M19,9.5c1.875,1.875-2.5,5-2.5,5" transform="translate(23.5 13)"/><path class="a" d="M6.967,9.5c-1.875,1.875,2.5,5,2.5,5" transform="translate(8.5 13)"/></g><rect class="c" width="60" height="60"/></svg>