<svg xmlns="http://www.w3.org/2000/svg" viewBox="0 0 92.042 86.085"><defs><style>.a,.b{fill:#003dc6;}.b{opacity:0.5;}</style></defs><g transform="translate(-754 -1874)"><g transform="translate(754 1935.955)"><path class="a" d="M962.187,530.109c0-5.493,4.119-9.372,9.921-9.372a9,9,0,0,1,6.334,2.244,1.951,1.951,0,0,1-.367,3.1l-.006,0a1.941,1.941,0,0,1-2.323-.274,5.16,5.16,0,0,0-3.673-1.432,5.735,5.735,0,0,0,0,11.465,5.16,5.16,0,0,0,3.673-1.432,1.95,1.95,0,0,1,2.693,2.82,8.991,8.991,0,0,1-6.332,2.285c-5.8,0-9.921-3.913-9.921-9.406" transform="translate(-944.56 -515.385)"/><path class="a" d="M1072.57,535.918l.034-.067a1.8,1.8,0,0,1,2.33-.829,12.763,12.763,0,0,0,4.864,1.016c2.706,0,3.836-.754,3.836-2.021,0-3.494-11.3-.205-11.3-7.5,0-3.46,3.117-5.72,8.049-5.72a16.958,16.958,0,0,1,4.925.739,1.793,1.793,0,1,1-1.16,3.392,10.357,10.357,0,0,0-3.8-.671c-2.6,0-3.836.857-3.836,2.055,0,3.7,11.3.411,11.3,7.57,0,3.425-3.151,5.651-8.289,5.651a16.415,16.415,0,0,1-6.041-1.147,1.793,1.793,0,0,1-.912-2.468" transform="translate(-1016.323 -515.423)"/><path class="a" d="M1142.544,518.582v8.441a2.11,2.11,0,1,1-4.219,0v-7.9c0-3.207-1.586-4.759-4.287-4.759-3,0-5.029,1.823-5.029,5.434v7.225a2.109,2.109,0,1,1-4.219,0V507.487a2.109,2.109,0,1,1,4.219,0v5.493a8.035,8.035,0,0,1,6.008-2.3c4.32,0,7.527,2.464,7.527,7.9" transform="translate(-1050.502 -505.377)"/><path class="a" d="M912.048,524.758h0a1.927,1.927,0,0,1,2.718-.243,5.1,5.1,0,0,0,3.351,1.253c2.42,0,3.664-1.445,3.664-4.336V509.041h-3.661a1.832,1.832,0,0,1-1.832-1.832h0a1.832,1.832,0,0,1,1.832-1.832h6.133a1.9,1.9,0,0,1,1.9,1.9V521.2c0,5.547-2.757,8.269-7.934,8.269a9.322,9.322,0,0,1-5.894-1.969,1.934,1.934,0,0,1-.275-2.739" transform="translate(-911.603 -505.377)"/><path class="a" d="M1033.38,528.774v7.39a2.2,2.2,0,0,1-1.4,2.059c-7.531,2.867-14.906.88-14.906-4.4,0-5.7,7.135-5.98,12.1-5.131v-.483c0-2.454-1.479-3.9-4.47-3.9a9.552,9.552,0,0,0-4.064.911,1.735,1.735,0,0,1-1.483-3.138,14.185,14.185,0,0,1,6.423-1.265,7.965,7.965,0,0,1,7.8,7.958m-4.2,6.971v-4.233s-8.175-1.539-8.175,2.3c0,3.06,4.934,3.012,8.175,1.933" transform="translate(-980.323 -515.433)"/></g><g transform="translate(775 1874)"><path class="a" d="M749.737,487.585a1.989,1.989,0,0,0,.7.127c.054,0,.106-.008.159-.012a2.033,2.033,0,0,0,.213.012h7.64c.032,0,.064,0,.1-.006s.069,0,.1-.007c.06-.006.118-.016.176-.027l.015,0a1.989,1.989,0,0,0,1.326-.929,13.434,13.434,0,0,1,11.616-6.588,2,2,0,0,0,0-3.994,17.633,17.633,0,0,0-14.416,7.559h-3.817a20.787,20.787,0,0,1,26.855-8.942l-5.347,9.261a10.188,10.188,0,1,0-6.33,19.367c.118.037.237.072.355.1l.171.046a2,2,0,0,0,.992-3.869l-.107-.028c-.071-.02-.141-.04-.213-.063a6.194,6.194,0,1,1,4.959-11.271h0l.011.006a2.034,2.034,0,0,0,.2.1l.07.027c.053.02.106.038.16.054l.073.021q.1.025.2.039l.028,0a2.033,2.033,0,0,0,.224.014l.026,0c.016,0,.032,0,.049,0,.054,0,.109,0,.163-.01l.076-.009c.067-.01.133-.023.2-.039l.027-.006a2.1,2.1,0,0,0,.215-.072l.066-.028c.052-.022.1-.047.151-.073l.063-.035a1.947,1.947,0,0,0,.19-.124l.007,0a1.885,1.885,0,0,0,.176-.151c.017-.016.034-.034.051-.051q.061-.063.117-.132c.015-.019.031-.037.046-.056a2.064,2.064,0,0,0,.135-.2v0l7.294-12.634a2,2,0,0,0-.731-2.728c-.017-.01-.034-.017-.052-.027s-.033-.023-.051-.033a24.787,24.787,0,0,0-35.508,12.844,2,2,0,0,0,1.172,2.57" transform="translate(-746.982 -468.909)"/><path class="a" d="M778.574,548.777a2.163,2.163,0,0,0-2.846-.738,13.539,13.539,0,0,1-18.372-4.975,2,2,0,0,0-3.452,2.011,17.51,17.51,0,0,0,22.115,7.266l1.64,2.841a20.783,20.783,0,0,1-29.282-16.9h5.131a2,2,0,0,0,0-3.994h-6.955a2.012,2.012,0,0,0-.272-.021,2.007,2.007,0,0,0-1.988,2.372A24.774,24.774,0,0,0,781.317,557.8c.023-.013.044-.028.065-.042s.036-.016.053-.026a2,2,0,0,0,.731-2.729Z" transform="translate(-744.26 -511.493)"/><path class="b" d="M865.52,495.814c-.242-.344-.5-.688-.758-1.022a2,2,0,0,0-3.146,2.462c.219.28.433.568.636.857a20.788,20.788,0,0,1,0,23.87c-.2.289-.417.577-.636.858a2,2,0,0,0,3.146,2.461c.261-.334.516-.677.758-1.021a24.785,24.785,0,0,0,0-28.465" transform="translate(-820.445 -485.274)"/><path class="b" d="M854.6,522.278a17.553,17.553,0,0,0-2.143-8.405,2,2,0,0,0-3.5,1.918,13.547,13.547,0,0,1,1.653,6.487v.045a13.549,13.549,0,0,1-1.653,6.488,2,2,0,1,0,3.5,1.918,17.552,17.552,0,0,0,2.143-8.405Z" transform="translate(-812.31 -497.528)"/></g></g></svg>