<svg xmlns="http://www.w3.org/2000/svg" viewBox="0 0 57.818 60"><defs><style>.a{fill:#fff;opacity:0.63;}.b{fill:none;stroke:#003dc6;stroke-width:2px;}</style></defs><g transform="translate(-284 -1823)"><rect class="a" width="57.818" height="60" transform="translate(284 1823)"/><path class="b" d="M25.991,57a9.674,9.674,0,0,1-4.826-1.292L4.824,46.279A9.68,9.68,0,0,1,0,37.922V19.064A9.69,9.69,0,0,1,4.814,10.72L21.156,1.294a9.641,9.641,0,0,1,9.65,0l16.329,9.412a9.681,9.681,0,0,1,4.83,8.358V37.922a9.676,9.676,0,0,1-4.808,8.358L30.817,55.708A9.674,9.674,0,0,1,25.991,57ZM17.11,36.265,13.485,38.85a7.984,7.984,0,0,0,6.536,3.419,8.267,8.267,0,0,0,2.549-.406,7.992,7.992,0,0,0,5.641-7.729V30.983a8.689,8.689,0,0,0,1.187.483,8.33,8.33,0,0,0,2.546.4,7.981,7.981,0,0,0,6.536-3.416l-3.63-2.588a3.661,3.661,0,0,1-6.641-2.128V14.726H23.754v19.4a3.663,3.663,0,0,1-6.644,2.137Z" transform="translate(286.5 1824.5)"/></g></svg>