<svg xmlns="http://www.w3.org/2000/svg" viewBox="0 0 60 60"><defs><style>.a,.b,.c{fill:none;}.a,.b{stroke:#fff;stroke-linecap:round;stroke-width:2px;}.a{stroke-linejoin:round;stroke-miterlimit:10;}</style></defs><g transform="translate(10113 -6172)"><g transform="translate(1 -2)"><rect class="a" width="22" height="10" transform="translate(-10094.5 6219.5)"/><rect class="a" width="26" height="4" transform="translate(-10096.5 6215.5)"/><line class="a" y2="2.596" transform="translate(-10083.5 6223.145)"/><line class="a" y2="6" transform="translate(-10083.5 6199.5)"/><line class="a" y2="2.596" transform="translate(-10089.5 6223.145)"/><line class="a" y2="2.596" transform="translate(-10105.5 6223.145)"/><line class="a" y2="6" transform="translate(-10088.5 6199.5)"/><line class="a" y2="2.596" transform="translate(-10077.5 6223.145)"/><line class="a" y2="2.596" transform="translate(-10061.5 6223.145)"/><line class="a" y2="6" transform="translate(-10078.5 6199.5)"/><path class="a" d="M27.105,6.032h-26l13-5.876Z" transform="translate(-10097.605 6209.344)"/><rect class="a" width="16" height="4" transform="translate(-10091.5 6190.5)"/><rect class="a" width="20" height="15" transform="translate(-10093.5 6194.5)"/><rect class="a" width="6" height="5" transform="translate(-10068.5 6204.5)"/><rect class="a" width="6" height="5" transform="translate(-10104.5 6204.5)"/><rect class="a" width="52" height="20" transform="translate(-10109.5 6209.5)"/><path class="b" d="M15.918,0A7.959,7.959,0,0,1,7.959,7.959,7.959,7.959,0,0,1,0,0" transform="translate(-10075.5 6190.507) rotate(180)"/><path class="b" d="M5.8,0A2.9,2.9,0,0,1,2.9,2.9,2.9,2.9,0,0,1,0,0" transform="translate(-10062.686 6203.886) rotate(180)"/><path class="b" d="M5.8,0A2.9,2.9,0,0,1,2.9,2.9,2.9,2.9,0,0,1,0,0" transform="translate(-10098.686 6203.886) rotate(180)"/><line class="a" y1="2" transform="translate(-10065.5 6198.5)"/><line class="a" y1="2" transform="translate(-10101.5 6198.5)"/><line class="a" y1="19" transform="translate(-10101.5 6209.5)"/><line class="a" y1="19" transform="translate(-10065.5 6209.5)"/><line class="a" y1="4" transform="translate(-10083.5 6178.5)"/></g><rect class="c" width="60" height="60" transform="translate(-10113 6172)"/></g></svg>