<svg xmlns="http://www.w3.org/2000/svg" viewBox="0 0 60 60"><defs><style>.a,.b,.c{fill:none;}.b{stroke:#003dc6;stroke-width:2px;}.b,.c{stroke-linecap:round;stroke-linejoin:round;}.d,.e{stroke:none;}.e{fill:#003dc6;}</style></defs><rect class="a" width="60" height="60"/><g transform="translate(2.5 1.75)"><line class="b" y1="44.571" transform="translate(27.5 9.679)"/><line class="b" x2="22.286" transform="translate(16.357 54.25)"/><line class="b" x2="13" transform="translate(31.214 5.964)"/><line class="b" x2="13" transform="translate(10.786 5.964)"/><g class="b" transform="translate(23.786 2.25)"><circle class="d" cx="3.714" cy="3.714" r="3.714"/><circle class="a" cx="3.714" cy="3.714" r="2.714"/></g><g class="c" transform="translate(0 17.714)"><path class="d" d="M20.071,14.25a9.286,9.286,0,0,1-18.571,0Z"/><path class="e" d="M 3.77906608581543 16.25 C 4.650276184082031 19.29823875427246 7.461543083190918 21.53572082519531 10.7857141494751 21.53572082519531 C 14.10988426208496 21.53572082519531 16.92115211486816 19.29823875427246 17.79236221313477 16.25 L 3.77906608581543 16.25 M 1.500003814697266 14.25 L 20.07142448425293 14.25 C 20.07142448425293 19.37836074829102 15.9140739440918 23.53572082519531 10.7857141494751 23.53572082519531 C 5.657354354858398 23.53572082519531 1.500003814697266 19.37836074829102 1.500003814697266 14.25 Z"/></g><line class="b" x1="9.286" y2="18.571" transform="translate(1.5 5.964)"/><line class="b" x2="9.286" y2="18.571" transform="translate(10.786 5.964)"/><g class="c" transform="translate(19.929 17.714)"><path class="d" d="M33.571,14.25A9.286,9.286,0,0,1,15,14.25Z"/><path class="e" d="M 17.2790584564209 16.25 C 18.1502685546875 19.29823875427246 20.9615364074707 21.53572082519531 24.28571510314941 21.53572082519531 C 27.60988616943359 21.53572082519531 30.42115211486816 19.29823875427246 31.29236221313477 16.25 L 17.2790584564209 16.25 M 14.99999618530273 14.25 L 33.57142639160156 14.25 C 33.57142639160156 19.37836074829102 29.41407585144043 23.53572082519531 24.28571510314941 23.53572082519531 C 19.1573543548584 23.53572082519531 14.99999618530273 19.37836074829102 14.99999618530273 14.25 Z"/></g><line class="b" x1="9.286" y2="18.571" transform="translate(34.929 5.964)"/><line class="b" x2="9.286" y2="18.571" transform="translate(44.214 5.964)"/></g></svg>