<svg xmlns="http://www.w3.org/2000/svg" xmlns:xlink="http://www.w3.org/1999/xlink" viewBox="0 0 60 60">
  <defs>
    <style>
      .cls-1 {
        clip-path: url(#clip-zug-w);
      }

      .cls-2, .cls-3 {
        fill: none;
      }

      .cls-2 {
        stroke: #fff;
        stroke-width: 2px;
      }

      .cls-4 {
        fill: #fff;
      }
    </style>
    <clipPath id="clip-zug-w">
      <rect width="60" height="60"/>
    </clipPath>
  </defs>
  <g id="zug-w" class="cls-1">
    <rect class="cls-4" width="60" height="60"/>
    <g id="Group_1" data-name="Group 1">
      <path id="Path_15680" data-name="Path 15680" class="cls-2" d="M3929.234,6515.427l5.006-1.5,2.9,3.481,2.98-3.481,5,1.5" transform="translate(-3896.739 -6485.627)"/>
      <path id="Subtraction_7" data-name="Subtraction 7" class="cls-2" d="M.12,12.828,7.24,0l7.63,13.546" transform="translate(20.98 9.85)"/>
      <path id="Path_15682" data-name="Path 15682" class="cls-2" d="M3929.234,6515.427l5.006-1.5,2.9,3.481,2.98-3.481,5,1.5" transform="translate(-3920.376 -6485.627)"/>
      <path id="Subtraction_8" data-name="Subtraction 8" class="cls-2" d="M23.636,26.819H0L14.887,0l11.9,21.136-3.154,5.682Z" transform="translate(1.818 15.305)"/>
      <path id="Path_15686" data-name="Path 15686" class="cls-2" d="M3917.618,6524.406h35.7l-17.979-31.924Z" transform="translate(-3895.018 -6477.177)"/>
      <path id="Path_15687" data-name="Path 15687" class="cls-2" d="M3914.588,6497.4l4.9,3.735,4.581-3.735" transform="translate(-3890.97 -6479.116)"/>
      <path id="Rectangle_9691" data-name="Rectangle 9691" class="cls-3" d="M0,0H60V60H0Z"/>
    </g>
  </g>
</svg>
