<svg xmlns="http://www.w3.org/2000/svg" viewBox="0 0 60.011 60">
  <defs>
    <style>
      .cls-1, .cls-2 {
        fill: none;
      }

      .cls-1 {
        stroke: #fff;
        stroke-width: 2px;
      }
    </style>
  </defs>
  <g id="zug-w" transform="translate(-356 -5189)">
    <g id="Group_6177" data-name="Group 6177" transform="translate(357.818 5198.85)">
      <g id="Group_6171" data-name="Group 6171">
        <path id="Path_15680" data-name="Path 15680" class="cls-1" d="M3929.234,6515.427l5.006-1.5,2.9,3.481,2.98-3.481,5,1.5" transform="translate(-3898.557 -6495.477)"/>
        <path id="Subtraction_7" data-name="Subtraction 7" class="cls-1" d="M7.629,26.591h0L0,13.045l.12-.217L7.24,0,14.87,13.546,7.629,26.59Z" transform="translate(19.162 0)"/>
        <path id="Path_15682" data-name="Path 15682" class="cls-1" d="M3929.234,6515.427l5.006-1.5,2.9,3.481,2.98-3.481,5,1.5" transform="translate(-3922.194 -6495.477)"/>
        <path id="Subtraction_8" data-name="Subtraction 8" class="cls-1" d="M23.636,26.819H0L14.887,0l11.9,21.136-3.154,5.682Z" transform="translate(0 5.455)"/>
        <path id="Path_15686" data-name="Path 15686" class="cls-1" d="M3917.618,6524.406h35.7l-17.979-31.924Z" transform="translate(-3896.836 -6487.027)"/>
        <path id="Path_15687" data-name="Path 15687" class="cls-1" d="M3914.588,6497.4l4.9,3.735,4.581-3.735" transform="translate(-3892.788 -6488.966)"/>
      </g>
    </g>
    <rect id="Rectangle_9691" data-name="Rectangle 9691" class="cls-2" width="60" height="60" transform="translate(356 5189)"/>
  </g>
</svg>
