<svg xmlns="http://www.w3.org/2000/svg" viewBox="0 0 139.386 40"><defs><style>.a{fill:#fff;}</style></defs><g transform="translate(-0.89 -0.89)"><path d="M140.277,36.88a4.01,4.01,0,0,1-4.014,4.01H4.909A4.015,4.015,0,0,1,.89,36.88V4.9A4.02,4.02,0,0,1,4.909.89H136.262A4.014,4.014,0,0,1,140.275,4.9V36.88Z" transform="translate(0 0)"/><g transform="translate(13.35 6.467)"><path class="a" d="M30.941,20.132a6.069,6.069,0,0,1,2.89-5.092,6.216,6.216,0,0,0-4.9-2.647c-2.059-.217-4.057,1.232-5.106,1.232-1.07,0-2.685-1.211-4.426-1.176A6.517,6.517,0,0,0,13.918,15.8c-2.372,4.107-.6,10.142,1.67,13.462,1.137,1.626,2.465,3.441,4.2,3.377,1.7-.07,2.337-1.085,4.39-1.085,2.034,0,2.631,1.085,4.4,1.044,1.826-.029,2.975-1.633,4.072-3.274a13.434,13.434,0,0,0,1.862-3.793A5.866,5.866,0,0,1,30.941,20.132Z" transform="translate(-12.792 -5.928)"/><path class="a" d="M27.107,10.5a5.973,5.973,0,0,0,1.367-4.281A6.085,6.085,0,0,0,24.54,8.252a5.685,5.685,0,0,0-1.4,4.123A5.026,5.026,0,0,0,27.107,10.5Z" transform="translate(-12.308 -6.217)"/></g><g transform="translate(44.357 18.804)"><path class="a" d="M54.172,32.128H51.794l-1.3-4.092H45.965l-1.241,4.092H42.41L46.895,18.2h2.77ZM50.1,26.319l-1.178-3.638q-.187-.557-.7-2.625h-.042q-.206.889-.662,2.625l-1.157,3.638Z" transform="translate(-42.41 -17.992)"/><path class="a" d="M65.1,26.817a5.709,5.709,0,0,1-1.385,4.05,4.05,4.05,0,0,1-3.08,1.323,3.08,3.08,0,0,1-2.853-1.426h-.042v5.292H55.5V25.224q0-1.611-.083-3.307h1.963l.125,1.592h.042a3.971,3.971,0,0,1,6.356-.394A5.535,5.535,0,0,1,65.1,26.817Zm-2.274.082a4.136,4.136,0,0,0-.662-2.418,2.285,2.285,0,0,0-1.943-.992,2.321,2.321,0,0,0-1.5.548,2.54,2.54,0,0,0-.878,1.437,2.922,2.922,0,0,0-.1.68v1.675a2.684,2.684,0,0,0,.672,1.851,2.228,2.228,0,0,0,1.746.755,2.285,2.285,0,0,0,1.963-.972A4.276,4.276,0,0,0,62.822,26.9Z" transform="translate(-41.8 -17.827)"/><path class="a" d="M76.132,26.817a5.7,5.7,0,0,1-1.386,4.05,4.046,4.046,0,0,1-3.079,1.323,3.077,3.077,0,0,1-2.852-1.426h-.042v5.292H66.542V25.224q0-1.611-.083-3.307h1.963l.125,1.592h.042a3.972,3.972,0,0,1,6.357-.394A5.55,5.55,0,0,1,76.132,26.817Zm-2.274.082A4.136,4.136,0,0,0,73.2,24.48a2.282,2.282,0,0,0-1.942-.992,2.324,2.324,0,0,0-1.5.548,2.538,2.538,0,0,0-.877,1.437,2.98,2.98,0,0,0-.1.68v1.675a2.692,2.692,0,0,0,.67,1.851,2.232,2.232,0,0,0,1.748.755,2.285,2.285,0,0,0,1.963-.972A4.276,4.276,0,0,0,73.859,26.9Z" transform="translate(-41.282 -17.827)"/><path class="a" d="M88.426,28.23a3.713,3.713,0,0,1-1.237,2.894,5.484,5.484,0,0,1-3.8,1.22,6.643,6.643,0,0,1-3.611-.868l.517-1.86a6.118,6.118,0,0,0,3.227.89,3.05,3.05,0,0,0,1.965-.57,1.86,1.86,0,0,0,.7-1.522,1.941,1.941,0,0,0-.579-1.428,5.382,5.382,0,0,0-1.922-1.077q-3.659-1.365-3.658-3.995A3.535,3.535,0,0,1,81.317,19.1,5.056,5.056,0,0,1,84.728,18a6.762,6.762,0,0,1,3.162.662l-.558,1.82a5.486,5.486,0,0,0-2.666-.641,2.7,2.7,0,0,0-1.838.579,1.654,1.654,0,0,0-.558,1.262,1.7,1.7,0,0,0,.64,1.364,7.23,7.23,0,0,0,2.027,1.075,6.876,6.876,0,0,1,2.646,1.694A3.539,3.539,0,0,1,88.426,28.23Z" transform="translate(-40.657 -18.001)"/><path class="a" d="M95.362,23.7H92.9v4.878q0,1.861,1.3,1.86a3.97,3.97,0,0,0,.991-.1l.062,1.695a5.057,5.057,0,0,1-1.736.247,2.678,2.678,0,0,1-2.068-.806,3.96,3.96,0,0,1-.744-2.708V23.693H89.244V22.018H90.71V20.179l2.192-.662v2.5h2.46V23.7Z" transform="translate(-40.213 -17.93)"/><path class="a" d="M106.132,26.858a5.511,5.511,0,0,1-1.323,3.8,4.724,4.724,0,0,1-3.681,1.53A4.492,4.492,0,0,1,97.6,30.724a5.342,5.342,0,0,1-1.313-3.7A5.457,5.457,0,0,1,97.646,23.2a4.685,4.685,0,0,1,3.647-1.489,4.588,4.588,0,0,1,3.555,1.468A5.281,5.281,0,0,1,106.132,26.858Zm-2.316.072a4.519,4.519,0,0,0-.6-2.384,2.2,2.2,0,0,0-2-1.2,2.238,2.238,0,0,0-2.047,1.2,4.605,4.605,0,0,0-.6,2.426,4.512,4.512,0,0,0,.6,2.383,2.281,2.281,0,0,0,4.031-.021A4.535,4.535,0,0,0,103.816,26.93Z" transform="translate(-39.883 -17.827)"/><path class="a" d="M112.862,23.88a3.876,3.876,0,0,0-.7-.062,2.109,2.109,0,0,0-1.82.89,3.345,3.345,0,0,0-.558,1.984v5.271H107.55l.021-6.882q0-1.737-.084-3.163h1.944l.082,1.922h.062a3.436,3.436,0,0,1,1.116-1.591,2.7,2.7,0,0,1,1.613-.538,3.584,3.584,0,0,1,.558.041V23.88Z" transform="translate(-39.358 -17.827)"/><path class="a" d="M122.556,26.466a5.235,5.235,0,0,1-.082,1.012h-6.7a2.915,2.915,0,0,0,.972,2.275,3.317,3.317,0,0,0,2.19.7,7.406,7.406,0,0,0,2.709-.475L122,31.53a8.376,8.376,0,0,1-3.368.621,4.879,4.879,0,0,1-3.67-1.375,5.077,5.077,0,0,1-1.333-3.689A5.755,5.755,0,0,1,114.87,23.3a4.278,4.278,0,0,1,3.512-1.611A3.744,3.744,0,0,1,121.67,23.3,5.433,5.433,0,0,1,122.556,26.466Zm-2.128-.579a3.032,3.032,0,0,0-.433-1.716,1.95,1.95,0,0,0-1.779-.931,2.117,2.117,0,0,0-1.777.91,3.331,3.331,0,0,0-.661,1.736h4.649Z" transform="translate(-39.07 -17.828)"/></g><g transform="translate(45.683 6.822)"><path class="a" d="M49.3,10.157a3.437,3.437,0,0,1-1.108,2.783,4.406,4.406,0,0,1-2.914.863,13.509,13.509,0,0,1-1.6-.082V6.988a11.843,11.843,0,0,1,1.89-.142,4.074,4.074,0,0,1,2.711.782A3.16,3.16,0,0,1,49.3,10.157Zm-1.157.03a2.5,2.5,0,0,0-.634-1.838,2.5,2.5,0,0,0-1.854-.64,4.643,4.643,0,0,0-.884.071V12.9a5.793,5.793,0,0,0,.741.03,2.6,2.6,0,0,0,1.944-.7A2.8,2.8,0,0,0,48.145,10.188Z" transform="translate(-43.676 -6.542)"/><path class="a" d="M55.126,11.15a2.707,2.707,0,0,1-.65,1.869,2.32,2.32,0,0,1-1.808.752,2.205,2.205,0,0,1-1.732-.721,2.627,2.627,0,0,1-.644-1.817,2.681,2.681,0,0,1,.665-1.878,2.306,2.306,0,0,1,1.792-.731,2.257,2.257,0,0,1,1.747.72A2.606,2.606,0,0,1,55.126,11.15Zm-1.138.036a2.232,2.232,0,0,0-.294-1.171,1.083,1.083,0,0,0-.984-.59,1.1,1.1,0,0,0-1.006.59,2.262,2.262,0,0,0-.294,1.191,2.232,2.232,0,0,0,.294,1.171,1.107,1.107,0,0,0,1,.59,1.1,1.1,0,0,0,.984-.6A2.218,2.218,0,0,0,53.988,11.186Z" transform="translate(-43.366 -6.459)"/><path class="a" d="M63.085,8.719l-1.544,4.935H60.536l-.64-2.143a16.04,16.04,0,0,1-.4-1.594h-.02a11.673,11.673,0,0,1-.4,1.594L58.4,13.654H57.387L55.935,8.719h1.128l.558,2.346q.2.832.335,1.584h.02q.122-.619.407-1.573l.7-2.356h.894l.671,2.305q.243.843.4,1.625h.03a15.524,15.524,0,0,1,.335-1.625l.6-2.305h1.077Z" transform="translate(-43.101 -6.455)"/><path class="a" d="M68.392,13.659h-1.1V10.832q0-1.307-.995-1.307a.99.99,0,0,0-.793.359,1.274,1.274,0,0,0-.3.846v2.927h-1.1V10.134q0-.65-.04-1.412h.964l.051.772h.03a1.585,1.585,0,0,1,.568-.6,1.854,1.854,0,0,1,.995-.277,1.575,1.575,0,0,1,1.148.447,2.172,2.172,0,0,1,.568,1.635Z" transform="translate(-42.72 -6.459)"/><path class="a" d="M71.137,13.756h-1.1v-7.2h1.1Z" transform="translate(-42.439 -6.556)"/><path class="a" d="M77.475,11.15a2.707,2.707,0,0,1-.65,1.869,2.322,2.322,0,0,1-1.808.752,2.2,2.2,0,0,1-1.732-.721,2.627,2.627,0,0,1-.644-1.817,2.681,2.681,0,0,1,.665-1.878A2.3,2.3,0,0,1,75.1,8.623a2.259,2.259,0,0,1,1.748.72A2.606,2.606,0,0,1,77.475,11.15Zm-1.139.036a2.232,2.232,0,0,0-.294-1.171,1.082,1.082,0,0,0-.983-.59,1.1,1.1,0,0,0-1.006.59,2.262,2.262,0,0,0-.294,1.191,2.232,2.232,0,0,0,.294,1.171,1.107,1.107,0,0,0,1,.59,1.093,1.093,0,0,0,.983-.6A2.209,2.209,0,0,0,76.336,11.186Z" transform="translate(-42.318 -6.459)"/><path class="a" d="M82.512,13.659h-.985l-.082-.568h-.03a1.69,1.69,0,0,1-1.442.68,1.488,1.488,0,0,1-1.126-.447,1.4,1.4,0,0,1-.386-1.005,1.533,1.533,0,0,1,.757-1.381,3.928,3.928,0,0,1,2.128-.467v-.092q0-.975-1.025-.975a2.3,2.3,0,0,0-1.287.365l-.223-.72A3.165,3.165,0,0,1,80.5,8.623q1.935,0,1.937,2.041v1.817A7.708,7.708,0,0,0,82.512,13.659Zm-1.139-1.7V11.2q-1.815-.031-1.815.995a.743.743,0,0,0,.21.579.767.767,0,0,0,.536.193,1.108,1.108,0,0,0,.671-.228.937.937,0,0,0,.4-.777Z" transform="translate(-42.045 -6.459)"/><path class="a" d="M88.5,13.756h-.974l-.051-.793h-.03a1.64,1.64,0,0,1-1.585.9,1.857,1.857,0,0,1-1.482-.7,2.729,2.729,0,0,1-.588-1.817,2.861,2.861,0,0,1,.64-1.94,1.967,1.967,0,0,1,1.523-.691,1.479,1.479,0,0,1,1.39.67h.021V6.556h1.1v5.87Q88.457,13.147,88.5,13.756Zm-1.137-2.081v-.823a1.615,1.615,0,0,0-.03-.345,1.25,1.25,0,0,0-.4-.665,1.078,1.078,0,0,0-.734-.269,1.126,1.126,0,0,0-.965.488,2.091,2.091,0,0,0-.352,1.249,1.949,1.949,0,0,0,.337,1.188,1.129,1.129,0,0,0,.959.487,1.057,1.057,0,0,0,.867-.406A1.352,1.352,0,0,0,87.359,11.674Z" transform="translate(-41.795 -6.556)"/><path class="a" d="M97.465,11.15a2.707,2.707,0,0,1-.65,1.869,2.319,2.319,0,0,1-1.808.752,2.208,2.208,0,0,1-1.732-.721,2.627,2.627,0,0,1-.644-1.817A2.681,2.681,0,0,1,93.3,9.354a2.306,2.306,0,0,1,1.793-.731,2.255,2.255,0,0,1,1.746.72A2.606,2.606,0,0,1,97.465,11.15Zm-1.137.036a2.232,2.232,0,0,0-.294-1.171,1.085,1.085,0,0,0-.985-.59,1.1,1.1,0,0,0-1.006.59,2.262,2.262,0,0,0-.294,1.191,2.232,2.232,0,0,0,.294,1.171,1.121,1.121,0,0,0,1.981-.01A2.228,2.228,0,0,0,96.328,11.186Z" transform="translate(-41.38 -6.459)"/><path class="a" d="M103.077,13.659h-1.1V10.832q0-1.307-1-1.307a.987.987,0,0,0-.791.359,1.269,1.269,0,0,0-.3.846v2.927h-1.1V10.134q0-.65-.039-1.412h.963l.051.772h.03a1.6,1.6,0,0,1,.568-.6,1.858,1.858,0,0,1,1-.277,1.574,1.574,0,0,1,1.147.447,2.168,2.168,0,0,1,.568,1.635Z" transform="translate(-41.093 -6.459)"/><path class="a" d="M110.071,9.6h-1.208v2.4c0,.609.215.914.64.914a1.932,1.932,0,0,0,.489-.051l.028.832a2.465,2.465,0,0,1-.852.122,1.312,1.312,0,0,1-1.014-.4,1.936,1.936,0,0,1-.366-1.331V9.6h-.721V8.774h.721v-.9l1.075-.325V8.773h1.208V9.6Z" transform="translate(-40.703 -6.51)"/><path class="a" d="M115.676,13.756h-1.1V10.95q0-1.327-.994-1.327a1.047,1.047,0,0,0-1.047.769,1.379,1.379,0,0,0-.051.395v2.968h-1.1v-7.2h1.1V9.53h.021a1.658,1.658,0,0,1,1.482-.811,1.529,1.529,0,0,1,1.129.447,2.248,2.248,0,0,1,.558,1.655v2.934Z" transform="translate(-40.5 -6.556)"/><path class="a" d="M121.4,10.958a2.65,2.65,0,0,1-.041.5h-3.29a1.439,1.439,0,0,0,.476,1.117,1.634,1.634,0,0,0,1.077.345,3.635,3.635,0,0,0,1.331-.233l.172.762a4.132,4.132,0,0,1-1.656.3,2.392,2.392,0,0,1-1.8-.675,2.488,2.488,0,0,1-.654-1.812,2.824,2.824,0,0,1,.609-1.858,2.1,2.1,0,0,1,1.725-.791,1.836,1.836,0,0,1,1.613.791A2.635,2.635,0,0,1,121.4,10.958Zm-1.047-.284a1.477,1.477,0,0,0-.213-.843.958.958,0,0,0-.873-.457,1.042,1.042,0,0,0-.873.447,1.661,1.661,0,0,0-.326.853h2.284Z" transform="translate(-40.236 -6.459)"/></g></g></svg>