<svg xmlns="http://www.w3.org/2000/svg" viewBox="0 0 60 60"><defs><style>.a,.b{fill:none;}.a{stroke:#003dc6;stroke-linecap:round;stroke-linejoin:round;stroke-miterlimit:10;stroke-width:2px;}</style></defs><g transform="translate(2.5 1.25)"><rect class="a" width="17.5" height="15" transform="translate(18.75)"/><path class="a" d="M8,6.5H35.5a32.507,32.507,0,0,1,0,25H8A32.485,32.485,0,0,1,8,6.5Z" transform="translate(5.749 8.5)"/><rect class="a" width="7.5" height="17.5" transform="translate(16.25 40)"/><line class="a" x2="15" transform="translate(12.5 57.5)"/><rect class="a" width="7.5" height="17.5" transform="translate(31.25 40)"/><line class="a" x2="15" transform="translate(27.5 57.5)"/><circle class="a" cx="3.75" cy="3.75" r="3.75" transform="translate(47.5 33.75)"/><path class="a" d="M17.5,6.5c6.213,0,10,5.035,10,11.25v7.5" transform="translate(23.75 8.5)"/><circle class="a" cx="3.75" cy="3.75" r="3.75" transform="translate(0 33.75)"/><path class="a" d="M12.5,6.5c-6.212,0-10,5.035-10,11.25v7.5" transform="translate(1.25 8.5)"/><rect class="a" width="7.5" height="5" transform="translate(23.75 5)"/><line class="a" y1="7.5" transform="translate(18.75 20)"/><line class="a" y1="7.5" transform="translate(23.75 20)"/><circle class="a" cx="2.5" cy="2.5" r="2.5" transform="translate(33.75 20)"/><line class="a" x2="30" transform="translate(12.5 35)"/></g><rect class="b" width="60" height="60"/></svg>