<svg xmlns="http://www.w3.org/2000/svg" viewBox="0 0 60 60"><defs><style>.a,.b{fill:none;}.a{stroke:#003dc6;stroke-linecap:round;stroke-linejoin:round;stroke-miterlimit:10;stroke-width:2px;}</style></defs><g transform="translate(3.75 1.25)"><path class="a" d="M51.5,26.5a5.175,5.175,0,0,1-5-5,5,5,0,0,1-10,0,5.175,5.175,0,0,1-5,5,5.175,5.175,0,0,1-5-5,5.175,5.175,0,0,1-5,5,5.175,5.175,0,0,1-5-5,5.175,5.175,0,0,1-5,5,5.175,5.175,0,0,1-5-5,5.175,5.175,0,0,1-5,5" transform="translate(-1.5 31)"/><path class="a" d="M51.5,22.5a5.175,5.175,0,0,1-5-5,5,5,0,0,1-10,0,5.175,5.175,0,0,1-5,5,5.175,5.175,0,0,1-5-5,5.175,5.175,0,0,1-5,5,5.175,5.175,0,0,1-5-5,5.175,5.175,0,0,1-5,5,5.175,5.175,0,0,1-5-5,5.175,5.175,0,0,1-5,5" transform="translate(-1.5 25)"/><path class="a" d="M39.25,20c2.5-1.25,3.75-5,3.75-7.5H3c0,2.688,1.25,6.25,4.208,7.5" transform="translate(0.75 17.5)"/><line class="a" y1="30" transform="translate(22.5)"/><path class="a" d="M28,22.25H10.5V1Z" transform="translate(12 0.25)"/><line class="a" x2="20" transform="translate(22.5 22.5)"/></g><rect class="b" width="60" height="60"/></svg>