<svg width="33" height="48" viewBox="0 0 33 48" fill="none" xmlns="http://www.w3.org/2000/svg">
<path d="M25.483 13.491H29.483C30.0134 13.491 30.5221 13.2803 30.8972 12.9052C31.2723 12.5301 31.483 12.0214 31.483 11.491V8.49097C31.483 6.63445 30.7455 4.85397 29.4327 3.54122C28.12 2.22846 26.3395 1.49097 24.483 1.49097H8.5C6.64348 1.49097 4.86301 2.22846 3.55025 3.54122C2.2375 4.85397 1.5 6.63445 1.5 8.49097V45.469C1.5 46.569 2.136 46.83 2.913 46.055L11.493 37.475L20.073 46.055C20.85 46.83 21.486 46.569 21.486 45.469V9.49397C21.486 8.4331 21.9074 7.41569 22.6576 6.66554C23.4077 5.91539 24.4251 5.49397 25.486 5.49397" stroke="white" stroke-width="2" stroke-linecap="round" stroke-linejoin="round"/>
</svg>
