<svg xmlns="http://www.w3.org/2000/svg" viewBox="0 0 60 60"><defs><style>.a,.b{fill:none;}.a{stroke:#003dc6;stroke-linecap:round;stroke-linejoin:round;stroke-miterlimit:10;stroke-width:2px;}</style></defs><g transform="translate(6.25 1.25)"><path class="a" d="M18.665,55H7.5a5,5,0,0,1-5-5V2.5" transform="translate(-2.5 2.5)"/><path class="a" d="M50,.5H7.5a5,5,0,0,0,0,10H50v8.708" transform="translate(-2.5 -0.5)"/><line class="a" x2="40" transform="translate(5 5)"/><circle class="a" cx="17.5" cy="17.5" r="17.5" transform="translate(17.5 22.5)"/><circle class="a" cx="5" cy="5" r="5" transform="translate(30 35)"/><g transform="translate(33.75 38.75)"><path d="M17.25,16a1.25,1.25,0,1,0,1.25,1.25A1.25,1.25,0,0,0,17.25,16Z" transform="translate(-16 -16)"/></g></g><rect class="b" width="60" height="60"/></svg>