<svg xmlns="http://www.w3.org/2000/svg" viewBox="0 0 60 60"><defs><style>.a,.c{fill:none;}.a,.b{stroke:#003dc6;stroke-linecap:round;stroke-linejoin:round;stroke-miterlimit:10;stroke-width:2px;}.b{fill:#fff;}</style></defs><g transform="translate(-1260 -1041)"><path class="a" d="M63.409,73.014V81.72h-7.1" transform="translate(1216.45 990.28)"/><line class="a" y2="37.75" transform="translate(1286 1057.5)"/><path class="a" d="M76.8,68V80.72H70.05V94.47" transform="translate(1224.95 997.78)"/><line class="a" y2="11.25" transform="translate(1294 1057.5)"/><circle class="a" cx="2" cy="2" r="2" transform="translate(1292 1068.75)"/><circle class="a" cx="2" cy="2" r="2" transform="translate(1293 1093.5)"/><line class="a" y2="9.75" transform="translate(1277 1077.5)"/><line class="a" y2="3.75" transform="translate(1304 1082.5)"/><circle class="b" cx="2" cy="2" r="2" transform="translate(1275 1085.5)"/><circle class="b" cx="2" cy="2" r="2" transform="translate(1302 1085.5)"/><circle class="b" cx="2" cy="2" r="2" transform="translate(1284 1093.5)"/><g transform="translate(1262.75 1044.25)"><path class="a" d="M45.737,33.98S56.5,32.577,56.5,22.023A11.933,11.933,0,0,0,44.112,10.09a16.712,16.712,0,0,0-31.8,6.145A8.964,8.964,0,0,0,1.5,25.01c0,9.112,9.565,8.97,9.565,8.97" transform="translate(-1.5 -0.5)"/></g><rect class="c" width="60" height="60" transform="translate(1260 1041)"/></g></svg>