<svg xmlns="http://www.w3.org/2000/svg" viewBox="0 0 60 60"><defs><style>.a,.b{fill:none;}.a{stroke:#003dc6;stroke-linecap:round;stroke-linejoin:round;stroke-miterlimit:10;stroke-width:2px;}</style></defs><g transform="translate(1.25 1.25)"><path class="a" d="M42,39.5A2.506,2.506,0,0,1,39.5,42H7a2.507,2.507,0,0,1-2.5-2.5V7A2.507,2.507,0,0,1,7,4.5H39.5A2.506,2.506,0,0,1,42,7Z" transform="translate(5.5 5.5)"/><line class="a" y2="10" transform="translate(27.5)"/><line class="a" y2="10" transform="translate(17.5)"/><line class="a" y2="10" transform="translate(40)"/><line class="a" x2="10" transform="translate(0 30)"/><line class="a" x2="10" transform="translate(0 40)"/><line class="a" x2="10" transform="translate(0 17.5)"/><line class="a" y1="10" transform="translate(30 47.5)"/><line class="a" y1="10" transform="translate(40 47.5)"/><line class="a" y1="10" transform="translate(17.5 47.5)"/><line class="a" x1="10" transform="translate(47.5 27.5)"/><line class="a" x1="10" transform="translate(47.5 17.5)"/><line class="a" x1="10" transform="translate(47.5 40)"/><path class="a" d="M34,29a5.013,5.013,0,0,1-5,5H11.5a5.015,5.015,0,0,1-5-5V11.5a5.015,5.015,0,0,1,5-5H29a5.013,5.013,0,0,1,5,5Z" transform="translate(8.5 8.5)"/><line class="a" x2="10" transform="translate(22.5 22.5)"/><line class="a" x2="5" transform="translate(22.5 27.5)"/><line class="a" x2="5" transform="translate(30 35)"/></g><rect class="b" width="60" height="60"/></svg>