<svg xmlns="http://www.w3.org/2000/svg" viewBox="0 0 58.25 59.5"><defs>
<style>.a,.b,.c{fill:none;}.a,.c{stroke:#003DC6;stroke-linejoin:round;stroke-miterlimit:10;stroke-width:2px;}.a{stroke-linecap:round;}.d,.e{stroke:none;}.e{fill:#707070;}</style></defs><g transform="translate(-1.5 -0.25)"><g transform="translate(2.5 1.25)"><path class="a" d="M17.25,15.5H21v6.25l6.25-6.25H38.5V.5h-25v10" transform="translate(17.75 -0.498)"/><g transform="translate(37.5 6.252)"><g class="b" transform="translate(-16 -3.001)"><path class="d" d="M18,3H16V5h2Z"/><path class="e" d="M 18 5.000999450683594 L 16 5.000999450683594 L 16 3.000999450683594 L 18 3.000999450683594 L 18 5.000999450683594 Z"/></g></g><circle class="c" cx="8.75" cy="8.75" r="8.75" transform="translate(5)"/><path class="c" d="M14.75,9C7.155,9,1,20.25,1,32.75H9.75v12.5h10V32.75H28.5C28.5,20.25,22.342,9,14.75,9Z" transform="translate(-1 12.25)"/><line class="c" x2="10" transform="translate(8.75 45)"/><path class="c" d="M16.395,10.057,10.21,18.664,4.027,10.057" transform="translate(3.54 13.836)"/><g transform="translate(42.5 6.252)"><g class="b" transform="translate(-16 -3.001)"><path class="d" d="M18,3H16V5h2Z"/><path class="e" d="M 18 5.000999450683594 L 16 5.000999450683594 L 16 3.000999450683594 L 18 3.000999450683594 L 18 5.000999450683594 Z"/></g></g><g transform="translate(47.5 6.252)"><g class="b" transform="translate(-16 -3.001)"><path class="d" d="M18,3H16V5h2Z"/><path class="e" d="M 18 5.000999450683594 L 16 5.000999450683594 L 16 3.000999450683594 L 18 3.000999450683594 L 18 5.000999450683594 Z"/></g></g></g></g></svg> 