<svg xmlns="http://www.w3.org/2000/svg" viewBox="0 0 88.688 89.375"><defs><style>.a{fill:#fff;stroke:#003dc6;stroke-width:4px;}.b{fill:#003dc6;}.c{stroke:none;}.d{fill:none;}</style></defs><g transform="translate(11814.336 -855)"><g class="a" transform="translate(-11794 855)"><ellipse class="c" cx="25" cy="24.5" rx="25" ry="24.5"/><ellipse class="d" cx="25" cy="24.5" rx="23" ry="22.5"/></g><path class="b" d="M-43.773,6.375a7.286,7.286,0,0,1-2.562-.391V2.844a9.6,9.6,0,0,0,2.281.328q3.063,0,3.063-3.875V-22.844h3.75V-.828a7.75,7.75,0,0,1-1.664,5.352A6.207,6.207,0,0,1-43.773,6.375ZM-16.508,0H-20.2V-10.625a4.65,4.65,0,0,0-.8-2.984,3.11,3.11,0,0,0-2.555-.984,4.062,4.062,0,0,0-3.406,1.375q-1.078,1.375-1.078,4.609V0h-3.672V-17.281h2.875l.516,2.266h.188a5.112,5.112,0,0,1,2.219-1.906,7.435,7.435,0,0,1,3.188-.672q6.219,0,6.219,6.328ZM3.93-8.672A9.432,9.432,0,0,1,1.758-2.062,7.782,7.782,0,0,1-4.289.313,8.285,8.285,0,0,1-8.57-.781,7.221,7.221,0,0,1-11.43-3.922a10.7,10.7,0,0,1-1-4.75,9.369,9.369,0,0,1,2.156-6.562A7.818,7.818,0,0,1-4.2-17.594,7.613,7.613,0,0,1,1.742-15.18,9.325,9.325,0,0,1,3.93-8.672Zm-12.578,0q0,5.984,4.422,5.984,4.375,0,4.375-5.984,0-5.922-4.406-5.922a3.757,3.757,0,0,0-3.352,1.531A7.792,7.792,0,0,0-8.648-8.672ZM13.977.313A6.019,6.019,0,0,1,8.93-2.031,10.534,10.534,0,0,1,7.117-8.609a10.569,10.569,0,0,1,1.836-6.617,6.076,6.076,0,0,1,5.086-2.367,5.958,5.958,0,0,1,5.188,2.516h.188a22.011,22.011,0,0,1-.266-2.937v-6.3h3.688V0H19.961L19.32-2.266h-.172A5.87,5.87,0,0,1,13.977.313Zm.984-2.969a4,4,0,0,0,3.3-1.273A6.7,6.7,0,0,0,19.32-8.062v-.516q0-3.266-1.062-4.641a3.941,3.941,0,0,0-3.328-1.375,3.377,3.377,0,0,0-2.984,1.57A8.047,8.047,0,0,0,10.9-8.547a7.847,7.847,0,0,0,1.016,4.383A3.429,3.429,0,0,0,14.961-2.656ZM35.633.313a8.36,8.36,0,0,1-6.3-2.352,8.927,8.927,0,0,1-2.273-6.477,9.794,9.794,0,0,1,2.109-6.656,7.286,7.286,0,0,1,5.8-2.422,7.121,7.121,0,0,1,5.406,2.078A7.941,7.941,0,0,1,42.352-9.8v1.984H30.836A5.676,5.676,0,0,0,32.2-3.945,4.735,4.735,0,0,0,35.8-2.594a13.324,13.324,0,0,0,2.852-.289,14.947,14.947,0,0,0,2.836-.961V-.859a11.274,11.274,0,0,1-2.719.906A16.671,16.671,0,0,1,35.633.313Zm-.672-15.125a3.689,3.689,0,0,0-2.8,1.109A5.287,5.287,0,0,0,30.9-10.469h7.844a4.783,4.783,0,0,0-1.031-3.242A3.527,3.527,0,0,0,34.961-14.812Z" transform="translate(-11768 938)"/></g></svg>