<svg xmlns="http://www.w3.org/2000/svg" viewBox="0 0 111.643 84.122"><defs><style>.a,.b{fill:#003dc6;}.b{opacity:0.5;}</style></defs><g transform="translate(-358 -1876)"><path class="a" d="M52.585,24.128a9.763,9.763,0,0,1-4.42-1.4,5.065,5.065,0,0,1-2.273-3.155A5,5,0,0,1,47.108,15a6.991,6.991,0,0,1,3.654-1.755,21.23,21.23,0,0,1,7.132.062,4.33,4.33,0,0,0-.808-3.011,4.055,4.055,0,0,0-2.662-1.3,9.579,9.579,0,0,0-4.207.49,3.518,3.518,0,0,1-1.962.481,1.749,1.749,0,0,1-1.271-2.3,1.959,1.959,0,0,1,1.311-1.178l0,0a14.509,14.509,0,0,1,6-1.067,7.992,7.992,0,0,1,7.789,7.316c.066,2.538.009,5.079.03,7.619a2.669,2.669,0,0,1-.357,1.661,2.421,2.421,0,0,1-.985.841,18.5,18.5,0,0,1-6.866,1.321Q53.247,24.176,52.585,24.128Zm5.308-3.736c.008-1.419,0-2.834,0-4.253a16.2,16.2,0,0,0-5.8-.064l0,0a3.063,3.063,0,0,0-2.152,1.4,2.228,2.228,0,0,0,.688,2.8,5.249,5.249,0,0,0,2.769.781A13.784,13.784,0,0,0,57.893,20.392ZM.686,21.949a1.93,1.93,0,0,1-.522-2.255,1.91,1.91,0,0,1,2.029-1.131,3.164,3.164,0,0,1,1.4.729,5.033,5.033,0,0,0,3.489.905A3.11,3.11,0,0,0,9.6,18.672a7.552,7.552,0,0,0,.606-3.788V3.693c-.665-.006-1.331-.006-2-.005-.572,0-1.144,0-1.716,0A1.836,1.836,0,0,1,5.353.443,2.108,2.108,0,0,1,6.839.009h5.7a1.97,1.97,0,0,1,1.774.924A3.2,3.2,0,0,1,14.6,2.72v11.6c.02.954-.032,1.907-.089,2.861a7.559,7.559,0,0,1-2.236,4.97,7.969,7.969,0,0,1-5.217,1.794q-.28.017-.559.017A9.423,9.423,0,0,1,.686,21.949Zm88.778,1.807a9.71,9.71,0,0,1-5.944-2.713A8.938,8.938,0,0,1,81,14.648a9.129,9.129,0,0,1,2.543-6.274,9.278,9.278,0,0,1,5.029-2.768V5.62a9.245,9.245,0,0,1,6.275.929,8.762,8.762,0,0,1,4.142,7.78,1.765,1.765,0,0,1-1.777,1.626c-4.006,0-8.011-.009-12.016,0a5.84,5.84,0,0,0,1.059,2.275,5.442,5.442,0,0,0,3.322,1.892,7.725,7.725,0,0,0,4.387-.429c.579-.251,1.1-.729,1.77-.687a1.784,1.784,0,0,1,1.749,1.91,1.96,1.96,0,0,1-.986,1.461,10.9,10.9,0,0,1-7.027,1.38Zm-4.286-10.6h10.19a4.864,4.864,0,0,0-2.546-3.781,5.527,5.527,0,0,0-5.909.581l0-.013A5.218,5.218,0,0,0,85.178,13.152ZM107.1,23.815a6.147,6.147,0,0,1-3.413-1.3,5.269,5.269,0,0,1-1.71-3.186,17.591,17.591,0,0,1-.145-3.2V3.057a4.722,4.722,0,0,1,.16-1.725,2.1,2.1,0,0,1,4.049.705c.017,1.193,0,2.385,0,3.578.432,0,.864,0,1.3,0,.672,0,1.344-.007,2.016.015a1.683,1.683,0,0,1-.1,3.346c-.628.017-1.258.014-1.886.011-.444,0-.887,0-1.33,0v8.635a2.859,2.859,0,0,0,.855,2.248,3.271,3.271,0,0,0,2.692.392,1.683,1.683,0,0,1,1.852.8,1.944,1.944,0,0,1,.145,1.323,1.8,1.8,0,0,1-1.119,1.1,8.331,8.331,0,0,1-3.366.336Zm-83.593-.347a2.783,2.783,0,0,1-1.783-1.846q-2.046-6.732-4.1-13.448a1.912,1.912,0,0,1,.219-1.75h0a2.065,2.065,0,0,1,3.182-.133,3.2,3.2,0,0,1,.589,1.439c.961,3.571,1.887,7.151,2.87,10.715,1.178-3.63,2.415-7.237,3.62-10.868a2.774,2.774,0,0,1,1.732-1.8,2.742,2.742,0,0,1,2.92.735,3.135,3.135,0,0,1,.708,1.324q1.306,4.039,2.619,8.078c.3.842.5,1.723.867,2.536q1.477-5.352,2.95-10.7A2.979,2.979,0,0,1,40.583,6.2a1.851,1.851,0,0,1,2.647-.017,1.9,1.9,0,0,1,.436,1.993L39.544,21.585a2.845,2.845,0,0,1-1.868,1.9,2.8,2.8,0,0,1-2.834-.741,5.858,5.858,0,0,1-1.01-2.2c-1.074-3.1-2.085-6.227-3.2-9.328-1.145,3.437-2.356,6.853-3.523,10.283a3.063,3.063,0,0,1-1.069,1.565,2.783,2.783,0,0,1-2.535.4Zm44.228.131a2.12,2.12,0,0,1-1.957-2.1c-.017-6.336,0-12.672-.008-19.017a2.833,2.833,0,0,1,.268-1.366,2.112,2.112,0,0,1,1.4-1.047h0a2.128,2.128,0,0,1,2.306,1.075,2.065,2.065,0,0,1,.232,1.112q0,9.679,0,19.354a2.089,2.089,0,0,1-2.087,2Q67.815,23.606,67.736,23.6Zm6.591-.5a2.131,2.131,0,0,1-.726-1.6q0-9.675,0-19.354a2.108,2.108,0,0,1,4.214-.111c.014,6.449,0,12.9,0,19.353a2.117,2.117,0,0,1-3.488,1.71Z" transform="translate(358 1935.947)"/><g transform="translate(387 1876)"><path class="b" d="M73.612,67.974a2.242,2.242,0,0,1,2.159-.527,2.72,2.72,0,0,1,1.414,1.089c1.21,1.449,2.43,2.888,3.638,4.337a5.79,5.79,0,0,1,6.853,9.276q-3.921,3.307-7.858,6.6A11.858,11.858,0,0,1,77.882,90.2a5.786,5.786,0,0,1-6.526-9.463c1.7-1.449,3.421-2.873,5.13-4.313.3-.247.582-.5.9-.724-.762-1.057-1.674-2-2.484-3.029Q61.659,83.736,48.471,94.84a2.213,2.213,0,0,1-2.316.291,3.829,3.829,0,0,1-1.245-1.139c-.682-.841-1.4-1.636-2.062-2.487a5.841,5.841,0,0,1-.5-6,5.906,5.906,0,0,1,1.567-1.945L57.96,71.769a9.9,9.9,0,0,1,2.235-1.606,5.825,5.825,0,0,1,5.946.673,12.841,12.841,0,0,1,1.8,1.917c1.887-1.6,3.787-3.182,5.678-4.774M61.7,74.391Q54.18,80.69,46.669,87a1.4,1.4,0,0,0-.337,1.794c.3.431.673.818,1.01,1.22q8.465-7.105,16.925-14.2a3.376,3.376,0,0,0,.269-.273c-.353-.348-.638-.761-.983-1.116a1.39,1.39,0,0,0-1.851-.039M83.331,76.55a2.132,2.132,0,0,0-.545.358q-4,3.352-8,6.706a4.644,4.644,0,0,0-.751.705,1.367,1.367,0,0,0,2.019,1.806q4.335-3.63,8.664-7.267a1.356,1.356,0,0,0,.35-1.6,1.377,1.377,0,0,0-1.737-.712Z" transform="translate(-41.743 -67.36)"/><path class="a" d="M151.152,222.711a2.211,2.211,0,0,1,2.814.423q1.462,1.721,2.911,3.457a2.832,2.832,0,0,1,.909,1.781,2.2,2.2,0,0,1-.833,1.851q-9.522,8-19.052,16c-.7.564-1.356,1.178-2.08,1.7a11.918,11.918,0,0,1-10.83,1.774,12.067,12.067,0,0,1-5.8-4.083q-3.265-3.9-6.536-7.8a2.28,2.28,0,0,1-.448-2.242,2.22,2.22,0,0,1,2.03-1.457,2.275,2.275,0,0,1,1.759.809q3.366,4.024,6.747,8.044a7.836,7.836,0,0,0,2.693,2.173,7.545,7.545,0,0,0,6.715-.108,13.269,13.269,0,0,0,2.423-1.791l11.378-9.556c2.174-1.813,4.325-3.657,6.515-5.449-.645-.818-1.358-1.58-1.988-2.412a2.221,2.221,0,0,1,.672-3.112Z" transform="translate(-104.084 -204.748)"/></g></g></svg>