<svg xmlns="http://www.w3.org/2000/svg" viewBox="0 0 60 60"><defs><style>.a,.b{fill:none;}.a{stroke:#003dc6;stroke-linecap:round;stroke-linejoin:round;stroke-miterlimit:10;stroke-width:2px;}</style></defs><g transform="translate(4.366 4.367)"><path class="a" d="M20.008,28.63l.215.215a5,5,0,0,0,7.07,0l9.912-9.91a7.526,7.526,0,0,0,0-10.607L32.81,3.935a7.519,7.519,0,0,0-10.605,0l-9.912,9.91a5,5,0,0,0,0,7.073l.215.212" transform="translate(11.876 -1.747)"/><path class="a" d="M21.13,12.506l-.215-.212a5,5,0,0,0-7.07,0L3.933,22.2a7.526,7.526,0,0,0,0,10.608l4.4,4.392a7.519,7.519,0,0,0,10.605,0l9.912-9.91a5,5,0,0,0,0-7.073l-.215-.215" transform="translate(-1.746 11.877)"/><line class="a" y1="19.445" x2="19.445" transform="translate(15.911 15.911)"/></g><rect class="b" width="60" height="60"/></svg>