<svg xmlns="http://www.w3.org/2000/svg" viewBox="0 0 48 48"><defs><style>.a,.b{fill:none;}.a{stroke:#003dc6;stroke-linecap:round;stroke-linejoin:round;stroke-miterlimit:10;stroke-width:2px;}</style></defs><g transform="translate(1 1)"><circle class="a" cx="23" cy="23" r="23"/><path class="a" d="M22.447,10.66c.71-1,1.106-1.66,1.106-1.66" transform="translate(21.447 8)"/><path class="a" d="M19.931,14.034a29.285,29.285,0,0,0,2.66-2.7" transform="translate(18.931 10.338)"/><path class="a" d="M16.688,15.145a11.1,11.1,0,0,0,3.468-1.352" transform="translate(15.688 12.793)"/><path class="a" d="M13,13.958a19.765,19.765,0,0,0,3.568,1.012" transform="translate(11.998 12.958)"/><path class="a" d="M9.442,12.655a27.368,27.368,0,0,1,3.53,1.178" transform="translate(8.442 11.655)"/><path class="a" d="M5.762,13.4a7.019,7.019,0,0,1,2.476-.848c.38-.054.758-.088,1.128-.1" transform="translate(4.762 11.448)"/><path class="a" d="M3.4,17.349a16.534,16.534,0,0,1,1.908-3.172" transform="translate(2.401 13.177)"/><path class="a" d="M2.5,19.485s.142-.792.488-1.97" transform="translate(1.5 16.515)"/><g transform="translate(22.454 6)"><path class="a" d="M24.819,10.044c0,3.62-6.546,11.456-6.546,11.456s-6.546-7.836-6.546-11.456a6.546,6.546,0,0,1,13.092,0Z" transform="translate(-11.727 -3.5)"/><circle class="a" cx="2.454" cy="2.454" r="2.454" transform="translate(4.092 4.09)"/></g></g><rect class="b" width="48" height="48"/></svg>