<svg xmlns="http://www.w3.org/2000/svg" viewBox="0 0 60 60"><defs><style>.a,.b{fill:none;}.a{stroke:#003dc6;stroke-linecap:round;stroke-linejoin:round;stroke-miterlimit:10;stroke-width:2px;}</style></defs><g transform="translate(1.25 1.25)"><g transform="translate(0 30)"><path class="a" d="M14.25,12.5A13.75,13.75,0,1,0,27.468,30H30.5L33,32.5,35.5,30H38l2.5,2.5L43,30h3.75l3.75-3.75L46.75,22.5H27.468A13.741,13.741,0,0,0,14.25,12.5Z" transform="translate(-0.5 -12.5)"/><circle class="a" cx="3.75" cy="3.75" r="3.75" transform="translate(5 10)"/></g><g transform="translate(25)"><circle class="a" cx="1.25" cy="1.25" r="1.25" transform="translate(15 23.75)"/><line class="a" y2="5" transform="translate(16.25 26.25)"/><path class="a" d="M40.5,32.5H43V7.5H10.5v10" transform="translate(-10.5 10)"/><path class="a" d="M12.5,18V11.75a11.25,11.25,0,0,1,22.5,0V18" transform="translate(-7.5 -0.5)"/></g></g><rect class="b" width="60" height="60"/></svg>