<svg xmlns="http://www.w3.org/2000/svg" viewBox="0 0 60 60"><defs><style>.a,.b,.c{fill:none;}.a,.b{stroke:#003dc6;stroke-linejoin:round;stroke-miterlimit:10;stroke-width:2px;}.a{stroke-linecap:round;}</style></defs><g transform="translate(8.75 2.5)"><g transform="translate(0 8.75)"><path class="a" d="M31,29.5V47a5,5,0,0,1-5,5H8.5a5,5,0,0,1-5-5V9.5a5,5,0,0,1,5-5H16" transform="translate(-3.5 -4.5)"/><line class="a" x1="12.5" transform="translate(0 10)"/><line class="a" x1="27.5" transform="translate(0 37.5)"/><line class="a" x2="2.5" transform="translate(10 5)"/><path class="b" d="M11,22.25A1.252,1.252,0,0,1,9.75,23.5h0A1.252,1.252,0,0,1,8.5,22.25h0A1.249,1.249,0,0,1,9.75,21h0A1.249,1.249,0,0,1,11,22.25Z" transform="translate(4 20.25)"/></g><path class="a" d="M34.75,21.825V14.75c0-4.375-2.158-8.418-5.955-10A3.8,3.8,0,0,0,24.75,1a3.8,3.8,0,0,0-4.045,3.75c-3.8,1.582-5.955,5.625-5.955,10v7.075c0,1.787-1.962,2.925-3.75,2.925H38.5C36.713,24.75,34.75,23.612,34.75,21.825Z" transform="translate(7.75 -1)"/><path class="a" d="M24.5,10.5a5,5,0,0,1-10,0" transform="translate(13 13.25)"/></g><rect class="c" width="60" height="60"/></svg>