<svg xmlns="http://www.w3.org/2000/svg" viewBox="0 0 60 60.961"><defs><style>.a,.b{fill:none;}.a{stroke:#fff;stroke-width:2px;}.c{stroke:none;}</style></defs><g transform="translate(-603 -5188.039)"><g transform="translate(615.727 5189.606)"><g transform="translate(0 0)"><path class="a" d="M4247.817,6895.542l5.637,7.895a7.345,7.345,0,0,0,.936,3.813c1.064,1.763,1.657,2.047,1.657,2.047l-2.154,22.064" transform="translate(-4244.094 -6878.995)"/><path class="a" d="M4250.778,6887.5l9.368,8.361h9.106a2.373,2.373,0,0,1,2.066,1.634c.4.992,4.167,9.324,4.167,9.324l2.383-1.114,2.51,5.655-7.785,4.668" transform="translate(-4245.803 -6874.353)"/><path class="a" d="M4299.117,6911.119l2,29.183" transform="translate(-4273.701 -6887.985)"/><g class="a" transform="translate(4.646 52.262)"><rect class="c" width="28.755" height="5.92"/><rect class="b" x="1" y="1" width="26.755" height="3.92"/></g><g class="a" transform="translate(15.218 11.667)"><path class="c" d="M1.691,0H5.074A1.691,1.691,0,0,1,6.766,1.691V5.5A3.383,3.383,0,0,1,3.383,8.88h0A3.383,3.383,0,0,1,0,5.5V1.691A1.691,1.691,0,0,1,1.691,0Z"/><path class="b" d="M2.059,1H4.707A1.059,1.059,0,0,1,5.766,2.059V5.5A2.383,2.383,0,0,1,3.383,7.88h0A2.383,2.383,0,0,1,1,5.5V2.059A1.059,1.059,0,0,1,2.059,1Z"/></g><g transform="translate(11.953 8.568)"><path class="a" d="M4267.28,6884.888l3.553,3.553" transform="translate(-4267.28 -6881.414)"/><path class="a" d="M4272.494,6876.672l2.125,3.458" transform="translate(-4270.289 -6876.672)"/></g><g transform="translate(21.089 8.568)"><path class="a" d="M4270.833,6884.888l-3.554,3.553" transform="translate(-4266.502 -6881.414)"/><path class="a" d="M4274.619,6876.672l-2.125,3.458" transform="translate(-4272.493 -6876.672)"/></g><line class="a" y1="4.652" transform="translate(18.812 7.227)"/><path class="a" d="M4245.279,6881.157l-2.914,8.181-2.672-8.181" transform="translate(-4239.406 -6870.693)"/><path class="a" d="M4244.072,6856.411c-1.814.531-5.178,3.011-5.056,5.432s1.586,3.166,3.112,3.166a2.592,2.592,0,0,0,2.8-2.671C4244.844,6860.679,4242.323,6860.335,4244.072,6856.411Z" transform="translate(-4239.013 -6856.411)"/><path class="a" d="M4262.655,6913.476l13.745-6.065" transform="translate(-4252.658 -6885.844)"/><path class="a" d="M4266.265,6938.53l12.6-30.568" transform="translate(-4254.741 -6886.163)"/><path class="a" d="M4286.4,6938.462l4.122-30.617" transform="translate(-4266.359 -6886.095)"/></g></g><rect class="b" width="60" height="60" transform="translate(603 5189)"/></g></svg>