<svg xmlns="http://www.w3.org/2000/svg" viewBox="0 0 60 60"><defs><style>.a,.b{fill:none;}.b{stroke:#003dc6;stroke-linecap:round;stroke-linejoin:round;stroke-width:2px;}</style></defs><rect class="a" width="60" height="60"/><g transform="translate(5.5 1.5)"><path class="b" d="M5.5,2.5H34.717V7.37" transform="translate(2.87 2.87)"/><path class="b" d="M42.457,10.239V1.717A1.217,1.217,0,0,0,41.239.5H8.37a4.87,4.87,0,1,0,0,9.739h35.3a1.217,1.217,0,0,1,1.217,1.217V55.283A1.217,1.217,0,0,1,43.674,56.5H8.37A4.87,4.87,0,0,1,3.5,51.63V5.37" transform="translate(0 0)"/><circle class="b" cx="14.609" cy="14.609" r="14.609" transform="translate(9.587 18.761)"/><line class="b" x2="26.568" transform="translate(10.911 39.452)"/><line class="b" x2="26.568" transform="translate(10.911 27.283)"/><line class="b" y2="26.568" transform="translate(18.109 20.085)"/><line class="b" y2="26.568" transform="translate(30.283 20.085)"/></g></svg>