<svg xmlns="http://www.w3.org/2000/svg" viewBox="0 0 24 24"><defs><style>.a{opacity:0;}.b,.c{fill:#fff;}.b{fill-rule:evenodd;}</style></defs><g transform="translate(0)"><circle class="a" cx="12" cy="12" r="12"/><g transform="translate(4.8 4.8)"><path class="b" d="M59.028,53.48a1.509,1.509,0,1,0-.038,3.011h.019a1.51,1.51,0,1,0,.019-3.011Z" transform="translate(-57.39 -53.48)"/><rect class="c" width="2.896" height="8.712" transform="translate(0.171 4.2)"/><path class="b" d="M126.916,108.264a2.875,2.875,0,0,0-2.61,1.438v.03h-.019l.019-.03v-1.234h-2.9c.038.817,0,8.712,0,8.712h2.9v-4.865a1.981,1.981,0,0,1,.1-.706,1.585,1.585,0,0,1,1.486-1.059c1.048,0,1.467.8,1.467,1.97v4.661h2.9v-5C130.25,109.509,128.822,108.264,126.916,108.264Z" transform="translate(-116.742 -104.268)"/></g></g></svg>
