<svg xmlns="http://www.w3.org/2000/svg" viewBox="0 0 60 60"><defs><style>.a,.b,.c{fill:none;}.a,.b{stroke:#003dc6;stroke-linejoin:round;stroke-miterlimit:10;stroke-width:2px;}.b{stroke-linecap:round;}</style></defs><g transform="translate(1.25 1.25)"><g transform="translate(30 32.499)"><path class="a" d="M26.25,38.5S40,28.5,40,21.093c0-8.55-11.25-11.25-13.75-.855-2.5-10.4-13.75-7.695-13.75.855C12.5,28.5,26.25,38.5,26.25,38.5Z" transform="translate(-12.5 -13.5)"/></g><ellipse class="b" cx="23.75" cy="10" rx="23.75" ry="10"/><path class="b" d="M24.25,18.5C11.135,18.5.5,14.025.5,8.5" transform="translate(-0.5 11.5)"/><path class="b" d="M20.5,22.872C9.167,22.115.5,17.985.5,13" transform="translate(-0.5 18.25)"/><path class="b" d="M21.75,46.948C9.81,46.42.5,42.167.5,37V4.5" transform="translate(-0.5 5.5)"/><line class="b" y2="11.25" transform="translate(47.5 10)"/></g><rect class="c" width="60" height="60"/></svg>